<svg width="375" height="271" viewBox="0 0 375 271" fill="none" xmlns="http://www.w3.org/2000/svg">
<path fill-rule="evenodd" clip-rule="evenodd" d="M461 -4C461 147.326 338.326 270 187 270C35.674 270 -87 147.326 -87 -4C-87 -155.326 35.674 -278 187 -278C338.326 -278 461 -155.326 461 -4ZM462 -4C462 147.878 338.878 271 187 271C35.1217 271 -88 147.878 -88 -4C-88 -155.878 35.1217 -279 187 -279C338.878 -279 462 -155.878 462 -4ZM187 252.064C328.421 252.064 443.065 137.42 443.065 -4.00119C443.065 -145.422 328.421 -260.066 187 -260.066C45.5794 -260.066 -69.0649 -145.422 -69.0649 -4.00119C-69.0649 137.42 45.5794 252.064 187 252.064ZM187 253.064C328.973 253.064 444.065 137.972 444.065 -4.00119C444.065 -145.974 328.973 -261.066 187 -261.066C45.0271 -261.066 -70.0649 -145.974 -70.0649 -4.00119C-70.0649 137.972 45.0271 253.064 187 253.064ZM425.13 -4.00043C425.13 127.515 318.516 234.13 187 234.13C55.4843 234.13 -51.1304 127.515 -51.1304 -4.00043C-51.1304 -135.516 55.4843 -242.131 187 -242.131C318.516 -242.131 425.13 -135.516 425.13 -4.00043ZM426.13 -4.00043C426.13 128.068 319.068 235.13 187 235.13C54.932 235.13 -52.1304 128.068 -52.1304 -4.00043C-52.1304 -136.069 54.932 -243.131 187 -243.131C319.068 -243.131 426.13 -136.069 426.13 -4.00043ZM187 216.196C308.611 216.196 407.196 117.611 407.196 -3.99966C407.196 -125.61 308.611 -224.195 187 -224.195C65.3896 -224.195 -33.1953 -125.61 -33.1953 -3.99966C-33.1953 117.611 65.3896 216.196 187 216.196ZM187 217.196C309.163 217.196 408.196 118.163 408.196 -3.99966C408.196 -126.163 309.163 -225.195 187 -225.195C64.8373 -225.195 -34.1953 -126.163 -34.1953 -3.99966C-34.1953 118.163 64.8373 217.196 187 217.196ZM389.261 -3.9989C389.261 107.707 298.706 198.262 187 198.262C75.2945 198.262 -15.2607 107.707 -15.2607 -3.9989C-15.2607 -115.704 75.2945 -206.26 187 -206.26C298.706 -206.26 389.261 -115.704 389.261 -3.9989ZM390.261 -3.9989C390.261 108.259 299.258 199.262 187 199.262C74.7422 199.262 -16.2607 108.259 -16.2607 -3.9989C-16.2607 -116.257 74.7422 -207.26 187 -207.26C299.258 -207.26 390.261 -116.257 390.261 -3.9989ZM187 180.326C288.801 180.326 371.326 97.8006 371.326 -3.99991C371.326 -105.8 288.801 -188.326 187 -188.326C85.1996 -188.326 2.67399 -105.8 2.67399 -3.99991C2.67399 97.8006 85.1996 180.326 187 180.326ZM187 181.326C289.353 181.326 372.326 98.3528 372.326 -3.99991C372.326 -106.353 289.353 -189.326 187 -189.326C84.6473 -189.326 1.67399 -106.353 1.67399 -3.99991C1.67399 98.3528 84.6473 181.326 187 181.326ZM353.391 -4.00128C353.391 87.8941 278.895 162.39 187 162.39C95.1043 162.39 20.6084 87.8941 20.6084 -4.00128C20.6084 -95.8967 95.1043 -170.393 187 -170.393C278.895 -170.393 353.391 -95.8967 353.391 -4.00128ZM354.391 -4.00128C354.391 88.4464 279.447 163.39 187 163.39C94.552 163.39 19.6084 88.4464 19.6084 -4.00128C19.6084 -96.4489 94.552 -171.393 187 -171.393C279.447 -171.393 354.391 -96.4489 354.391 -4.00128ZM187 144.456C268.99 144.456 335.456 77.9897 335.456 -4.00052C335.456 -85.9908 268.99 -152.457 187 -152.457C105.01 -152.457 38.5435 -85.9908 38.5435 -4.00052C38.5435 77.9897 105.01 144.456 187 144.456ZM187 145.456C269.543 145.456 336.456 78.5421 336.456 -4.00052C336.456 -86.5431 269.543 -153.457 187 -153.457C104.457 -153.457 37.5435 -86.5431 37.5435 -4.00052C37.5435 78.5421 104.457 145.456 187 145.456ZM317.522 -3.99976C317.522 68.0854 259.085 126.522 187 126.522C114.915 126.522 56.4785 68.0854 56.4785 -3.99976C56.4785 -76.0849 114.915 -134.521 187 -134.521C259.085 -134.521 317.522 -76.0849 317.522 -3.99976ZM318.522 -3.99976C318.522 68.6377 259.638 127.522 187 127.522C114.363 127.522 55.4785 68.6377 55.4785 -3.99976C55.4785 -76.6372 114.363 -135.521 187 -135.521C259.638 -135.521 318.522 -76.6372 318.522 -3.99976ZM187 108.588C249.18 108.588 299.587 58.1808 299.587 -3.99921C299.587 -66.1793 249.18 -116.586 187 -116.586C124.82 -116.586 74.413 -66.1793 74.413 -3.99921C74.413 58.1808 124.82 108.588 187 108.588ZM187 109.588C249.732 109.588 300.587 58.7331 300.587 -3.99921C300.587 -66.7316 249.732 -117.586 187 -117.586C124.268 -117.586 73.413 -66.7316 73.413 -3.99921C73.413 58.7331 124.268 109.588 187 109.588ZM281.652 -4.00018C281.652 48.2748 239.275 90.652 187 90.652C134.725 90.652 92.3481 48.2748 92.3481 -4.00018C92.3481 -56.2751 134.725 -98.6523 187 -98.6523C239.275 -98.6523 281.652 -56.2751 281.652 -4.00018ZM282.652 -4.00018C282.652 48.8271 239.828 91.652 187 91.652C134.173 91.652 91.3481 48.8271 91.3481 -4.00018C91.3481 -56.8274 134.173 -99.6523 187 -99.6523C239.828 -99.6523 282.652 -56.8274 282.652 -4.00018ZM187 72.716C229.37 72.716 263.717 38.3685 263.717 -4.00134C263.717 -46.3712 229.37 -80.7188 187 -80.7188C144.63 -80.7188 110.283 -46.3712 110.283 -4.00134C110.283 38.3685 144.63 72.716 187 72.716ZM187 73.716C229.922 73.716 264.717 38.9208 264.717 -4.00134C264.717 -46.9235 229.922 -81.7188 187 -81.7188C144.078 -81.7188 109.283 -46.9235 109.283 -4.00134C109.283 38.9208 144.078 73.716 187 73.716ZM245.783 -3.99866C245.783 28.4661 219.465 54.784 187 54.784C154.535 54.784 128.217 28.4661 128.217 -3.99866C128.217 -36.4634 154.535 -62.7812 187 -62.7812C219.465 -62.7812 245.783 -36.4634 245.783 -3.99866ZM246.783 -3.99866C246.783 29.0184 220.017 55.784 187 55.784C153.983 55.784 127.217 29.0184 127.217 -3.99866C127.217 -37.0157 153.983 -63.7812 187 -63.7812C220.017 -63.7812 246.783 -37.0157 246.783 -3.99866ZM187 36.848C209.559 36.848 227.848 18.5598 227.848 -3.99982C227.848 -26.5595 209.559 -44.8477 187 -44.8477C164.44 -44.8477 146.152 -26.5595 146.152 -3.99982C146.152 18.5598 164.44 36.848 187 36.848ZM187 37.848C210.112 37.848 228.848 19.1121 228.848 -3.99982C228.848 -27.1118 210.112 -45.8477 187 -45.8477C163.888 -45.8477 145.152 -27.1118 145.152 -3.99982C145.152 19.1121 163.888 37.848 187 37.848ZM187 18.9123C199.655 18.9123 209.913 8.65375 209.913 -4.00079C209.913 -16.6553 199.655 -26.9138 187 -26.9138C174.346 -26.9138 164.087 -16.6553 164.087 -4.00079C164.087 8.65375 174.346 18.9123 187 18.9123ZM187 19.9123C200.207 19.9123 210.913 9.20602 210.913 -4.00079C210.913 -17.2076 200.207 -27.9138 187 -27.9138C173.793 -27.9138 163.087 -17.2076 163.087 -4.00079C163.087 9.20602 173.793 19.9123 187 19.9123Z" fill="url(#paint0_linear_2625_25386)" fill-opacity="0.3"/>
<defs>
<linearGradient id="paint0_linear_2625_25386" x1="270" y1="-85" x2="164" y2="82.5" gradientUnits="userSpaceOnUse">
<stop stop-color="#1B0F00"/>
<stop offset="1" stop-color="#1B0F00" stop-opacity="0"/>
</linearGradient>
</defs>
</svg>
