<svg width="79" height="12" viewBox="0 0 79 12" fill="none" xmlns="http://www.w3.org/2000/svg">
<g id="Logo" clip-path="url(#clip0_4308_31662)">
<g id="Clip path group">
<mask id="mask0_4308_31662" style="mask-type:luminance" maskUnits="userSpaceOnUse" x="0" y="-2" width="79" height="16">
<g id="g3268a6d381c_0_0.0">
<path id="Vector" d="M0 -2H79V14H0V-2Z" fill="white"/>
</g>
</mask>
<g mask="url(#mask0_4308_31662)">
<g id="Group">
<path id="Vector_2" fill-rule="evenodd" clip-rule="evenodd" d="M22.7137 2.10739C23.3565 2.10739 23.8157 2.23912 24.0914 2.50257C24.3686 2.76602 24.5071 3.18841 24.5071 3.76972C24.5071 4.37681 24.3729 4.84787 24.1045 5.18291C23.8375 5.51652 23.4319 5.68333 22.8878 5.68333H22.2588C21.9555 5.68333 21.7552 5.67903 21.658 5.67044V2.15894C22.1935 2.12457 22.5453 2.10739 22.7137 2.10739ZM23.0619 6.59396C23.7308 6.59396 24.2191 6.73284 24.5267 7.01061C24.8343 7.28695 24.9882 7.74584 24.9882 8.38729C24.9882 9.05595 24.8184 9.56638 24.4788 9.91861C24.1408 10.2708 23.593 10.4469 22.8355 10.4469C22.2551 10.4469 21.8626 10.4069 21.658 10.3267V6.61973C21.8452 6.60255 22.3132 6.59396 23.0619 6.59396ZM22.8203 1.302C22.607 1.302 22.4198 1.3063 22.2588 1.31489C22.0991 1.32348 21.9613 1.33207 21.8452 1.34066C21.3635 1.37646 20.971 1.39435 20.6677 1.39435H18.6761V2.21263L19.7187 2.38445V10.2751L18.6631 10.4061V11.1986H20.6808C20.9042 11.1986 21.1226 11.2051 21.3359 11.218C21.5507 11.2309 21.7023 11.2373 21.7908 11.2373C22.1303 11.2645 22.5004 11.2781 22.9008 11.2781C24.4259 11.2781 25.5134 11.0011 26.1635 10.4469C26.815 9.89284 27.1408 9.15832 27.1408 8.24339C27.1408 7.52177 26.889 6.95907 26.3855 6.5553C25.8925 6.15851 25.2171 5.96011 24.3595 5.96011C24.3413 5.96011 24.3231 5.9602 24.3047 5.96038C24.9475 5.86302 25.467 5.5967 25.8631 5.16143C26.2607 4.72616 26.4595 4.18279 26.4595 3.53132C26.4595 2.79251 26.1896 2.23626 25.6498 1.86255C25.11 1.48885 24.1669 1.302 22.8203 1.302Z" fill="#4D4D4D"/>
<path id="Vector_3" fill-rule="evenodd" clip-rule="evenodd" d="M29.8953 0.509521C29.5384 0.509521 29.2525 0.61977 29.0377 0.840269C28.8244 1.06077 28.7178 1.33782 28.7178 1.67143C28.7178 1.96209 28.8114 2.19977 28.9986 2.38447C29.1858 2.56917 29.4404 2.66152 29.7625 2.66152H29.7756C30.1587 2.66152 30.4569 2.55629 30.6702 2.34581C30.8849 2.1339 30.9923 1.85184 30.9923 1.49961C30.9923 1.21898 30.8987 0.984165 30.7115 0.795167C30.5243 0.604737 30.2523 0.509521 29.8953 0.509521ZM30.5505 3.69028L28.104 3.98022V4.86507L29.053 5.11636V10.288L28.1171 10.4062V11.1987H31.8477V10.4062L30.9509 10.3009V3.95444L30.5766 3.69028L30.5505 3.69028Z" fill="#4D4D4D"/>
<path id="Vector_4" fill-rule="evenodd" clip-rule="evenodd" d="M34.1872 1.92261C33.9739 2.65283 33.8274 3.11029 33.7476 3.29499C33.6402 3.57563 33.5103 3.77322 33.358 3.88776C33.2608 3.93215 33.1186 3.98727 32.9314 4.05313C32.7442 4.119 32.615 4.16553 32.5439 4.19274V4.87785H33.4124V9.72094C33.4124 10.275 33.5459 10.6795 33.8129 10.9344C34.0813 11.1893 34.4963 11.3167 35.0579 11.3167C35.512 11.3167 35.98 11.2422 36.4617 11.0933C36.9435 10.943 37.3092 10.7755 37.5587 10.5908L37.3041 9.85195C37.143 9.9221 36.942 9.98152 36.7012 10.0302C36.4603 10.0789 36.2289 10.1032 36.0068 10.1032C35.7834 10.1032 35.6267 10.0746 35.5367 10.0173C35.4482 9.96005 35.3909 9.83047 35.3648 9.62858C35.3386 9.4267 35.3256 9.07877 35.3256 8.5848V4.87785H37.3563V3.86199H35.3103L35.2581 1.92261L34.1872 1.92261Z" fill="#4D4D4D"/>
<path id="Vector_5" fill-rule="evenodd" clip-rule="evenodd" d="M41.8918 3.67749C41.1242 3.67749 40.4531 3.84286 39.8785 4.17361C39.3039 4.50293 38.8628 4.96254 38.5552 5.55244C38.2476 6.14091 38.0938 6.81314 38.0938 7.56914C38.0938 8.69597 38.3811 9.60731 38.9557 10.3032C39.5303 10.9976 40.3886 11.3448 41.5305 11.3448C42.0834 11.3448 42.5978 11.2396 43.0737 11.0291C43.5511 10.8172 43.9059 10.5881 44.138 10.3418L43.829 9.65456C43.2587 10.0154 42.6348 10.1958 41.9571 10.1958C41.3956 10.1958 40.945 9.93878 40.6055 9.42476C40.2674 8.90931 40.0984 8.16763 40.0984 7.19973C40.1071 6.28481 40.2514 5.61186 40.5315 5.18089C40.813 4.74991 41.2033 4.53443 41.7025 4.53443C42.1755 4.53443 42.4389 4.64897 42.4926 4.87806L42.8278 6.32991H43.99L44.0706 4.07267L43.6831 3.96743C43.3625 3.88009 43.0723 3.80993 42.8125 3.75696C42.5542 3.70398 42.2473 3.67749 41.8918 3.67749Z" fill="#4D4D4D"/>
<path id="Vector_6" fill-rule="evenodd" clip-rule="evenodd" d="M50.1425 3.67749C49.7318 3.67749 49.3502 3.77628 48.9976 3.97387C48.6465 4.17146 48.3548 4.40055 48.1226 4.66114C47.8905 4.9203 47.7432 5.13793 47.6808 5.31404H47.6416L47.6808 4.24449V3.95454L47.3478 3.69038H47.3064L45.2344 3.96743V4.87806L46.0897 5.11645V10.3139L45.2061 10.4213V11.1988H49.5265V10.4213L47.9746 10.301V5.97339C48.4564 5.62976 49.023 5.45794 49.6745 5.45794C50.0576 5.45794 50.3826 5.55029 50.6496 5.73499V3.75696C50.5074 3.70398 50.3384 3.67749 50.1425 3.67749Z" fill="#4D4D4D"/>
<path id="Vector_7" fill-rule="evenodd" clip-rule="evenodd" d="M54.7541 4.52154C55.5478 4.52154 55.9446 5.10643 55.9446 6.27622C55.9446 6.40794 55.9359 6.59694 55.9185 6.84321H53.3371C53.3647 5.98127 53.4982 5.37919 53.7376 5.03699C53.9785 4.69336 54.3173 4.52154 54.7541 4.52154ZM54.9826 3.67749C54.2687 3.67749 53.6397 3.83141 53.0955 4.13925C52.5528 4.44709 52.132 4.89166 51.8331 5.47297C51.5342 6.05286 51.3848 6.73869 51.3848 7.53048C51.3848 8.70885 51.6721 9.63953 52.2467 10.3225C52.8227 11.004 53.6992 11.3448 54.876 11.3448C55.4288 11.3448 55.9744 11.2374 56.5127 11.0227C57.0525 10.8065 57.4428 10.5702 57.6837 10.3139L57.3485 9.58798C57.1352 9.74691 56.8436 9.88365 56.4736 9.9982C56.1035 10.1127 55.7444 10.17 55.3962 10.17C54.7548 10.17 54.26 9.94808 53.9117 9.50422C53.5649 9.05893 53.3734 8.4361 53.3371 7.63572H57.6837C57.7548 7.35508 57.7904 6.92411 57.7904 6.3428C57.773 5.48944 57.5234 4.83224 57.0416 4.3712C56.5599 3.90873 55.8735 3.67749 54.9826 3.67749Z" fill="#4D4D4D"/>
<path id="Vector_8" fill-rule="evenodd" clip-rule="evenodd" d="M62.6314 4.52135C62.8636 4.52135 63.0798 4.55213 63.28 4.6137C63.4803 4.67527 63.6116 4.75044 63.674 4.83921V9.64149C63.5405 9.80901 63.3598 9.95219 63.132 10.071C62.9057 10.1899 62.6452 10.2493 62.3507 10.2493C61.8689 10.2493 61.4808 10.0317 61.1862 9.59638C60.8931 9.15968 60.7465 8.49318 60.7465 7.59687C60.7465 6.52301 60.9178 5.74196 61.2602 5.25372C61.6041 4.76547 62.0612 4.52135 62.6314 4.52135ZM65.1192 0.378418L62.3637 0.642587V1.36851L63.674 1.55321V3.78254C63.3707 3.71238 63.0501 3.6773 62.712 3.6773C61.8733 3.6773 61.155 3.85771 60.5572 4.21852C59.9608 4.57934 59.5088 5.06543 59.2012 5.67681C58.8936 6.2882 58.7397 6.96329 58.7397 7.7021C58.7397 8.51966 58.8689 9.2012 59.1272 9.74672C59.3869 10.2922 59.7352 10.6953 60.1719 10.9559C60.6087 11.215 61.1035 11.3446 61.6563 11.3446C62.1018 11.3446 62.5248 11.2458 62.9253 11.0482C63.3272 10.8492 63.6435 10.5958 63.8742 10.2879V10.6574C63.8742 10.9308 63.9345 11.1134 64.0549 11.205C64.1753 11.2981 64.3785 11.3446 64.6643 11.3446C65.0837 11.3446 65.614 11.278 66.2554 11.1449V10.3932H65.5328V0.655473L65.1584 0.378418L65.1192 0.378418Z" fill="#4D4D4D"/>
<path id="Vector_9" fill-rule="evenodd" clip-rule="evenodd" d="M68.9568 0.509521C68.5999 0.509521 68.314 0.61977 68.0993 0.840269C67.886 1.06077 67.7793 1.33782 67.7793 1.67143C67.7793 1.96209 67.8729 2.19977 68.0601 2.38447C68.2473 2.56917 68.5019 2.66152 68.8241 2.66152H68.8371C69.2202 2.66152 69.5184 2.55629 69.7317 2.34581C69.9464 2.1339 70.0538 1.85184 70.0538 1.49961C70.0538 1.21898 69.9602 0.984165 69.773 0.795167C69.5859 0.604737 69.3138 0.509521 68.9568 0.509521ZM69.612 3.69028L67.1655 3.98022V4.86507L68.1145 5.11636V10.288L67.1786 10.4062V11.1987H70.9092V10.4062L70.0125 10.3009V3.95444L69.6381 3.69028L69.612 3.69028Z" fill="#4D4D4D"/>
<path id="Vector_10" fill-rule="evenodd" clip-rule="evenodd" d="M73.2493 1.92261C73.036 2.65283 72.8894 3.11029 72.8096 3.29499C72.7022 3.57563 72.5723 3.77322 72.42 3.88776C72.3228 3.93215 72.1806 3.98727 71.9934 4.05313C71.8062 4.119 71.6771 4.16553 71.606 4.19274V4.87785H72.4744V9.72094C72.4744 10.275 72.6079 10.6795 72.8749 10.9344C73.1433 11.1893 73.5583 11.3167 74.1199 11.3167C74.5741 11.3167 75.042 11.2422 75.5238 11.0933C76.0055 10.943 76.3712 10.7755 76.6207 10.5908L76.3661 9.85195C76.205 9.9221 76.0041 9.98152 75.7632 10.0302C75.5223 10.0789 75.2909 10.1032 75.0689 10.1032C74.8454 10.1032 74.6887 10.0746 74.5987 10.0173C74.5102 9.96005 74.4529 9.83047 74.4268 9.62858C74.4007 9.4267 74.3876 9.07877 74.3876 8.5848V4.87785H76.4183V3.86199H74.3724L74.3201 1.92261L73.2493 1.92261Z" fill="#4D4D4D"/>
<path id="Vector_11" fill-rule="evenodd" clip-rule="evenodd" d="M0.824219 1.51953H15.1416V11.3442H0.824219V1.51953Z" fill="#F7931A"/>
<path id="Vector_12" fill-rule="evenodd" clip-rule="evenodd" d="M8.12732 4.04693C8.50731 4.04693 8.78176 4.1213 8.95064 4.27002C9.11953 4.41875 9.20397 4.65479 9.20397 4.97815C9.20397 5.32741 9.12542 5.59854 8.96832 5.79155C8.81219 5.98373 8.56819 6.07982 8.23631 6.07982C7.85631 6.07982 7.61182 6.07439 7.50283 6.06353V4.08453C7.58727 4.07451 7.68988 4.06573 7.81065 4.05821C7.93143 4.05069 8.03698 4.04693 8.12732 4.04693ZM8.32615 6.65635C8.7307 6.65635 9.02625 6.73363 9.21281 6.88821C9.40035 7.04195 9.49413 7.29846 9.49413 7.65775C9.49413 8.03792 9.39299 8.32827 9.19072 8.52881C8.98845 8.7285 8.66442 8.82835 8.21863 8.82835C7.8622 8.82835 7.6236 8.80788 7.50283 8.76694V6.67264C7.72081 6.66178 7.99525 6.65635 8.32615 6.65635ZM8.19065 3.53809C8.04631 3.53809 7.91964 3.54059 7.81065 3.54561C7.70264 3.55062 7.61231 3.55563 7.53965 3.56065C7.20187 3.58153 6.93038 3.59198 6.72516 3.59198H5.29502V4.13091L5.974 4.23869V8.72056L5.27734 8.80454V9.31338H6.74283C6.99616 9.31338 7.23133 9.3209 7.44833 9.33594C7.5151 9.33594 7.62704 9.3397 7.78414 9.34722C7.94125 9.35558 8.10424 9.35976 8.27313 9.35976C9.33457 9.35976 10.0867 9.20059 10.5295 8.88224C10.9734 8.5639 11.1953 8.13025 11.1953 7.5813C11.1953 7.16018 11.022 6.83432 10.6754 6.60371C10.3287 6.37226 9.8535 6.25654 9.24963 6.25654C9.68363 6.20473 10.041 6.05308 10.3219 5.80158C10.6027 5.55008 10.7431 5.23174 10.7431 4.84655C10.7431 4.55912 10.669 4.32058 10.5207 4.13091C10.3734 3.94124 10.1127 3.79502 9.73862 3.69224C9.36452 3.58947 8.84853 3.53809 8.19065 3.53809Z" fill="white"/>
<path id="Vector_13" fill-rule="evenodd" clip-rule="evenodd" d="M6.81299 2.32764H7.55298V3.65298H6.81299V2.32764Z" fill="white"/>
<path id="Vector_14" fill-rule="evenodd" clip-rule="evenodd" d="M8.17334 2.32764H8.91333V3.65298H8.17334V2.32764Z" fill="white"/>
<path id="Vector_15" fill-rule="evenodd" clip-rule="evenodd" d="M6.81299 9.30322H7.55298V10.6286H6.81299V9.30322Z" fill="white"/>
<path id="Vector_16" fill-rule="evenodd" clip-rule="evenodd" d="M8.15967 9.30322H8.89966V10.6286H8.15967V9.30322Z" fill="white"/>
<path id="Vector_17" fill-rule="evenodd" clip-rule="evenodd" d="M1.41406 2.11426H1.99808V4.12724H1.41406V2.11426Z" fill="white"/>
<path id="Vector_18" fill-rule="evenodd" clip-rule="evenodd" d="M1.4082 2.70566V2.11426H3.39603V2.70566H1.4082Z" fill="white"/>
<path id="Vector_19" fill-rule="evenodd" clip-rule="evenodd" d="M1.43311 10.755V10.1636H3.42093V10.755H1.43311Z" fill="white"/>
<path id="Vector_20" fill-rule="evenodd" clip-rule="evenodd" d="M2.01712 10.7608H1.43311V8.7478H2.01712V10.7608Z" fill="white"/>
<path id="Vector_21" fill-rule="evenodd" clip-rule="evenodd" d="M14.5503 10.7474H13.9663V8.73438H14.5503V10.7474Z" fill="white"/>
<path id="Vector_22" fill-rule="evenodd" clip-rule="evenodd" d="M14.5562 10.156V10.7474H12.5684V10.156H14.5562Z" fill="white"/>
<path id="Vector_23" fill-rule="evenodd" clip-rule="evenodd" d="M14.5347 2.11841V2.70981H12.5469V2.11841H14.5347Z" fill="white"/>
<path id="Vector_24" fill-rule="evenodd" clip-rule="evenodd" d="M13.9507 2.11255H14.5347V4.12554H13.9507V2.11255Z" fill="white"/>
</g>
</g>
</g>
</g>
<defs>
<clipPath id="clip0_4308_31662">
<rect width="79" height="12" fill="white"/>
</clipPath>
</defs>
</svg>
