<svg width="216" height="216" viewBox="0 0 216 216" fill="none" xmlns="http://www.w3.org/2000/svg">
<path d="M192.842 44.8643C188.982 36.8263 183.742 30.9483 177.138 27.1771L173.703 25.4597C168.427 23.1758 162.496 22.202 155.91 22.4853C155.591 22.503 155.254 22.5207 154.918 22.5561C154.564 22.5738 154.192 22.5915 153.838 22.6269C144.897 23.3528 135.354 26.6637 125.191 32.524C115.047 38.402 105.486 46.1037 96.5626 55.6997C87.6216 65.2781 79.8492 75.7594 73.2452 87.1614C68.9252 94.5974 65.2249 102.264 62.0911 110.142C62.0734 110.178 62.0734 110.195 62.0557 110.231C60.3915 114.392 58.8688 118.676 57.5587 122.978C56.8328 125.333 56.16 127.688 55.5757 130.007C55.558 130.043 55.558 130.078 55.558 130.113C53.0085 140.081 51.7692 149.748 51.7692 159.185C51.7692 170.835 53.6813 180.661 57.5587 188.699C58.3377 190.31 59.1698 191.851 60.0551 193.303C60.2321 193.586 60.3915 193.851 60.5685 194.117C63.8793 199.234 67.916 203.217 72.6787 206.05L75.4761 207.449L77.3528 208.369H77.3705C83.0184 210.653 89.4098 211.503 96.5626 210.937C105.486 210.211 115.047 206.9 125.191 201.022C135.354 195.179 144.897 187.442 153.838 177.864C162.779 168.285 170.534 157.786 177.138 146.402C183.742 135 188.982 123.067 192.842 110.585C196.684 98.103 198.614 86.0458 198.614 74.3959C198.614 62.7461 196.684 52.8846 192.842 44.8643ZM162.531 79.3358L159.858 83.9568L114.923 161.469L83.7088 143.675L93.9954 125.953L114.923 137.886L156.405 66.3227L162.407 69.7574L163.912 70.6073L166.674 72.1828L162.531 79.3358Z" fill="#FFF2E2" stroke="#F7931A" stroke-linecap="round" stroke-linejoin="round"/>
<path d="M166.674 72.1826L162.531 79.3354L159.858 83.9564L114.923 161.468L83.7089 143.675L93.9954 125.952L114.923 137.886L156.405 66.3223L162.407 69.757L163.912 70.6069L166.674 72.1826Z" fill="#F7931A" stroke="#F7931A" stroke-linecap="round" stroke-linejoin="round"/>
<path d="M173.703 25.459C168.427 23.1751 162.496 22.2013 155.91 22.4846C155.591 22.5023 155.254 22.52 154.918 22.5554C154.564 22.5731 154.192 22.5908 153.838 22.6262C144.897 23.3521 135.354 26.6629 125.192 32.5233C115.047 38.4013 105.486 46.1029 96.5627 55.699C87.6217 65.2774 79.8492 75.7587 73.2453 87.1606C68.9253 94.5967 65.225 102.263 62.0912 110.142C62.0735 110.177 62.0735 110.195 62.0558 110.23C60.3915 114.391 58.8689 118.675 57.5587 122.978C56.8328 125.332 56.16 127.687 55.5758 130.007C55.5581 130.042 55.5581 130.077 55.5581 130.113C53.0086 140.081 51.7692 149.748 51.7692 159.184C51.7692 170.834 53.6814 180.661 57.5587 188.699C58.3378 190.31 59.1699 191.85 60.0551 193.302C60.2322 193.585 60.3915 193.851 60.5686 194.116C63.8794 199.233 67.9161 203.217 72.6787 206.049L37.2689 188.344C32.5063 185.512 28.4695 181.528 25.1587 176.411C24.0787 174.729 23.0695 172.906 22.1489 170.993C18.2715 162.955 16.3594 153.129 16.3594 141.479C16.3594 132.007 17.6164 122.305 20.1659 112.302C20.7502 109.982 21.423 107.628 22.1489 105.273C23.4767 100.935 24.9994 96.6328 26.6813 92.4367C29.8151 84.558 33.5155 76.8918 37.8355 69.4557C44.4394 58.0538 52.2119 47.5724 61.1528 37.9941C70.0761 28.398 79.6368 20.6964 89.7817 14.8183C99.9443 8.95795 109.487 5.64713 118.428 4.92123C119.119 4.86811 119.827 4.815 120.5 4.77959C127.121 4.49631 133.088 5.48778 138.382 7.78942L141.728 9.47139L173.703 25.459Z" fill="#FFF2E2" stroke="#F7931A" stroke-linecap="round" stroke-linejoin="round"/>
</svg>
