<svg width="21" height="20" viewBox="0 0 21 20" fill="none" xmlns="http://www.w3.org/2000/svg">
<g id="Bitcoin (BTC)">
<path id="Bitcoin (BTC)_2" d="M19.951 12.419C18.6154 17.7762 13.1895 21.0365 7.83164 19.7006C2.47605 18.365 -0.784232 12.9387 0.551927 7.58197C1.88691 2.22419 7.31288 -1.03634 12.6691 0.299234C18.0265 1.63481 21.2866 7.0617 19.9509 12.4191L19.951 12.419H19.951Z" fill="#F7931A"/>
<path id="Bitcoin (BTC)_3" fill-rule="evenodd" clip-rule="evenodd" d="M14.6608 8.57577C14.8599 7.24499 13.8467 6.52964 12.4613 6.05243L12.9107 4.24977L11.8134 3.97634L11.3759 5.73154C11.0874 5.65959 10.7911 5.5918 10.4967 5.52459L10.9374 3.7578L9.84072 3.48438L9.39103 5.28645C9.1523 5.2321 8.91783 5.17838 8.69035 5.12178L8.69162 5.11611L7.17837 4.73822L6.88646 5.91024C6.88646 5.91024 7.70059 6.09686 7.68344 6.10835C8.1278 6.21926 8.20815 6.51341 8.19481 6.74657L7.68285 8.80022C7.71345 8.80799 7.75314 8.81923 7.79693 8.83683L7.76511 8.82889L7.76507 8.82888C7.73799 8.8221 7.70984 8.81506 7.68094 8.80814L6.96335 11.685C6.90905 11.82 6.77121 12.0226 6.46053 11.9457C6.47153 11.9616 5.66297 11.7467 5.66297 11.7467L5.11816 13.0027L6.54617 13.3587C6.70255 13.3979 6.85708 13.4382 7.01005 13.4781L7.01015 13.4781C7.117 13.506 7.2231 13.5336 7.32853 13.5606L6.87444 15.3839L7.9705 15.6574L8.42019 13.8534C8.71962 13.9347 9.01021 14.0097 9.29469 14.0803L8.84651 15.8758L9.9439 16.1492L10.3979 14.3293C12.2691 14.6835 13.6761 14.5407 14.2683 12.8482C14.7455 11.4855 14.2446 10.6996 13.2601 10.187C13.9772 10.0217 14.5172 9.55007 14.6612 8.57591L14.6609 8.57567L14.6608 8.57577ZM12.1537 12.0914C11.8425 13.3416 9.88565 12.8248 8.99031 12.5883C8.90977 12.567 8.83781 12.548 8.77642 12.5328L9.379 10.1172C9.45382 10.1358 9.54525 10.1564 9.64883 10.1796C10.575 10.3875 12.4724 10.8133 12.1537 12.0914H12.1537ZM9.8346 9.05848C10.5811 9.2577 12.2094 9.69228 12.493 8.55602H12.4931C12.7827 7.3939 11.2002 7.04354 10.4273 6.87242C10.3403 6.85316 10.2636 6.83618 10.201 6.82057L9.65468 9.01138C9.70626 9.02424 9.76679 9.04039 9.8346 9.05848Z" fill="white"/>
</g>
</svg>
