<svg width="32" height="32" viewBox="0 0 32 32" fill="none" xmlns="http://www.w3.org/2000/svg">
<g clip-path="url(#clip0_3448_24824)">
<path d="M0 15.9995C0 17.9566 0.352063 19.8313 0.995188 21.5646L16 22.956L31.0048 21.5646C31.6479 19.8313 32 17.9566 32 15.9995C32 14.0423 31.6479 12.1676 31.0048 10.4343L16 9.04297L0.995188 10.4343C0.352063 12.1676 0 14.0423 0 15.9995Z" fill="#FFDA44"/>
<path d="M31.0072 10.4348C28.7465 4.34206 22.8818 0 16.0024 0C9.12293 0 3.25825 4.34206 0.997559 10.4348H31.0072Z" fill="#D80027"/>
<path d="M0.996094 21.5664C3.25678 27.6592 9.12147 32.0012 16.0009 32.0012C22.8803 32.0012 28.745 27.6592 31.0057 21.5664H0.996094Z" fill="#D80027"/>
</g>
<defs>
<clipPath id="clip0_3448_24824">
<rect width="32" height="32" fill="white"/>
</clipPath>
</defs>
</svg>

