<svg width="32" height="32" viewBox="0 0 32 32" fill="none" xmlns="http://www.w3.org/2000/svg">
<g clip-path="url(#clip0_3448_24831)">
<path d="M16 32C24.8366 32 32 24.8366 32 16C32 7.16344 24.8366 0 16 0C7.16344 0 0 7.16344 0 16C0 24.8366 7.16344 32 16 32Z" fill="#F0F0F0"/>
<path d="M3.30758 6.25781C2.05077 7.893 1.10308 9.77769 0.55127 11.8251H8.87489L3.30758 6.25781Z" fill="#0052B4"/>
<path d="M31.4495 11.8251C30.8977 9.77769 29.9499 7.893 28.6932 6.25781L23.126 11.8251H31.4495Z" fill="#0052B4"/>
<path d="M0.55127 20.1758C1.10314 22.2232 2.05083 24.1078 3.30758 25.743L8.87471 20.1758H0.55127Z" fill="#0052B4"/>
<path d="M25.7406 3.30716C24.1054 2.05034 22.2208 1.10266 20.1733 0.550781V8.87435L25.7406 3.30716Z" fill="#0052B4"/>
<path d="M6.25879 28.6921C7.89398 29.9489 9.77867 30.8966 11.826 31.4485V23.125L6.25879 28.6921Z" fill="#0052B4"/>
<path d="M11.826 0.550781C9.7786 1.10266 7.89391 2.05034 6.25879 3.30709L11.826 8.87428V0.550781Z" fill="#0052B4"/>
<path d="M20.1733 31.4485C22.2207 30.8966 24.1054 29.9489 25.7405 28.6922L20.1733 23.125V31.4485Z" fill="#0052B4"/>
<path d="M23.126 20.1758L28.6932 25.743C29.9499 24.1079 30.8977 22.2232 31.4495 20.1758H23.126Z" fill="#0052B4"/>
<path d="M31.8646 13.9131H18.0871H18.087V0.135438C17.4038 0.0465 16.7073 0 16 0C15.2926 0 14.5962 0.0465 13.9131 0.135438V13.9129V13.913H0.135438C0.0465 14.5962 0 15.2927 0 16C0 16.7074 0.0465 17.4038 0.135438 18.0869H13.9129H13.913V31.8646C14.5962 31.9535 15.2926 32 16 32C16.7073 32 17.4038 31.9536 18.0869 31.8646V18.0871V18.087H31.8646C31.9535 17.4038 32 16.7074 32 16C32 15.2927 31.9535 14.5962 31.8646 13.9131Z" fill="#D80027"/>
<path d="M20.1738 20.1758L27.3136 27.3156C27.642 26.9873 27.9552 26.6442 28.2541 26.2884L22.1415 20.1758H20.1738V20.1758Z" fill="#D80027"/>
<path d="M11.8258 20.1758H11.8257L4.68604 27.3155C5.01429 27.6438 5.35747 27.9571 5.71322 28.256L11.8258 22.1432V20.1758Z" fill="#D80027"/>
<path d="M11.8259 11.8274V11.8273L4.68611 4.6875C4.35773 5.01575 4.04448 5.35894 3.74561 5.71469L9.85829 11.8274H11.8259V11.8274Z" fill="#D80027"/>
<path d="M20.1738 11.8264L27.3136 4.68653C26.9854 4.35816 26.6422 4.04491 26.2865 3.74609L20.1738 9.85878V11.8264Z" fill="#D80027"/>
</g>
<defs>
<clipPath id="clip0_3448_24831">
<rect width="32" height="32" fill="white"/>
</clipPath>
</defs>
</svg>

