<svg width="335" height="239" viewBox="0 0 335 239" fill="none" xmlns="http://www.w3.org/2000/svg">
<g filter="url(#filter0_bi_2625_25813)">
<g clip-path="url(#clip0_2625_25813)">
<rect width="335" height="239" rx="16" fill="url(#paint0_linear_2625_25813)"/>
<g filter="url(#filter1_bi_2625_25813)">
<path d="M-147 -4.76837e-06C-147 -8.83656 -139.837 -16 -131 -16H179C187.837 -16 195 -8.83656 195 0V297C195 305.837 187.837 313 179 313H-131C-139.837 313 -147 305.837 -147 297V-4.76837e-06Z" fill="url(#paint1_linear_2625_25813)" fill-opacity="0.8"/>
<path d="M-146.5 -4.76837e-06C-146.5 -8.56042 -139.56 -15.5 -131 -15.5H179C187.56 -15.5 194.5 -8.56041 194.5 0V297C194.5 305.56 187.56 312.5 179 312.5H-131C-139.56 312.5 -146.5 305.56 -146.5 297V-4.76837e-06Z" stroke="url(#paint2_linear_2625_25813)" stroke-opacity="0.5"/>
</g>
<g filter="url(#filter2_bi_2625_25813)">
<path d="M455 37C455 28.1634 447.837 21 439 21H239C230.163 21 223 28.1634 223 37V277C223 285.837 230.163 293 239 293H439C447.837 293 455 285.837 455 277V37Z" fill="url(#paint3_linear_2625_25813)" fill-opacity="0.8"/>
<path d="M454.5 37C454.5 28.4396 447.56 21.5 439 21.5H239C230.44 21.5 223.5 28.4396 223.5 37V277C223.5 285.56 230.44 292.5 239 292.5H439C447.56 292.5 454.5 285.56 454.5 277V37Z" stroke="url(#paint4_linear_2625_25813)" stroke-opacity="0.5"/>
</g>
<g filter="url(#filter3_bi_2625_25813)">
<path d="M-122 77C-122 68.1634 -114.837 61 -106 61H49C57.8366 61 65 68.1634 65 77V284C65 292.837 57.8366 300 49 300H-106C-114.837 300 -122 292.837 -122 284V77Z" fill="url(#paint5_linear_2625_25813)" fill-opacity="0.8"/>
<path d="M-121.5 77C-121.5 68.4396 -114.56 61.5 -106 61.5H49C57.5604 61.5 64.5 68.4396 64.5 77V284C64.5 292.56 57.5604 299.5 49 299.5H-106C-114.56 299.5 -121.5 292.56 -121.5 284V77Z" stroke="url(#paint6_linear_2625_25813)" stroke-opacity="0.5"/>
</g>
<g filter="url(#filter4_bi_2625_25813)">
<path d="M-116 97C-116 88.1634 -108.837 81 -100 81H29C37.8365 81 45 88.1634 45 97V276C45 284.837 37.8365 292 29 292H-100C-108.837 292 -116 284.837 -116 276V97Z" fill="url(#paint7_linear_2625_25813)"/>
<path d="M-115.5 97C-115.5 88.4396 -108.56 81.5 -100 81.5H29C37.5604 81.5 44.5 88.4396 44.5 97V276C44.5 284.56 37.5604 291.5 29 291.5H-100C-108.56 291.5 -115.5 284.56 -115.5 276V97Z" stroke="url(#paint8_linear_2625_25813)" stroke-opacity="0.5"/>
</g>
<g filter="url(#filter5_bi_2625_25813)">
<path d="M424 77C424 68.1634 416.837 61 408 61H279C270.163 61 263 68.1634 263 77V256C263 264.837 270.163 272 279 272H408C416.837 272 424 264.837 424 256V77Z" fill="url(#paint9_linear_2625_25813)"/>
<path d="M423.5 77C423.5 68.4396 416.56 61.5 408 61.5H279C270.44 61.5 263.5 68.4396 263.5 77V256C263.5 264.56 270.44 271.5 279 271.5H408C416.56 271.5 423.5 264.56 423.5 256V77Z" stroke="url(#paint10_linear_2625_25813)" stroke-opacity="0.5"/>
</g>
<g filter="url(#filter6_bi_2625_25813)">
<circle cx="265.373" cy="181.373" r="42" transform="rotate(30 265.373 181.373)" fill="url(#paint11_linear_2625_25813)" fill-opacity="0.8"/>
</g>
<g filter="url(#filter7_bi_2625_25813)">
<circle cx="265.373" cy="181.374" r="33" transform="rotate(30 265.373 181.374)" fill="url(#paint12_linear_2625_25813)"/>
</g>
<path fill-rule="evenodd" clip-rule="evenodd" d="M273.74 173.344C276.841 175.573 278.834 178.081 277.37 181.278C276.288 183.6 274.608 184.384 272.657 184.246C274.757 186.286 275.41 188.609 273.231 191.669C270.511 195.511 266.902 194.833 262.483 192.578L260.07 196.773L257.541 195.317L259.954 191.123C259.68 190.959 259.389 190.797 259.091 190.63C258.692 190.407 258.279 190.177 257.877 189.927L255.464 194.122L252.94 192.669L255.353 188.474L250.358 185.456L252.552 182.639C252.552 182.639 254.436 183.783 254.413 183.741C255.118 184.143 255.618 183.759 255.861 183.458L259.727 176.733L262.507 171.963C262.717 171.42 262.727 170.628 261.705 170.014C261.791 169.995 259.853 168.948 259.853 168.948L261.468 166.137L266.65 169.119L269.014 165.011L271.624 166.514L269.261 170.622C269.773 170.899 270.267 171.19 270.767 171.484C270.931 171.58 271.096 171.677 271.262 171.774L273.625 167.666L276.166 169.128L273.74 173.344ZM264.433 178.268L264.558 178.348C266.054 179.302 270.492 182.132 272.112 179.342C273.636 176.686 269.711 174.534 267.888 173.534C267.672 173.416 267.486 173.314 267.342 173.229L264.433 178.268ZM259.897 186.621C259.818 186.571 259.746 186.525 259.68 186.484L262.589 181.445C262.749 181.539 262.952 181.653 263.187 181.785C265.33 182.986 270.118 185.671 268.552 188.332C266.979 191.111 261.742 187.791 259.897 186.621Z" fill="white"/>
</g>
</g>
<defs>
<filter id="filter0_bi_2625_25813" x="-20" y="-20" width="375" height="279" filterUnits="userSpaceOnUse" color-interpolation-filters="sRGB">
<feFlood flood-opacity="0" result="BackgroundImageFix"/>
<feGaussianBlur in="BackgroundImageFix" stdDeviation="10"/>
<feComposite in2="SourceAlpha" operator="in" result="effect1_backgroundBlur_2625_25813"/>
<feBlend mode="normal" in="SourceGraphic" in2="effect1_backgroundBlur_2625_25813" result="shape"/>
<feColorMatrix in="SourceAlpha" type="matrix" values="0 0 0 0 0 0 0 0 0 0 0 0 0 0 0 0 0 0 127 0" result="hardAlpha"/>
<feOffset dx="5" dy="5"/>
<feGaussianBlur stdDeviation="10"/>
<feComposite in2="hardAlpha" operator="arithmetic" k2="-1" k3="1"/>
<feColorMatrix type="matrix" values="0 0 0 0 1 0 0 0 0 1 0 0 0 0 1 0 0 0 0.2 0"/>
<feBlend mode="normal" in2="shape" result="effect2_innerShadow_2625_25813"/>
</filter>
<filter id="filter1_bi_2625_25813" x="-187" y="-56" width="422" height="409" filterUnits="userSpaceOnUse" color-interpolation-filters="sRGB">
<feFlood flood-opacity="0" result="BackgroundImageFix"/>
<feGaussianBlur in="BackgroundImageFix" stdDeviation="20"/>
<feComposite in2="SourceAlpha" operator="in" result="effect1_backgroundBlur_2625_25813"/>
<feBlend mode="normal" in="SourceGraphic" in2="effect1_backgroundBlur_2625_25813" result="shape"/>
<feColorMatrix in="SourceAlpha" type="matrix" values="0 0 0 0 0 0 0 0 0 0 0 0 0 0 0 0 0 0 127 0" result="hardAlpha"/>
<feOffset dx="5" dy="5"/>
<feGaussianBlur stdDeviation="10"/>
<feComposite in2="hardAlpha" operator="arithmetic" k2="-1" k3="1"/>
<feColorMatrix type="matrix" values="0 0 0 0 1 0 0 0 0 1 0 0 0 0 1 0 0 0 0.2 0"/>
<feBlend mode="normal" in2="shape" result="effect2_innerShadow_2625_25813"/>
</filter>
<filter id="filter2_bi_2625_25813" x="183" y="-19" width="312" height="352" filterUnits="userSpaceOnUse" color-interpolation-filters="sRGB">
<feFlood flood-opacity="0" result="BackgroundImageFix"/>
<feGaussianBlur in="BackgroundImageFix" stdDeviation="20"/>
<feComposite in2="SourceAlpha" operator="in" result="effect1_backgroundBlur_2625_25813"/>
<feBlend mode="normal" in="SourceGraphic" in2="effect1_backgroundBlur_2625_25813" result="shape"/>
<feColorMatrix in="SourceAlpha" type="matrix" values="0 0 0 0 0 0 0 0 0 0 0 0 0 0 0 0 0 0 127 0" result="hardAlpha"/>
<feOffset dx="5" dy="5"/>
<feGaussianBlur stdDeviation="10"/>
<feComposite in2="hardAlpha" operator="arithmetic" k2="-1" k3="1"/>
<feColorMatrix type="matrix" values="0 0 0 0 1 0 0 0 0 1 0 0 0 0 1 0 0 0 0.2 0"/>
<feBlend mode="normal" in2="shape" result="effect2_innerShadow_2625_25813"/>
</filter>
<filter id="filter3_bi_2625_25813" x="-162" y="21" width="267" height="319" filterUnits="userSpaceOnUse" color-interpolation-filters="sRGB">
<feFlood flood-opacity="0" result="BackgroundImageFix"/>
<feGaussianBlur in="BackgroundImageFix" stdDeviation="20"/>
<feComposite in2="SourceAlpha" operator="in" result="effect1_backgroundBlur_2625_25813"/>
<feBlend mode="normal" in="SourceGraphic" in2="effect1_backgroundBlur_2625_25813" result="shape"/>
<feColorMatrix in="SourceAlpha" type="matrix" values="0 0 0 0 0 0 0 0 0 0 0 0 0 0 0 0 0 0 127 0" result="hardAlpha"/>
<feOffset dx="5" dy="5"/>
<feGaussianBlur stdDeviation="10"/>
<feComposite in2="hardAlpha" operator="arithmetic" k2="-1" k3="1"/>
<feColorMatrix type="matrix" values="0 0 0 0 1 0 0 0 0 1 0 0 0 0 1 0 0 0 0.2 0"/>
<feBlend mode="normal" in2="shape" result="effect2_innerShadow_2625_25813"/>
</filter>
<filter id="filter4_bi_2625_25813" x="-256" y="-59" width="441" height="491" filterUnits="userSpaceOnUse" color-interpolation-filters="sRGB">
<feFlood flood-opacity="0" result="BackgroundImageFix"/>
<feGaussianBlur in="BackgroundImageFix" stdDeviation="70"/>
<feComposite in2="SourceAlpha" operator="in" result="effect1_backgroundBlur_2625_25813"/>
<feBlend mode="normal" in="SourceGraphic" in2="effect1_backgroundBlur_2625_25813" result="shape"/>
<feColorMatrix in="SourceAlpha" type="matrix" values="0 0 0 0 0 0 0 0 0 0 0 0 0 0 0 0 0 0 127 0" result="hardAlpha"/>
<feOffset dx="5" dy="5"/>
<feGaussianBlur stdDeviation="10"/>
<feComposite in2="hardAlpha" operator="arithmetic" k2="-1" k3="1"/>
<feColorMatrix type="matrix" values="0 0 0 0 1 0 0 0 0 1 0 0 0 0 1 0 0 0 0.2 0"/>
<feBlend mode="normal" in2="shape" result="effect2_innerShadow_2625_25813"/>
</filter>
<filter id="filter5_bi_2625_25813" x="123" y="-79" width="441" height="491" filterUnits="userSpaceOnUse" color-interpolation-filters="sRGB">
<feFlood flood-opacity="0" result="BackgroundImageFix"/>
<feGaussianBlur in="BackgroundImageFix" stdDeviation="70"/>
<feComposite in2="SourceAlpha" operator="in" result="effect1_backgroundBlur_2625_25813"/>
<feBlend mode="normal" in="SourceGraphic" in2="effect1_backgroundBlur_2625_25813" result="shape"/>
<feColorMatrix in="SourceAlpha" type="matrix" values="0 0 0 0 0 0 0 0 0 0 0 0 0 0 0 0 0 0 127 0" result="hardAlpha"/>
<feOffset dx="5" dy="5"/>
<feGaussianBlur stdDeviation="10"/>
<feComposite in2="hardAlpha" operator="arithmetic" k2="-1" k3="1"/>
<feColorMatrix type="matrix" values="0 0 0 0 1 0 0 0 0 1 0 0 0 0 1 0 0 0 0.2 0"/>
<feBlend mode="normal" in2="shape" result="effect2_innerShadow_2625_25813"/>
</filter>
<filter id="filter6_bi_2625_25813" x="203.366" y="119.366" width="124.014" height="124.014" filterUnits="userSpaceOnUse" color-interpolation-filters="sRGB">
<feFlood flood-opacity="0" result="BackgroundImageFix"/>
<feGaussianBlur in="BackgroundImageFix" stdDeviation="10"/>
<feComposite in2="SourceAlpha" operator="in" result="effect1_backgroundBlur_2625_25813"/>
<feBlend mode="normal" in="SourceGraphic" in2="effect1_backgroundBlur_2625_25813" result="shape"/>
<feColorMatrix in="SourceAlpha" type="matrix" values="0 0 0 0 0 0 0 0 0 0 0 0 0 0 0 0 0 0 127 0" result="hardAlpha"/>
<feOffset dx="5" dy="5"/>
<feGaussianBlur stdDeviation="10"/>
<feComposite in2="hardAlpha" operator="arithmetic" k2="-1" k3="1"/>
<feColorMatrix type="matrix" values="0 0 0 0 1 0 0 0 0 1 0 0 0 0 1 0 0 0 0.2 0"/>
<feBlend mode="normal" in2="shape" result="effect2_innerShadow_2625_25813"/>
</filter>
<filter id="filter7_bi_2625_25813" x="212.367" y="128.368" width="106.011" height="106.011" filterUnits="userSpaceOnUse" color-interpolation-filters="sRGB">
<feFlood flood-opacity="0" result="BackgroundImageFix"/>
<feGaussianBlur in="BackgroundImageFix" stdDeviation="10"/>
<feComposite in2="SourceAlpha" operator="in" result="effect1_backgroundBlur_2625_25813"/>
<feBlend mode="normal" in="SourceGraphic" in2="effect1_backgroundBlur_2625_25813" result="shape"/>
<feColorMatrix in="SourceAlpha" type="matrix" values="0 0 0 0 0 0 0 0 0 0 0 0 0 0 0 0 0 0 127 0" result="hardAlpha"/>
<feOffset dx="5" dy="5"/>
<feGaussianBlur stdDeviation="10"/>
<feComposite in2="hardAlpha" operator="arithmetic" k2="-1" k3="1"/>
<feColorMatrix type="matrix" values="0 0 0 0 1 0 0 0 0 1 0 0 0 0 1 0 0 0 0.2 0"/>
<feBlend mode="normal" in2="shape" result="effect2_innerShadow_2625_25813"/>
</filter>
<linearGradient id="paint0_linear_2625_25813" x1="-207" y1="-144.5" x2="415.569" y2="232.404" gradientUnits="userSpaceOnUse">
<stop offset="0.025" stop-color="#F7931A"/>
<stop offset="0.218071" stop-color="white" stop-opacity="0.4"/>
<stop offset="0.638361" stop-color="#F7931A" stop-opacity="0.4"/>
<stop offset="0.878306" stop-color="#F7931A"/>
</linearGradient>
<linearGradient id="paint1_linear_2625_25813" x1="-312.689" y1="-251.123" x2="367.921" y2="72.9583" gradientUnits="userSpaceOnUse">
<stop stop-color="#F7931A"/>
<stop offset="0.43" stop-color="#F7931A" stop-opacity="0.4"/>
<stop offset="1" stop-color="white" stop-opacity="0"/>
</linearGradient>
<linearGradient id="paint2_linear_2625_25813" x1="-147" y1="-2.10749" x2="256.517" y2="155.936" gradientUnits="userSpaceOnUse">
<stop stop-color="white"/>
<stop offset="1" stop-color="white" stop-opacity="0.23"/>
</linearGradient>
<linearGradient id="paint3_linear_2625_25813" x1="567.398" y1="-173.387" x2="76.022" y2="18.5933" gradientUnits="userSpaceOnUse">
<stop stop-color="#F7931A"/>
<stop offset="0.43" stop-color="#F7931A" stop-opacity="0.4"/>
<stop offset="1" stop-color="white" stop-opacity="0"/>
</linearGradient>
<linearGradient id="paint4_linear_2625_25813" x1="455" y1="32.4856" x2="168.833" y2="124.451" gradientUnits="userSpaceOnUse">
<stop stop-color="white"/>
<stop offset="1" stop-color="white" stop-opacity="0.23"/>
</linearGradient>
<linearGradient id="paint5_linear_2625_25813" x1="-212.596" y1="-109.804" x2="191.962" y2="35.1902" gradientUnits="userSpaceOnUse">
<stop stop-color="#F7931A"/>
<stop offset="0.43" stop-color="#F7931A" stop-opacity="0.4"/>
<stop offset="1" stop-color="white" stop-opacity="0"/>
</linearGradient>
<linearGradient id="paint6_linear_2625_25813" x1="-122" y1="71.0921" x2="112.134" y2="140.115" gradientUnits="userSpaceOnUse">
<stop stop-color="white"/>
<stop offset="1" stop-color="white" stop-opacity="0.23"/>
</linearGradient>
<linearGradient id="paint7_linear_2625_25813" x1="-128.5" y1="187" x2="-58.9311" y2="37.6844" gradientUnits="userSpaceOnUse">
<stop stop-color="white" stop-opacity="0"/>
<stop offset="1" stop-color="#F7931A"/>
</linearGradient>
<linearGradient id="paint8_linear_2625_25813" x1="-116" y1="89.9098" x2="86.373" y2="148.091" gradientUnits="userSpaceOnUse">
<stop stop-color="white"/>
<stop offset="1" stop-color="white" stop-opacity="0.23"/>
</linearGradient>
<linearGradient id="paint9_linear_2625_25813" x1="436.5" y1="167" x2="366.931" y2="17.6844" gradientUnits="userSpaceOnUse">
<stop stop-color="white" stop-opacity="0"/>
<stop offset="1" stop-color="#F7931A"/>
</linearGradient>
<linearGradient id="paint10_linear_2625_25813" x1="424" y1="69.9098" x2="221.627" y2="128.091" gradientUnits="userSpaceOnUse">
<stop stop-color="white"/>
<stop offset="1" stop-color="white" stop-opacity="0.23"/>
</linearGradient>
<linearGradient id="paint11_linear_2625_25813" x1="245.673" y1="230.998" x2="223.284" y2="129.294" gradientUnits="userSpaceOnUse">
<stop offset="0.025" stop-color="#1E1000"/>
<stop offset="0.470035" stop-color="white" stop-opacity="0.2"/>
<stop offset="0.878306" stop-color="#F7931A"/>
</linearGradient>
<linearGradient id="paint12_linear_2625_25813" x1="250.373" y1="214.374" x2="244.213" y2="134.668" gradientUnits="userSpaceOnUse">
<stop offset="0.025" stop-color="#542E00"/>
<stop offset="0.470035" stop-color="white" stop-opacity="0.4"/>
<stop offset="0.878306" stop-color="#F7931A"/>
</linearGradient>
<clipPath id="clip0_2625_25813">
<rect width="335" height="239" rx="16" fill="white"/>
</clipPath>
</defs>
</svg>
