<svg width="284" height="138" viewBox="0 0 284 138" fill="none" xmlns="http://www.w3.org/2000/svg">
<rect x="211" y="28" width="1" height="110" fill="#D8D8D8"/>
<rect x="220" y="28" width="1" height="110" fill="#D8D8D8"/>
<rect x="229" y="28" width="1" height="110" fill="#D8D8D8"/>
<rect x="238" y="28" width="1" height="110" fill="#D8D8D8"/>
<rect x="247" y="28" width="1" height="110" fill="#D8D8D8"/>
<rect x="256" y="28" width="1" height="110" fill="#D8D8D8"/>
<rect x="265" y="28" width="1" height="110" fill="#D8D8D8"/>
<rect x="274" y="28" width="1" height="110" fill="#D8D8D8"/>
<rect x="283" y="28" width="1" height="110" fill="#D8D8D8"/>
<path fill-rule="evenodd" clip-rule="evenodd" d="M103 137H102V97H103V137ZM112 137H111V97H112V137ZM120 137H121V97H120V137ZM130 137H129V97H130V137ZM138 137H139V97H138V137ZM148 137H147V97H148V137ZM156 137H157V97H156V137ZM166 137H165V97H166V137ZM174 137H175V97H174V137ZM184 137H183V97H184V137ZM192 137H193V97H192V137ZM202 137H201V97H202V137Z" fill="#D8D8D8"/>
<path fill-rule="evenodd" clip-rule="evenodd" d="M120 137H121V99H120V137ZM112 137H111V104H112V137ZM103 137H102V113H103V137ZM130 137H129V125H130V137ZM138 137H139V106H138V137ZM148 137H147V132H148V137ZM156 137H157V104H156V137ZM166 137H165V113H166V137ZM174 137H175V106H174V137ZM184 137H183V124H184V137ZM192 137H193V103H192V137ZM202 137H201V102H202V137Z" fill="url(#paint0_linear_2625_25510)"/>
<rect y="19" width="284" height="1" fill="#D8D8D8"/>
<rect y="88" width="202" height="1" fill="#D8D8D8"/>
<path d="M1.104 3.48H2.544L6.72 10.776V3.48H7.752V12H6.252L2.136 4.824V12H1.104V3.48ZM12.105 12.144C10.341 12.144 9.189 10.848 9.189 8.82C9.189 6.792 10.341 5.496 12.105 5.496C13.857 5.496 15.009 6.792 15.009 8.82C15.009 10.848 13.857 12.144 12.105 12.144ZM10.245 8.82C10.245 10.296 10.929 11.184 12.105 11.184C13.269 11.184 13.953 10.296 13.953 8.82C13.953 7.344 13.269 6.456 12.105 6.456C10.929 6.456 10.245 7.344 10.245 8.82ZM19.5342 3.48H20.5422V6.48C20.8902 5.88 21.6462 5.496 22.4982 5.496C24.1542 5.496 25.1862 6.78 25.1862 8.82C25.1862 10.86 24.1542 12.144 22.4982 12.144C21.6102 12.144 20.8422 11.736 20.4822 11.088L20.4462 12H19.5342V3.48ZM20.4462 8.82C20.4462 10.272 21.1662 11.184 22.2942 11.184C23.4102 11.184 24.1302 10.272 24.1302 8.82C24.1302 7.344 23.4102 6.408 22.2942 6.408C21.1662 6.408 20.4462 7.344 20.4462 8.82ZM26.4767 7.512C26.7287 6.276 27.7247 5.496 29.0807 5.496C30.7127 5.496 31.6367 6.456 31.6367 8.16V10.716C31.6367 10.98 31.7567 11.112 32.0207 11.112H32.2847V12H31.8527C31.2047 12 30.6407 11.796 30.6407 11.016C30.3647 11.604 29.6687 12.144 28.6607 12.144C27.3887 12.144 26.3687 11.472 26.3687 10.332C26.3687 9.024 27.3527 8.688 28.7687 8.424L30.6287 8.052C30.6167 6.984 30.1007 6.456 29.0807 6.456C28.2767 6.456 27.7367 6.864 27.5447 7.596L26.4767 7.512ZM27.4247 10.332C27.4247 10.836 27.8567 11.256 28.7927 11.256C29.8247 11.244 30.6527 10.524 30.6527 9.036V8.952L29.1527 9.216C28.2047 9.384 27.4247 9.444 27.4247 10.332ZM33.5733 5.64H34.4973L34.5213 6.744C34.8453 5.88 35.6013 5.496 36.4773 5.496C37.9293 5.496 38.6253 6.564 38.6253 7.908V12H37.6173V8.196C37.6173 7.02 37.2213 6.384 36.2613 6.384C35.2533 6.384 34.5813 7.02 34.5813 8.196V12H33.5733V5.64ZM40.3116 3.48H41.3196V9.06L44.3676 5.64H45.7476L43.2516 8.34L45.8676 12H44.6316L42.5556 9.036L41.3196 10.368V12H40.3116V3.48ZM50.452 7.608C50.308 6.888 49.6 6.456 48.892 6.456C48.184 6.456 47.608 6.816 47.608 7.428C47.608 8.052 48.436 8.304 49.132 8.448C50.572 8.724 51.628 9.12 51.628 10.38C51.628 11.616 50.356 12.144 49.144 12.144C47.644 12.144 46.492 11.316 46.396 9.996L47.452 9.924C47.584 10.692 48.196 11.184 49.144 11.184C49.768 11.184 50.572 10.98 50.572 10.32C50.572 9.564 49.672 9.48 48.952 9.312C47.788 9.048 46.552 8.712 46.552 7.476C46.552 6.264 47.536 5.496 49 5.496C50.26 5.496 51.304 6.3 51.508 7.536L50.452 7.608ZM56.1553 5.64H57.1633V12H56.1553V5.64ZM56.1313 4.644V3.492H57.1873V4.644H56.1313ZM58.9092 5.64H59.8332L59.8572 6.744C60.1812 5.88 60.9372 5.496 61.8132 5.496C63.2652 5.496 63.9612 6.564 63.9612 7.908V12H62.9532V8.196C62.9532 7.02 62.5572 6.384 61.5972 6.384C60.5892 6.384 59.9172 7.02 59.9172 8.196V12H58.9092V5.64ZM70.8555 5.64L68.5395 12H67.2675L64.9515 5.64H66.0315L67.9035 10.944L69.7755 5.64H70.8555ZM74.2964 12.144C72.5324 12.144 71.3804 10.848 71.3804 8.82C71.3804 6.792 72.5324 5.496 74.2964 5.496C76.0484 5.496 77.2004 6.792 77.2004 8.82C77.2004 10.848 76.0484 12.144 74.2964 12.144ZM72.4364 8.82C72.4364 10.296 73.1204 11.184 74.2964 11.184C75.4604 11.184 76.1444 10.296 76.1444 8.82C76.1444 7.344 75.4604 6.456 74.2964 6.456C73.1204 6.456 72.4364 7.344 72.4364 8.82ZM78.7256 3.48H79.7336V10.716C79.7336 10.98 79.8656 11.112 80.1296 11.112H80.6816V12H79.9736C79.2296 12 78.7256 11.496 78.7256 10.764V3.48ZM87.0274 5.64L84.7114 12H83.4394L81.1234 5.64H82.2034L84.0754 10.944L85.9474 5.64H87.0274ZM87.5523 8.82C87.5523 6.804 88.6923 5.496 90.4683 5.496C91.8723 5.496 93.1203 6.42 93.2163 8.676L93.2283 9.132H88.6203C88.7163 10.428 89.3763 11.184 90.4683 11.184C91.1403 11.184 91.7643 10.788 92.0523 10.116L93.1323 10.2C92.7603 11.4 91.6803 12.144 90.4683 12.144C88.6923 12.144 87.5523 10.836 87.5523 8.82ZM88.6443 8.244H92.1243C91.9563 6.912 91.2363 6.456 90.4683 6.456C89.4603 6.456 88.8123 7.116 88.6443 8.244ZM100.013 3.48V12H99.1009L99.0649 11.088C98.7049 11.736 97.9369 12.144 97.0489 12.144C95.3929 12.144 94.3609 10.86 94.3609 8.82C94.3609 6.78 95.3929 5.496 97.0489 5.496C97.9009 5.496 98.6569 5.88 99.0049 6.48V3.48H100.013ZM95.4169 8.82C95.4169 10.272 96.1369 11.184 97.2529 11.184C98.3809 11.184 99.1009 10.272 99.1009 8.82C99.1009 7.344 98.3809 6.408 97.2529 6.408C96.1369 6.408 95.4169 7.344 95.4169 8.82Z" fill="black"/>
<path d="M1.104 81V72.48H4.032C6.048 72.48 7.056 73.26 7.056 74.844C7.056 75.792 6.492 76.428 5.556 76.596C6.72 76.752 7.416 77.484 7.416 78.588C7.416 80.136 6.372 81 4.512 81H1.104ZM2.136 79.992H4.512C5.676 79.992 6.336 79.488 6.336 78.588C6.336 77.688 5.676 77.172 4.512 77.172H2.136V79.992ZM2.136 76.164H4.032C5.28 76.164 5.976 75.696 5.976 74.844C5.976 73.944 5.328 73.488 4.032 73.488H2.136V76.164ZM9.11625 74.64H10.1243V81H9.11625V74.64ZM9.09225 73.644V72.492H10.1483V73.644H9.09225ZM12.0459 72.48H13.0539V79.716C13.0539 79.98 13.1859 80.112 13.4499 80.112H14.0019V81H13.2939C12.5499 81 12.0459 80.496 12.0459 79.764V72.48ZM15.4444 72.48H16.4524V79.716C16.4524 79.98 16.5844 80.112 16.8484 80.112H17.4004V81H16.6924C15.9484 81 15.4444 80.496 15.4444 79.764V72.48ZM24.3628 81.144C22.5988 81.144 21.4468 79.848 21.4468 77.82C21.4468 75.792 22.5988 74.496 24.3628 74.496C26.1148 74.496 27.2668 75.792 27.2668 77.82C27.2668 79.848 26.1148 81.144 24.3628 81.144ZM22.5028 77.82C22.5028 79.296 23.1868 80.184 24.3628 80.184C25.5268 80.184 26.2108 79.296 26.2108 77.82C26.2108 76.344 25.5268 75.456 24.3628 75.456C23.1868 75.456 22.5028 76.344 22.5028 77.82ZM29.1817 74.232C29.1817 73.164 29.7097 72.48 30.8857 72.48H31.8697V73.368H30.8857C30.4777 73.368 30.1897 73.692 30.1897 74.232V74.64H31.7857V75.528H30.1897V81H29.1817V75.528H28.3177V74.64H29.1817V74.232ZM35.9429 77.82C35.9429 75.804 37.0829 74.496 38.8589 74.496C40.2629 74.496 41.5109 75.42 41.6069 77.676L41.6189 78.132H37.0109C37.1069 79.428 37.7669 80.184 38.8589 80.184C39.5309 80.184 40.1549 79.788 40.4429 79.116L41.5229 79.2C41.1509 80.4 40.0709 81.144 38.8589 81.144C37.0829 81.144 35.9429 79.836 35.9429 77.82ZM37.0349 77.244H40.5149C40.3469 75.912 39.6269 75.456 38.8589 75.456C37.8509 75.456 37.2029 76.116 37.0349 77.244ZM46.7018 74.64H47.9378L45.7418 77.748L48.0458 81H46.8218L45.1058 78.528L43.3898 81H42.1538L44.4818 77.736L42.2738 74.64H43.5098L45.1058 76.968L46.7018 74.64ZM53.0757 76.776C52.9437 75.948 52.2477 75.456 51.4917 75.456C50.3157 75.456 49.6317 76.344 49.6317 77.82C49.6317 79.296 50.3157 80.184 51.4917 80.184C52.2837 80.184 52.9797 79.656 53.1237 78.744L54.1917 78.816C53.9877 80.256 52.8357 81.144 51.4917 81.144C49.7157 81.144 48.5757 79.836 48.5757 77.82C48.5757 75.804 49.7157 74.496 51.4917 74.496C52.7877 74.496 53.9637 75.336 54.1317 76.704L53.0757 76.776ZM55.3584 72.48H56.3664V75.504C56.7264 74.808 57.4704 74.496 58.2624 74.496C59.5824 74.496 60.4104 75.432 60.4104 76.908V81H59.4024V77.268C59.4024 76.056 58.9584 75.456 58.0464 75.456C57.0384 75.456 56.3664 76.092 56.3664 77.268V81H55.3584V72.48ZM61.9259 76.512C62.1779 75.276 63.1739 74.496 64.5299 74.496C66.1619 74.496 67.0859 75.456 67.0859 77.16V79.716C67.0859 79.98 67.2059 80.112 67.4699 80.112H67.7339V81H67.3019C66.6539 81 66.0899 80.796 66.0899 80.016C65.8139 80.604 65.1179 81.144 64.1099 81.144C62.8379 81.144 61.8179 80.472 61.8179 79.332C61.8179 78.024 62.8019 77.688 64.2179 77.424L66.0779 77.052C66.0659 75.984 65.5499 75.456 64.5299 75.456C63.7259 75.456 63.1859 75.864 62.9939 76.596L61.9259 76.512ZM62.8739 79.332C62.8739 79.836 63.3059 80.256 64.2419 80.256C65.2739 80.244 66.1019 79.524 66.1019 78.036V77.952L64.6019 78.216C63.6539 78.384 62.8739 78.444 62.8739 79.332ZM69.0225 74.64H69.9465L69.9705 75.744C70.2945 74.88 71.0505 74.496 71.9265 74.496C73.3785 74.496 74.0745 75.564 74.0745 76.908V81H73.0665V77.196C73.0665 76.02 72.6705 75.384 71.7105 75.384C70.7025 75.384 70.0305 76.02 70.0305 77.196V81H69.0225V74.64ZM78.2314 80.664C76.5874 80.664 75.4234 79.392 75.4234 77.58C75.4234 75.768 76.5754 74.496 78.2194 74.496C79.0834 74.496 79.8154 74.94 80.1034 75.648V74.64H81.0634V80.376C81.0634 82.056 79.9114 82.944 78.2554 82.944C76.8994 82.944 75.8914 82.212 75.6034 81.096L76.6594 81.024C76.9114 81.624 77.4634 81.984 78.2554 81.984C79.3714 81.984 80.0554 81.504 80.0554 80.604V79.56C79.7434 80.232 79.0354 80.664 78.2314 80.664ZM76.4794 77.58C76.4794 78.888 77.1754 79.704 78.2914 79.704C79.3594 79.704 80.0554 78.888 80.0674 77.58C80.0914 76.272 79.3954 75.456 78.2914 75.456C77.1754 75.456 76.4794 76.272 76.4794 77.58ZM82.4078 77.82C82.4078 75.804 83.5478 74.496 85.3238 74.496C86.7278 74.496 87.9758 75.42 88.0718 77.676L88.0838 78.132H83.4758C83.5718 79.428 84.2318 80.184 85.3238 80.184C85.9958 80.184 86.6198 79.788 86.9078 79.116L87.9878 79.2C87.6158 80.4 86.5358 81.144 85.3238 81.144C83.5478 81.144 82.4078 79.836 82.4078 77.82ZM83.4998 77.244H86.9798C86.8118 75.912 86.0918 75.456 85.3238 75.456C84.3158 75.456 83.6678 76.116 83.4998 77.244ZM92.2163 77.82C92.2163 75.804 93.3563 74.496 95.1323 74.496C96.5363 74.496 97.7843 75.42 97.8803 77.676L97.8923 78.132H93.2843C93.3803 79.428 94.0403 80.184 95.1323 80.184C95.8043 80.184 96.4283 79.788 96.7163 79.116L97.7963 79.2C97.4243 80.4 96.3443 81.144 95.1323 81.144C93.3563 81.144 92.2163 79.836 92.2163 77.82ZM93.3083 77.244H96.7883C96.6203 75.912 95.9003 75.456 95.1323 75.456C94.1243 75.456 93.4763 76.116 93.3083 77.244ZM103.525 76.776C103.393 75.948 102.697 75.456 101.941 75.456C100.765 75.456 100.081 76.344 100.081 77.82C100.081 79.296 100.765 80.184 101.941 80.184C102.733 80.184 103.429 79.656 103.573 78.744L104.641 78.816C104.437 80.256 103.285 81.144 101.941 81.144C100.165 81.144 99.0249 79.836 99.0249 77.82C99.0249 75.804 100.165 74.496 101.941 74.496C103.237 74.496 104.413 75.336 104.581 76.704L103.525 76.776ZM108.562 81.144C106.798 81.144 105.646 79.848 105.646 77.82C105.646 75.792 106.798 74.496 108.562 74.496C110.314 74.496 111.466 75.792 111.466 77.82C111.466 79.848 110.314 81.144 108.562 81.144ZM106.702 77.82C106.702 79.296 107.386 80.184 108.562 80.184C109.726 80.184 110.41 79.296 110.41 77.82C110.41 76.344 109.726 75.456 108.562 75.456C107.386 75.456 106.702 76.344 106.702 77.82ZM116.651 76.608C116.507 75.888 115.799 75.456 115.091 75.456C114.383 75.456 113.807 75.816 113.807 76.428C113.807 77.052 114.635 77.304 115.331 77.448C116.771 77.724 117.827 78.12 117.827 79.38C117.827 80.616 116.555 81.144 115.343 81.144C113.843 81.144 112.691 80.316 112.595 78.996L113.651 78.924C113.783 79.692 114.395 80.184 115.343 80.184C115.967 80.184 116.771 79.98 116.771 79.32C116.771 78.564 115.871 78.48 115.151 78.312C113.987 78.048 112.751 77.712 112.751 76.476C112.751 75.264 113.735 74.496 115.199 74.496C116.459 74.496 117.503 75.3 117.707 76.536L116.651 76.608ZM118.354 74.64H119.434L121.342 79.92L123.202 74.64H124.27L121.69 81.804C121.45 82.488 120.994 82.8 120.274 82.8H119.446V81.912H120.178C120.49 81.912 120.67 81.78 120.79 81.468L121.018 80.88H120.682L118.354 74.64ZM128.85 76.608C128.706 75.888 127.998 75.456 127.29 75.456C126.582 75.456 126.006 75.816 126.006 76.428C126.006 77.052 126.834 77.304 127.53 77.448C128.97 77.724 130.026 78.12 130.026 79.38C130.026 80.616 128.754 81.144 127.542 81.144C126.042 81.144 124.89 80.316 124.794 78.996L125.85 78.924C125.982 79.692 126.594 80.184 127.542 80.184C128.166 80.184 128.97 79.98 128.97 79.32C128.97 78.564 128.07 78.48 127.35 78.312C126.186 78.048 124.95 77.712 124.95 76.476C124.95 75.264 125.934 74.496 127.398 74.496C128.658 74.496 129.702 75.3 129.906 76.536L128.85 76.608ZM131.826 73.2H132.834V74.64H134.526V75.528H132.834V79.308C132.834 79.836 133.086 80.112 133.59 80.112H134.502V81H133.59C132.45 81 131.826 80.388 131.826 79.308V75.528H130.89V74.64H131.826V73.2ZM135.353 77.82C135.353 75.804 136.493 74.496 138.269 74.496C139.673 74.496 140.921 75.42 141.017 77.676L141.029 78.132H136.421C136.517 79.428 137.177 80.184 138.269 80.184C138.941 80.184 139.565 79.788 139.853 79.116L140.933 79.2C140.561 80.4 139.481 81.144 138.269 81.144C136.493 81.144 135.353 79.836 135.353 77.82ZM136.445 77.244H139.925C139.757 75.912 139.037 75.456 138.269 75.456C137.261 75.456 136.613 76.116 136.445 77.244ZM142.499 74.64H143.423L143.447 75.708C143.747 74.94 144.407 74.496 145.283 74.496C146.207 74.496 146.867 74.976 147.143 75.828C147.419 74.976 148.079 74.496 149.075 74.496C150.359 74.496 151.103 75.372 151.103 76.908V81H150.095V77.196C150.095 76.044 149.639 75.384 148.871 75.384C147.875 75.384 147.299 76.056 147.299 77.196V81H146.291V77.196C146.291 76.068 145.835 75.384 145.079 75.384C144.095 75.384 143.507 76.068 143.507 77.196V81H142.499V74.64Z" fill="black"/>
<path d="M246.164 4.8C247.076 4.8 247.472 4.404 247.472 3.48H248.288V12H247.244V5.688H245.48V4.8H246.164ZM255.653 3.48V9.24H256.625V10.248H255.653V12H254.621V10.248H250.205V9.24L254.549 3.48H255.653ZM251.477 9.24H254.621V5.064L251.477 9.24ZM261.327 12V3.48H264.255C266.271 3.48 267.279 4.26 267.279 5.844C267.279 6.792 266.715 7.428 265.779 7.596C266.943 7.752 267.639 8.484 267.639 9.588C267.639 11.136 266.595 12 264.735 12H261.327ZM262.359 10.992H264.735C265.899 10.992 266.559 10.488 266.559 9.588C266.559 8.688 265.899 8.172 264.735 8.172H262.359V10.992ZM262.359 7.164H264.255C265.503 7.164 266.199 6.696 266.199 5.844C266.199 4.944 265.551 4.488 264.255 4.488H262.359V7.164ZM274.781 3.48V4.488H272.129V12H271.097V4.488H268.445V3.48H274.781ZM282.732 9.192C282.42 10.98 281.256 12.192 279.288 12.192C276.84 12.192 275.436 10.224 275.436 7.752C275.436 5.268 276.828 3.288 279.288 3.288C281.1 3.288 282.288 4.416 282.66 6.096L281.568 6.168C281.292 4.968 280.464 4.296 279.288 4.296C277.344 4.296 276.516 5.904 276.516 7.752C276.516 9.588 277.356 11.184 279.288 11.184C280.536 11.184 281.376 10.44 281.628 9.12L282.732 9.192Z" fill="black" fill-opacity="0.3"/>
<path d="M164.164 73.8C165.076 73.8 165.472 73.404 165.472 72.48H166.288V81H165.244V74.688H163.48V73.8H164.164ZM173.653 72.48V78.24H174.625V79.248H173.653V81H172.621V79.248H168.205V78.24L172.549 72.48H173.653ZM169.477 78.24H172.621V74.064L169.477 78.24ZM179.327 81V72.48H182.255C184.271 72.48 185.279 73.26 185.279 74.844C185.279 75.792 184.715 76.428 183.779 76.596C184.943 76.752 185.639 77.484 185.639 78.588C185.639 80.136 184.595 81 182.735 81H179.327ZM180.359 79.992H182.735C183.899 79.992 184.559 79.488 184.559 78.588C184.559 77.688 183.899 77.172 182.735 77.172H180.359V79.992ZM180.359 76.164H182.255C183.503 76.164 184.199 75.696 184.199 74.844C184.199 73.944 183.551 73.488 182.255 73.488H180.359V76.164ZM192.781 72.48V73.488H190.129V81H189.097V73.488H186.445V72.48H192.781ZM200.732 78.192C200.42 79.98 199.256 81.192 197.288 81.192C194.84 81.192 193.436 79.224 193.436 76.752C193.436 74.268 194.828 72.288 197.288 72.288C199.1 72.288 200.288 73.416 200.66 75.096L199.568 75.168C199.292 73.968 198.464 73.296 197.288 73.296C195.344 73.296 194.516 74.904 194.516 76.752C194.516 78.588 195.356 80.184 197.288 80.184C198.536 80.184 199.376 79.44 199.628 78.12L200.732 78.192Z" fill="black" fill-opacity="0.3"/>
<circle cx="211.5" cy="37.5" r="3.5" fill="#F7931A"/>
<circle cx="229.5" cy="49.5" r="5.5" fill="#F7931A"/>
<circle cx="229.5" cy="101.5" r="3.5" fill="#F7931A"/>
<circle cx="256.5" cy="84.5" r="5.5" fill="#F7931A"/>
<circle cx="274.5" cy="64.5" r="3.5" fill="#F7931A"/>
<defs>
<linearGradient id="paint0_linear_2625_25510" x1="152" y1="101.6" x2="152" y2="140.487" gradientUnits="userSpaceOnUse">
<stop stop-color="#F7931A"/>
<stop offset="0.405" stop-color="#FABF77" stop-opacity="0.676"/>
<stop offset="1" stop-color="white" stop-opacity="0.2"/>
</linearGradient>
</defs>
</svg>
