<svg width="335" height="163" viewBox="0 0 335 163" fill="none" xmlns="http://www.w3.org/2000/svg">
<rect width="1" height="40" transform="matrix(1 0 0 -1 0 76)" fill="#D9D9D9"/>
<rect width="1" height="40" transform="matrix(1 0 0 -1 9 76)" fill="#D9D9D9"/>
<rect width="1" height="40" transform="matrix(1 0 0 -1 18 76)" fill="#D9D9D9"/>
<rect width="1" height="40" transform="matrix(1 0 0 -1 27 76)" fill="#D9D9D9"/>
<rect width="1" height="40" transform="matrix(1 0 0 -1 36 76)" fill="#D9D9D9"/>
<rect width="1" height="40" transform="matrix(1 0 0 -1 45 76)" fill="#D9D9D9"/>
<rect width="1" height="40" transform="matrix(1 0 0 -1 54 76)" fill="#D9D9D9"/>
<rect width="1" height="40" transform="matrix(1 0 0 -1 63 76)" fill="#D9D9D9"/>
<rect width="1" height="40" transform="matrix(1 0 0 -1 72 76)" fill="#D9D9D9"/>
<rect width="1" height="40" transform="matrix(1 0 0 -1 81 76)" fill="#D9D9D9"/>
<rect width="1" height="40" transform="matrix(1 0 0 -1 90 76)" fill="#D9D9D9"/>
<rect width="1" height="40" transform="matrix(1 0 0 -1 99 76)" fill="#D9D9D9"/>
<rect width="1" height="40" transform="matrix(1 0 0 -1 108 76)" fill="#D9D9D9"/>
<rect width="1" height="40" transform="matrix(1 0 0 -1 117 76)" fill="#D9D9D9"/>
<rect width="1" height="40" transform="matrix(1 0 0 -1 126 76)" fill="#D9D9D9"/>
<rect width="1" height="40" transform="matrix(1 0 0 -1 135 76)" fill="#D9D9D9"/>
<rect width="1" height="40" transform="matrix(1 0 0 -1 144 76)" fill="#D9D9D9"/>
<rect width="1" height="40" transform="matrix(1 0 0 -1 153 76)" fill="#D9D9D9"/>
<rect width="1" height="40" transform="matrix(1 0 0 -1 162 76)" fill="#D9D9D9"/>
<rect width="1" height="40" transform="matrix(1 0 0 -1 171 76)" fill="#D9D9D9"/>
<rect width="1" height="40" transform="matrix(1 0 0 -1 180 76)" fill="#D9D9D9"/>
<rect width="1" height="40" transform="matrix(1 0 0 -1 189 76)" fill="#D9D9D9"/>
<rect width="1" height="40" transform="matrix(1 0 0 -1 198 76)" fill="#D9D9D9"/>
<rect width="1" height="40" transform="matrix(1 0 0 -1 207 76)" fill="#D9D9D9"/>
<rect width="1" height="40" transform="matrix(1 0 0 -1 216 76)" fill="#D9D9D9"/>
<rect width="1" height="40" transform="matrix(1 0 0 -1 225 76)" fill="#D9D9D9"/>
<rect width="1" height="40" transform="matrix(1 0 0 -1 234 76)" fill="#D9D9D9"/>
<rect width="1" height="40" transform="matrix(1 0 0 -1 243 76)" fill="#D9D9D9"/>
<rect width="1" height="40" transform="matrix(1 0 0 -1 252 76)" fill="#D9D9D9"/>
<rect width="1" height="40" transform="matrix(1 0 0 -1 261 76)" fill="#D9D9D9"/>
<rect width="1" height="40" transform="matrix(1 0 0 -1 270 76)" fill="#D9D9D9"/>
<rect width="1" height="40" transform="matrix(1 0 0 -1 279 76)" fill="#D9D9D9"/>
<rect width="1" height="40" transform="matrix(1 0 0 -1 288 76)" fill="#D9D9D9"/>
<rect width="1" height="40" transform="matrix(1 0 0 -1 297 76)" fill="#D9D9D9"/>
<rect width="1" height="40" transform="matrix(1 0 0 -1 306 76)" fill="#D9D9D9"/>
<rect width="1" height="40" transform="matrix(1 0 0 -1 315 76)" fill="#D9D9D9"/>
<rect width="1" height="40" transform="matrix(1 0 0 -1 324 76)" fill="#D9D9D9"/>
<rect width="1" height="40" transform="matrix(1 0 0 -1 333 76)" fill="#D9D9D9"/>
<rect width="1" height="40" transform="matrix(1 0 0 -1 0 132)" fill="#D9D9D9"/>
<rect width="1" height="40" transform="matrix(1 0 0 -1 9 132)" fill="#D9D9D9"/>
<rect width="1" height="40" transform="matrix(1 0 0 -1 18 132)" fill="#D9D9D9"/>
<rect width="1" height="40" transform="matrix(1 0 0 -1 27 132)" fill="#D9D9D9"/>
<rect width="1" height="40" transform="matrix(1 0 0 -1 36 132)" fill="#D9D9D9"/>
<rect width="1" height="40" transform="matrix(1 0 0 -1 45 132)" fill="#D9D9D9"/>
<rect width="1" height="40" transform="matrix(1 0 0 -1 54 132)" fill="#D9D9D9"/>
<rect width="1" height="40" transform="matrix(1 0 0 -1 63 132)" fill="#D9D9D9"/>
<rect width="1" height="40" transform="matrix(1 0 0 -1 72 132)" fill="#D9D9D9"/>
<rect width="1" height="40" transform="matrix(1 0 0 -1 81 132)" fill="#D9D9D9"/>
<rect width="1" height="40" transform="matrix(1 0 0 -1 90 132)" fill="#D9D9D9"/>
<rect width="1" height="40" transform="matrix(1 0 0 -1 99 132)" fill="#D9D9D9"/>
<rect width="1" height="40" transform="matrix(1 0 0 -1 108 132)" fill="#D9D9D9"/>
<rect width="1" height="40" transform="matrix(1 0 0 -1 117 132)" fill="#D9D9D9"/>
<rect width="1" height="40" transform="matrix(1 0 0 -1 126 132)" fill="#D9D9D9"/>
<rect width="1" height="40" transform="matrix(1 0 0 -1 135 132)" fill="#D9D9D9"/>
<rect width="1" height="40" transform="matrix(1 0 0 -1 144 132)" fill="#D9D9D9"/>
<rect width="1" height="40" transform="matrix(1 0 0 -1 153 132)" fill="#D9D9D9"/>
<rect width="1" height="40" transform="matrix(1 0 0 -1 162 132)" fill="#D9D9D9"/>
<rect width="1" height="40" transform="matrix(1 0 0 -1 171 132)" fill="#D9D9D9"/>
<rect width="1" height="40" transform="matrix(1 0 0 -1 180 132)" fill="#D9D9D9"/>
<rect width="1" height="40" transform="matrix(1 0 0 -1 189 132)" fill="#D9D9D9"/>
<rect width="1" height="40" transform="matrix(1 0 0 -1 198 132)" fill="#D9D9D9"/>
<rect width="1" height="40" transform="matrix(1 0 0 -1 207 132)" fill="#D9D9D9"/>
<rect width="1" height="40" transform="matrix(1 0 0 -1 216 132)" fill="#D9D9D9"/>
<rect width="1" height="40" transform="matrix(1 0 0 -1 225 132)" fill="#D9D9D9"/>
<rect width="1" height="40" transform="matrix(1 0 0 -1 234 132)" fill="#D9D9D9"/>
<rect width="1" height="40" transform="matrix(1 0 0 -1 243 132)" fill="#D9D9D9"/>
<rect width="1" height="40" transform="matrix(1 0 0 -1 252 132)" fill="#D9D9D9"/>
<rect width="1" height="40" transform="matrix(1 0 0 -1 261 132)" fill="#D9D9D9"/>
<rect width="1" height="40" transform="matrix(1 0 0 -1 270 132)" fill="#D9D9D9"/>
<rect width="1" height="40" transform="matrix(1 0 0 -1 279 132)" fill="#D9D9D9"/>
<rect width="1" height="40" transform="matrix(1 0 0 -1 288 132)" fill="#D9D9D9"/>
<rect width="1" height="40" transform="matrix(1 0 0 -1 297 132)" fill="#D9D9D9"/>
<rect width="1" height="40" transform="matrix(1 0 0 -1 306 132)" fill="#D9D9D9"/>
<rect width="1" height="40" transform="matrix(1 0 0 -1 315 132)" fill="#D9D9D9"/>
<rect width="1" height="40" transform="matrix(1 0 0 -1 324 132)" fill="#D9D9D9"/>
<rect width="1" height="40" transform="matrix(1 0 0 -1 333 132)" fill="#D9D9D9"/>
<path fill-rule="evenodd" clip-rule="evenodd" d="M270 76H271V36H270V76ZM180 76H181V41H180V76ZM82 76H81V46H82V76ZM36 76H37V52H36V76ZM1 76H0V60H1V76ZM10 76H9V60H10V76ZM18 76H19V60H18V76ZM28 76H27V60H28V76ZM46 76H45V52H46V76ZM54 76H55V52H54V76ZM64 76H63V52H64V76ZM72 76H73V52H72V76ZM90 76H91V46H90V76ZM100 76H99V46H100V76ZM108 76H109V46H108V76ZM118 76H117V46H118V76ZM126 76H127V46H126V76ZM136 76H135V46H136V76ZM144 76H145V46H144V76ZM154 76H153V46H154V76ZM162 76H163V46H162V76ZM172 76H171V46H172V76ZM190 76H189V41H190V76ZM198 76H199V41H198V76ZM208 76H207V41H208V76ZM216 76H217V41H216V76ZM226 76H225V41H226V76ZM234 76H235V41H234V76ZM244 76H243V41H244V76ZM252 76H253V41H252V76ZM262 76H261V41H262V76ZM280 76H279V36H280V76ZM288 76H289V36H288V76ZM298 76H297V36H298V76ZM306 76H307V36H306V76ZM316 76H315V36H316V76ZM324 76H325V36H324V76ZM334 76H333V36H334V76Z" fill="url(#paint0_linear_2625_25589)"/>
<path fill-rule="evenodd" clip-rule="evenodd" d="M64 132H63V92H64V132ZM154 132H153V97H154V132ZM252 132H253V102H252V132ZM298 132H297V108H298V132ZM333 132H334V116H333V132ZM324 132H325V116H324V132ZM316 132H315V116H316V132ZM306 132H307V116H306V132ZM288 132H289V108H288V132ZM280 132H279V108H280V132ZM270 132H271V108H270V132ZM262 132H261V108H262V132ZM244 132H243V102H244V132ZM234 132H235V102H234V132ZM226 132H225V102H226V132ZM216 132H217V102H216V132ZM208 132H207V102H208V132ZM198 132H199V102H198V132ZM190 132H189V102H190V132ZM180 132H181V102H180V132ZM172 132H171V102H172V132ZM162 132H163V102H162V132ZM144 132H145V97H144V132ZM136 132H135V97H136V132ZM126 132H127V97H126V132ZM118 132H117V97H118V132ZM108 132H109V97H108V132ZM100 132H99V97H100V132ZM90 132H91V97H90V132ZM82 132H81V97H82V132ZM72 132H73V97H72V132ZM54 132H55V92H54V132ZM46 132H45V92H46V132ZM36 132H37V92H36V132ZM28 132H27V92H28V132ZM18 132H19V92H18V132ZM10 132H9V92H10V132ZM0 132H1V92H0V132Z" fill="url(#paint1_linear_2625_25589)"/>
<rect y="19" width="335" height="1" fill="#D8D8D8"/>
<path d="M4.332 3.48C6.12 3.48 7.236 4.476 7.236 6.06C7.236 7.056 6.552 7.812 5.796 8.028C6.624 8.16 6.996 8.592 7.08 9.492L7.32 12H6.276L6.06 9.6C5.988 8.82 5.472 8.568 4.224 8.568H2.136V12H1.104V3.48H4.332ZM2.136 7.56H4.332C5.496 7.56 6.156 7.02 6.156 6.036C6.156 5.052 5.508 4.488 4.332 4.488H2.136V7.56ZM8.45072 8.82C8.45072 6.804 9.59072 5.496 11.3667 5.496C12.7707 5.496 14.0187 6.42 14.1147 8.676L14.1267 9.132H9.51872C9.61472 10.428 10.2747 11.184 11.3667 11.184C12.0387 11.184 12.6627 10.788 12.9507 10.116L14.0307 10.2C13.6587 11.4 12.5787 12.144 11.3667 12.144C9.59072 12.144 8.45072 10.836 8.45072 8.82ZM9.54272 8.244H13.0227C12.8547 6.912 12.1347 6.456 11.3667 6.456C10.3587 6.456 9.71072 7.116 9.54272 8.244ZM20.9113 3.48V12H19.9993L19.9633 11.088C19.6033 11.736 18.8353 12.144 17.9473 12.144C16.2913 12.144 15.2593 10.86 15.2593 8.82C15.2593 6.78 16.2913 5.496 17.9473 5.496C18.7993 5.496 19.5553 5.88 19.9033 6.48V3.48H20.9113ZM16.3153 8.82C16.3153 10.272 17.0353 11.184 18.1513 11.184C19.2793 11.184 19.9993 10.272 19.9993 8.82C19.9993 7.344 19.2793 6.408 18.1513 6.408C17.0353 6.408 16.3153 7.344 16.3153 8.82ZM27.5728 12H26.6128V10.944C26.2768 11.772 25.5448 12.144 24.7048 12.144C23.2888 12.144 22.5928 11.076 22.5928 9.732V5.64H23.6008V9.432C23.6008 10.62 23.9968 11.256 24.9208 11.256C25.9048 11.256 26.5648 10.62 26.5648 9.432V5.64H27.5728V12ZM33.4234 7.776C33.2914 6.948 32.5954 6.456 31.8394 6.456C30.6634 6.456 29.9794 7.344 29.9794 8.82C29.9794 10.296 30.6634 11.184 31.8394 11.184C32.6314 11.184 33.3274 10.656 33.4714 9.744L34.5394 9.816C34.3354 11.256 33.1834 12.144 31.8394 12.144C30.0634 12.144 28.9234 10.836 28.9234 8.82C28.9234 6.804 30.0634 5.496 31.8394 5.496C33.1354 5.496 34.3114 6.336 34.4794 7.704L33.4234 7.776ZM35.5445 8.82C35.5445 6.804 36.6845 5.496 38.4605 5.496C39.8645 5.496 41.1125 6.42 41.2085 8.676L41.2205 9.132H36.6125C36.7085 10.428 37.3685 11.184 38.4605 11.184C39.1325 11.184 39.7565 10.788 40.0445 10.116L41.1245 10.2C40.7525 11.4 39.6725 12.144 38.4605 12.144C36.6845 12.144 35.5445 10.836 35.5445 8.82ZM36.6365 8.244H40.1165C39.9485 6.912 39.2285 6.456 38.4605 6.456C37.4525 6.456 36.8045 7.116 36.6365 8.244ZM45.7491 5.64H46.6371L46.6731 6.804C46.8891 6.012 47.3571 5.64 48.1851 5.64H48.8091V6.528H48.1851C47.2131 6.528 46.7571 7.116 46.7571 8.208V12H45.7491V5.64ZM50.3311 5.64H51.3391V12H50.3311V5.64ZM50.3071 4.644V3.492H51.3631V4.644H50.3071ZM56.9208 7.608C56.7768 6.888 56.0688 6.456 55.3608 6.456C54.6528 6.456 54.0768 6.816 54.0768 7.428C54.0768 8.052 54.9048 8.304 55.6008 8.448C57.0408 8.724 58.0968 9.12 58.0968 10.38C58.0968 11.616 56.8248 12.144 55.6128 12.144C54.1128 12.144 52.9608 11.316 52.8648 9.996L53.9208 9.924C54.0528 10.692 54.6648 11.184 55.6128 11.184C56.2368 11.184 57.0408 10.98 57.0408 10.32C57.0408 9.564 56.1408 9.48 55.4208 9.312C54.2568 9.048 53.0208 8.712 53.0208 7.476C53.0208 6.264 54.0048 5.496 55.4688 5.496C56.7288 5.496 57.7728 6.3 57.9768 7.536L56.9208 7.608ZM59.5655 3.48H60.5735V9.06L63.6215 5.64H65.0015L62.5055 8.34L65.1215 12H63.8855L61.8095 9.036L60.5735 10.368V12H59.5655V3.48Z" fill="black"/>
<path d="M272.164 4.8C273.076 4.8 273.472 4.404 273.472 3.48H274.288V12H273.244V5.688H271.48V4.8H272.164ZM276.481 6.024C276.709 4.452 277.825 3.288 279.529 3.288C281.089 3.288 282.241 4.32 282.241 5.712C282.241 6.948 281.257 7.788 279.973 8.592C279.289 8.976 277.645 10.14 277.609 10.992H282.313V12H276.325C276.325 9.456 278.149 8.532 279.601 7.608C280.501 7.032 281.161 6.372 281.161 5.712C281.161 4.884 280.489 4.296 279.529 4.296C278.497 4.296 277.789 4.944 277.561 6.096L276.481 6.024ZM289.083 3.48V9.24H290.055V10.248H289.083V12H288.051V10.248H283.635V9.24L287.979 3.48H289.083ZM284.907 9.24H288.051V5.064L284.907 9.24ZM291.216 10.692H292.5V12H291.216V10.692ZM299.27 3.48V4.488H295.502L295.154 7.068C295.55 6.588 296.306 6.324 297.038 6.324C298.682 6.324 299.846 7.56 299.846 9.264C299.846 10.98 298.598 12.192 296.882 12.192C295.178 12.192 293.906 11.208 293.786 9.804L294.866 9.732C294.998 10.656 295.862 11.184 296.882 11.184C298.01 11.184 298.766 10.392 298.766 9.264C298.766 8.064 297.998 7.308 296.774 7.308C295.982 7.308 295.322 7.668 295.046 8.268H293.93L294.59 3.48H299.27ZM306.626 3.48V9.24H307.598V10.248H306.626V12H305.594V10.248H301.178V9.24L305.522 3.48H306.626ZM302.45 9.24H305.594V5.064L302.45 9.24ZM312.299 12V3.48H315.227C317.243 3.48 318.251 4.26 318.251 5.844C318.251 6.792 317.687 7.428 316.751 7.596C317.915 7.752 318.611 8.484 318.611 9.588C318.611 11.136 317.567 12 315.707 12H312.299ZM313.331 10.992H315.707C316.871 10.992 317.531 10.488 317.531 9.588C317.531 8.688 316.871 8.172 315.707 8.172H313.331V10.992ZM313.331 7.164H315.227C316.475 7.164 317.171 6.696 317.171 5.844C317.171 4.944 316.523 4.488 315.227 4.488H313.331V7.164ZM325.753 3.48V4.488H323.101V12H322.069V4.488H319.417V3.48H325.753ZM333.704 9.192C333.392 10.98 332.228 12.192 330.26 12.192C327.812 12.192 326.408 10.224 326.408 7.752C326.408 5.268 327.8 3.288 330.26 3.288C332.072 3.288 333.26 4.416 333.632 6.096L332.54 6.168C332.264 4.968 331.436 4.296 330.26 4.296C328.316 4.296 327.488 5.904 327.488 7.752C327.488 9.588 328.328 11.184 330.26 11.184C331.508 11.184 332.348 10.44 332.6 9.12L333.704 9.192Z" fill="black" fill-opacity="0.3"/>
<path d="M251.307 160V151.48H252.339V158.992H256.599V160H251.307ZM260.175 160.144C258.411 160.144 257.259 158.848 257.259 156.82C257.259 154.792 258.411 153.496 260.175 153.496C261.927 153.496 263.079 154.792 263.079 156.82C263.079 158.848 261.927 160.144 260.175 160.144ZM258.315 156.82C258.315 158.296 258.999 159.184 260.175 159.184C261.339 159.184 262.023 158.296 262.023 156.82C262.023 155.344 261.339 154.456 260.175 154.456C258.999 154.456 258.315 155.344 258.315 156.82ZM268.265 155.608C268.121 154.888 267.413 154.456 266.705 154.456C265.997 154.456 265.421 154.816 265.421 155.428C265.421 156.052 266.249 156.304 266.945 156.448C268.385 156.724 269.441 157.12 269.441 158.38C269.441 159.616 268.169 160.144 266.957 160.144C265.457 160.144 264.305 159.316 264.209 157.996L265.265 157.924C265.397 158.692 266.009 159.184 266.957 159.184C267.581 159.184 268.385 158.98 268.385 158.32C268.385 157.564 267.485 157.48 266.765 157.312C265.601 157.048 264.365 156.712 264.365 155.476C264.365 154.264 265.349 153.496 266.813 153.496C268.073 153.496 269.117 154.3 269.321 155.536L268.265 155.608ZM274.628 155.608C274.484 154.888 273.776 154.456 273.068 154.456C272.36 154.456 271.784 154.816 271.784 155.428C271.784 156.052 272.612 156.304 273.308 156.448C274.748 156.724 275.804 157.12 275.804 158.38C275.804 159.616 274.532 160.144 273.32 160.144C271.82 160.144 270.668 159.316 270.572 157.996L271.628 157.924C271.76 158.692 272.372 159.184 273.32 159.184C273.944 159.184 274.748 158.98 274.748 158.32C274.748 157.564 273.848 157.48 273.128 157.312C271.964 157.048 270.728 156.712 270.728 155.476C270.728 154.264 271.712 153.496 273.176 153.496C274.436 153.496 275.48 154.3 275.684 155.536L274.628 155.608ZM280.331 153.64H281.255L281.279 154.708C281.579 153.94 282.239 153.496 283.115 153.496C284.039 153.496 284.699 153.976 284.975 154.828C285.251 153.976 285.911 153.496 286.907 153.496C288.191 153.496 288.935 154.372 288.935 155.908V160H287.927V156.196C287.927 155.044 287.471 154.384 286.703 154.384C285.707 154.384 285.131 155.056 285.131 156.196V160H284.123V156.196C284.123 155.068 283.667 154.384 282.911 154.384C281.927 154.384 281.339 155.068 281.339 156.196V160H280.331V153.64ZM290.855 153.64H291.863V160H290.855V153.64ZM290.831 152.644V151.492H291.887V152.644H290.831ZM293.94 152.2H294.948V153.64H296.64V154.528H294.948V158.308C294.948 158.836 295.2 159.112 295.704 159.112H296.616V160H295.704C294.564 160 293.94 159.388 293.94 158.308V154.528H293.004V153.64H293.94V152.2ZM298.038 153.64H299.046V160H298.038V153.64ZM298.014 152.644V151.492H299.07V152.644H298.014ZM303.38 159.664C301.736 159.664 300.572 158.392 300.572 156.58C300.572 154.768 301.724 153.496 303.368 153.496C304.232 153.496 304.964 153.94 305.252 154.648V153.64H306.212V159.376C306.212 161.056 305.06 161.944 303.404 161.944C302.048 161.944 301.04 161.212 300.752 160.096L301.808 160.024C302.06 160.624 302.612 160.984 303.404 160.984C304.52 160.984 305.204 160.504 305.204 159.604V158.56C304.892 159.232 304.184 159.664 303.38 159.664ZM301.628 156.58C301.628 157.888 302.324 158.704 303.44 158.704C304.508 158.704 305.204 157.888 305.216 156.58C305.24 155.272 304.544 154.456 303.44 154.456C302.324 154.456 301.628 155.272 301.628 156.58ZM307.84 155.512C308.092 154.276 309.088 153.496 310.444 153.496C312.076 153.496 313 154.456 313 156.16V158.716C313 158.98 313.12 159.112 313.384 159.112H313.648V160H313.216C312.568 160 312.004 159.796 312.004 159.016C311.728 159.604 311.032 160.144 310.024 160.144C308.752 160.144 307.732 159.472 307.732 158.332C307.732 157.024 308.716 156.688 310.132 156.424L311.992 156.052C311.98 154.984 311.464 154.456 310.444 154.456C309.64 154.456 309.1 154.864 308.908 155.596L307.84 155.512ZM308.788 158.332C308.788 158.836 309.22 159.256 310.156 159.256C311.188 159.244 312.016 158.524 312.016 157.036V156.952L310.516 157.216C309.568 157.384 308.788 157.444 308.788 158.332ZM315.069 152.2H316.077V153.64H317.769V154.528H316.077V158.308C316.077 158.836 316.329 159.112 316.833 159.112H317.745V160H316.833C315.693 160 315.069 159.388 315.069 158.308V154.528H314.133V153.64H315.069V152.2ZM319.167 153.64H320.175V160H319.167V153.64ZM319.143 152.644V151.492H320.199V152.644H319.143ZM324.617 160.144C322.853 160.144 321.701 158.848 321.701 156.82C321.701 154.792 322.853 153.496 324.617 153.496C326.369 153.496 327.521 154.792 327.521 156.82C327.521 158.848 326.369 160.144 324.617 160.144ZM322.757 156.82C322.757 158.296 323.441 159.184 324.617 159.184C325.781 159.184 326.465 158.296 326.465 156.82C326.465 155.344 325.781 154.456 324.617 154.456C323.441 154.456 322.757 155.344 322.757 156.82ZM328.987 153.64H329.911L329.935 154.744C330.259 153.88 331.015 153.496 331.891 153.496C333.343 153.496 334.039 154.564 334.039 155.908V160H333.031V156.196C333.031 155.02 332.635 154.384 331.675 154.384C330.667 154.384 329.995 155.02 329.995 156.196V160H328.987V153.64Z" fill="black"/>
<defs>
<linearGradient id="paint0_linear_2625_25589" x1="334" y1="44.9999" x2="-157.5" y2="68.9998" gradientUnits="userSpaceOnUse">
<stop stop-color="#F7371A"/>
<stop offset="0.175" stop-color="#F7931A"/>
<stop offset="0.575534" stop-color="#FABF77" stop-opacity="0.676"/>
<stop offset="1" stop-color="white" stop-opacity="0.2"/>
</linearGradient>
<linearGradient id="paint1_linear_2625_25589" x1="2.12214e-05" y1="101" x2="491.5" y2="125" gradientUnits="userSpaceOnUse">
<stop stop-color="#F7371A"/>
<stop offset="0.175" stop-color="#F7931A"/>
<stop offset="0.575534" stop-color="#FABF77" stop-opacity="0.676"/>
<stop offset="1" stop-color="white" stop-opacity="0.2"/>
</linearGradient>
</defs>
</svg>
