<svg width="72" height="72" viewBox="0 0 72 72" fill="none" xmlns="http://www.w3.org/2000/svg">
<g id="Illustration">
<path id="Vector" d="M46.7568 11.4832C46.7568 13.0648 46.2644 14.7078 45.2798 16.4063C45.1013 16.714 44.9167 17.0094 44.7198 17.2925C44.6582 17.3848 44.5968 17.4771 44.5291 17.5632C43.7106 18.6832 42.7813 19.5448 41.7352 20.1478C40.3505 20.9478 39.169 21.0648 38.1844 20.5048C37.1998 19.9448 36.7075 18.8678 36.7075 17.2863C36.7075 16.1725 36.9475 15.034 37.4398 13.8648C37.6367 13.3663 37.889 12.8678 38.1844 12.3571C39.169 10.6648 40.3505 9.41553 41.7352 8.61553C42.9721 7.90169 44.0552 7.73553 44.9721 8.11092L45.2798 8.26476C46.2644 8.82476 46.7568 9.89553 46.7568 11.4832Z" fill="#FFF2E2" stroke="#F7931A" stroke-linecap="round" stroke-linejoin="round"/>
<path id="Vector_2" d="M62.7075 27.0641L59.1936 33.1256L49.2675 27.4703V61.9133L44.246 64.8179V47.5195L39.2245 50.424V67.7164L34.1967 70.6149V32.4979C31.5567 33.224 29.2799 33.1318 27.3722 32.2149L27.0336 32.0425C26.3198 31.6548 25.6614 31.1564 25.0583 30.5287C22.806 28.1964 21.6613 24.8118 21.6367 20.3687V20.221L26.6645 17.3164C26.6645 17.7041 26.6768 18.0856 26.7014 18.4487C26.8922 21.8333 28.0059 24.2087 30.0244 25.5748C31.9013 26.8487 34.2152 26.8795 36.9598 25.6795C37.489 25.4456 38.0368 25.1687 38.5968 24.8426L40.8552 23.5379L44.8736 21.2179C46.129 20.4918 47.3045 20.0795 48.3937 19.981C48.5106 19.9687 48.6214 19.9625 48.7383 19.9625C49.3722 19.9317 49.9691 20.0179 50.5291 20.2149H50.5352C50.8122 20.3133 51.0829 20.4302 51.3413 20.5779L62.7075 27.0641Z" fill="#FFF2E2" stroke="#F7931A" stroke-linecap="round" stroke-linejoin="round"/>
<path id="Vector_3" d="M50.5294 20.2162C49.9694 20.0193 49.3724 19.9331 48.7386 19.9638C48.6217 19.9638 48.5109 19.9701 48.394 19.9824C47.3047 20.0808 46.1293 20.4931 44.8739 21.2193L40.8555 23.5393L38.597 24.8439C38.037 25.1701 37.4894 25.447 36.9601 25.6808C34.2155 26.8808 31.9016 26.85 30.0247 25.5761C28.0062 24.21 26.8924 21.8347 26.7017 18.4501L30.1232 16.4746L38.1847 20.5054C39.1693 21.0654 40.3509 20.9485 41.7355 20.1485C42.7817 19.5454 43.7109 18.6838 44.5294 17.5638C44.597 17.4777 44.6585 17.3854 44.7201 17.2931L50.5294 20.2162Z" fill="#FFF2E2" stroke="#F7931A" stroke-linecap="round" stroke-linejoin="round"/>
<path id="Vector_4" d="M34.1969 32.4989V70.6159L21.8892 64.4621V29.459L27.0338 32.0435L27.3723 32.2159C29.28 33.1328 31.5569 33.2251 34.1969 32.4989Z" fill="#FFF2E2" stroke="#F7931A" stroke-linecap="round" stroke-linejoin="round"/>
<path id="Vector_5" d="M27.0337 32.0437L21.8891 29.4591L15.5938 26.2899H15.5752C14.5291 25.8776 13.5876 25.2437 12.7507 24.3761C10.4738 22.0191 9.3291 18.5853 9.3291 14.0684L21.6368 20.2222V20.3699C21.6614 24.813 22.8061 28.1976 25.0584 30.5299C25.6615 31.1576 26.3199 31.656 27.0337 32.0437Z" fill="#FFF2E2" stroke="#F7931A" stroke-linecap="round" stroke-linejoin="round"/>
<path id="Vector_6" d="M44.9721 8.11109C44.0552 7.7357 42.9721 7.90192 41.7352 8.61576C40.3506 9.41576 39.1691 10.665 38.1845 12.3573C37.8891 12.8681 37.6368 13.3665 37.4398 13.8649C36.9475 15.0342 36.7076 16.1727 36.7076 17.2865C36.7076 18.8681 37.1998 19.945 38.1845 20.505L30.1229 16.4742L26.1906 14.505L25.8768 14.3511C24.8921 13.7911 24.3999 12.7142 24.3999 11.1327C24.3999 9.55115 24.8921 7.90192 25.8768 6.20346C26.8614 4.51113 28.0429 3.26192 29.4275 2.46192C30.806 1.66808 31.9937 1.55111 32.9721 2.11111L44.9721 8.11109Z" fill="#FFF2E2" stroke="#F7931A" stroke-linecap="round" stroke-linejoin="round"/>
<path id="Vector_7" d="M26.6645 17.316L21.6368 20.2206L9.3291 14.0667L14.3568 11.1621L26.6645 17.316Z" fill="#FFF2E2" stroke="#F7931A" stroke-linecap="round" stroke-linejoin="round"/>
<g id="Vector_8">
<path d="M15.5754 26.2834L14.3569 25.668L15.5754 26.2834Z" fill="#FFF2E2"/>
<path d="M15.5754 26.2834L14.3569 25.668" stroke="#F7931A" stroke-linecap="round" stroke-linejoin="round"/>
</g>
<path id="Vector_9" d="M44.2461 47.5195V64.818L39.2246 62.3072V50.4241L44.2461 47.5195Z" fill="#FFF2E2" stroke="#F7931A" stroke-linecap="round" stroke-linejoin="round"/>
<path id="Vector_10" d="M59.1937 33.1261C58.806 33.1753 52.7322 30.0369 49.2676 28.2215V27.4707L59.1937 33.1261Z" fill="#FFF2E2" stroke="#F7931A" stroke-linecap="round" stroke-linejoin="round"/>
</g>
</svg>
