<svg width="20" height="20" viewBox="0 0 20 20" fill="none" xmlns="http://www.w3.org/2000/svg">
<g id="Icon">
<g id="Bitcoin (BTC)">
<g id="Bitcoin Icon">
<path id="Vector" fill-rule="evenodd" clip-rule="evenodd" d="M0.0488281 3H20V16.5195H0.0488281V3Z" fill="#F7931A"/>
<path id="Vector_2" fill-rule="evenodd" clip-rule="evenodd" d="M10.112 6.47756C10.6416 6.47756 11.024 6.57988 11.2593 6.78454C11.4947 6.9892 11.6123 7.31401 11.6123 7.75898C11.6123 8.23958 11.5029 8.61268 11.284 8.87828C11.0664 9.14273 10.7264 9.27495 10.2639 9.27495C9.73439 9.27495 9.39369 9.26748 9.24181 9.25253V6.5293C9.35949 6.5155 9.50247 6.50343 9.67077 6.49308C9.83907 6.48273 9.98615 6.47756 10.112 6.47756ZM10.3891 10.0683C10.9528 10.0683 11.3647 10.1746 11.6247 10.3874C11.886 10.5989 12.0167 10.9519 12.0167 11.4463C12.0167 11.9694 11.8757 12.369 11.5939 12.6449C11.312 12.9197 10.8605 13.0571 10.2393 13.0571C9.7426 13.0571 9.41011 13.029 9.24181 12.9726V10.0907C9.54557 10.0758 9.928 10.0683 10.3891 10.0683ZM10.2003 5.77734C9.99915 5.77734 9.82265 5.78079 9.67077 5.78769C9.52026 5.79459 9.39438 5.80149 9.29312 5.80839C8.82244 5.83713 8.44411 5.8515 8.15814 5.8515H6.16525V6.59311L7.11141 6.74143V12.9088L6.14062 13.0244V13.7246H8.18277C8.53579 13.7246 8.86349 13.7349 9.16588 13.7556C9.25892 13.7556 9.4149 13.7608 9.63382 13.7711C9.85275 13.7826 10.0799 13.7884 10.3152 13.7884C11.7943 13.7884 12.8424 13.5693 13.4595 13.1313C14.078 12.6932 14.3872 12.0965 14.3872 11.3411C14.3872 10.7616 14.1457 10.3132 13.6627 9.99586C13.1797 9.67737 12.5175 9.51813 11.676 9.51813C12.2807 9.44684 12.7788 9.23816 13.1701 8.89208C13.5615 8.54599 13.7571 8.10793 13.7571 7.57789C13.7571 7.18237 13.6538 6.85411 13.4472 6.59311C13.242 6.33211 12.8787 6.1309 12.3574 5.98948C11.8361 5.84806 11.117 5.77734 10.2003 5.77734Z" fill="white"/>
<path id="Vector_3" fill-rule="evenodd" clip-rule="evenodd" d="M8.28516 4.11035H9.31633V5.93411H8.28516V4.11035Z" fill="white"/>
<path id="Vector_4" fill-rule="evenodd" clip-rule="evenodd" d="M10.1772 4.11035H11.2084V5.93411H10.1772V4.11035Z" fill="white"/>
<path id="Vector_5" fill-rule="evenodd" clip-rule="evenodd" d="M8.28516 13.71H9.31633V15.5337H8.28516V13.71Z" fill="white"/>
<path id="Vector_6" fill-rule="evenodd" clip-rule="evenodd" d="M10.1587 13.71H11.1899V15.5337H10.1587V13.71Z" fill="white"/>
<path id="Vector_7" fill-rule="evenodd" clip-rule="evenodd" d="M0.759277 3.81836H1.5731V6.58837H0.759277V3.81836Z" fill="white"/>
<path id="Vector_8" fill-rule="evenodd" clip-rule="evenodd" d="M0.752441 4.63218V3.81836H3.52245V4.63218H0.752441Z" fill="white"/>
<path id="Vector_9" fill-rule="evenodd" clip-rule="evenodd" d="M0.789062 15.7074V14.8936H3.55908V15.7074H0.789062Z" fill="white"/>
<path id="Vector_10" fill-rule="evenodd" clip-rule="evenodd" d="M1.60288 15.7143H0.789062V12.9443H1.60288V15.7143Z" fill="white"/>
<path id="Vector_11" fill-rule="evenodd" clip-rule="evenodd" d="M19.0667 15.6987H18.2529V12.9287H19.0667V15.6987Z" fill="white"/>
<path id="Vector_12" fill-rule="evenodd" clip-rule="evenodd" d="M19.0732 14.8848V15.6986H16.3032V14.8848H19.0732Z" fill="white"/>
<path id="Vector_13" fill-rule="evenodd" clip-rule="evenodd" d="M19.0435 3.82324V4.63706H16.2734V3.82324H19.0435Z" fill="white"/>
<path id="Vector_14" fill-rule="evenodd" clip-rule="evenodd" d="M18.2295 3.81641H19.0433V6.58642H18.2295V3.81641Z" fill="white"/>
</g>
</g>
</g>
</svg>
