<svg width="72" height="72" viewBox="0 0 72 72" fill="none" xmlns="http://www.w3.org/2000/svg">
<g id="Frame">
<path id="Vector" d="M61.3209 11.5025V16.4154L54.8954 20.1243V27.4998L52.4752 28.8975L50.6116 29.9684V22.599L49.9159 22.9983L49.22 23.4037L45.6321 25.4729L44.9363 25.8722L44.186 26.3079V21.3949L50.6116 17.68V10.3106L54.4717 8.07795L54.8954 7.83594V15.2114L61.3209 11.5025Z" fill="#FFF2E2" stroke="#F7931A" stroke-linecap="round" stroke-linejoin="round"/>
<path id="Vector_2" d="M61.3209 28.7019V48.3598L22.7676 70.6192V26.3846L32.781 20.6065L37.3431 17.9685L38.5108 17.2969L39.9024 16.4922V21.4051L38.5108 22.2098L37.3431 22.8814L27.0513 28.8229V63.2316L57.0371 45.9214V31.1766L61.3209 28.7019Z" fill="#FFF2E2" stroke="#F7931A" stroke-linecap="round" stroke-linejoin="round"/>
<path id="Vector_3" d="M50.6121 22.5977V29.9671L49.2204 29.2713L44.9367 27.1294L38.5112 23.9166V23.4689L38.9287 23.6746L44.1865 26.3066L44.9367 25.8709L45.6326 25.4716L49.2204 23.4024L49.9163 22.997L50.6121 22.5977Z" fill="#FFF2E2" stroke="#F7931A" stroke-linecap="round" stroke-linejoin="round"/>
<path id="Vector_4" d="M44.1857 21.3957V26.3087L38.9279 23.6768L38.5105 23.471L37.3428 22.8842L38.5105 22.2126L39.9021 21.4079V19.2539L42.7942 20.7L44.1857 21.3957Z" fill="#FFF2E2" stroke="#F7931A" stroke-linecap="round" stroke-linejoin="round"/>
<path id="Vector_5" d="M50.6117 17.6793L44.186 21.3942L42.7946 20.6985L39.9025 19.2524V16.4934L34.6445 13.8615L38.5108 11.6289L43.0728 13.9099L50.6117 17.6793Z" fill="#FFF2E2" stroke="#F7931A" stroke-linecap="round" stroke-linejoin="round"/>
<path id="Vector_6" d="M57.037 45.9215L27.0513 63.2317V50.1931L44.9362 39.8711L49.2199 42.0129L57.037 45.9215Z" fill="#FFF2E2" stroke="#F7931A" stroke-linecap="round" stroke-linejoin="round"/>
<path id="Vector_7" d="M61.3212 28.703L57.0375 31.1776L52.4756 28.8966L54.8958 27.499V25.4902L61.3212 28.703Z" fill="#FFF2E2" stroke="#F7931A" stroke-linecap="round" stroke-linejoin="round"/>
<path id="Vector_8" d="M61.3214 11.5018L54.896 15.2107V8.28906L61.3214 11.5018Z" fill="#FFF2E2" stroke="#F7931A" stroke-linecap="round" stroke-linejoin="round"/>
<path id="Vector_9" d="M54.8958 7.8356L54.4722 8.07761L50.6121 10.3102L49.2204 9.61442L45.3543 7.68433L42.795 6.40165L38.5112 4.2598L42.795 1.78516L54.8958 7.8356Z" fill="#FFF2E2" stroke="#F7931A" stroke-linecap="round" stroke-linejoin="round"/>
<path id="Vector_10" d="M50.6121 10.3102V17.6796L43.0732 13.9102L38.5112 11.6292V4.25977L42.795 6.40161L45.3543 7.6843L49.2204 9.61439L50.6121 10.3102Z" fill="#FFF2E2" stroke="#F7931A" stroke-linecap="round" stroke-linejoin="round"/>
<path id="Vector_11" d="M57.0369 31.1766V45.9215L49.2198 42.0129L44.936 39.8711V27.1289L49.2198 29.2708L50.6114 29.9666L52.475 28.8956L57.0369 31.1766Z" fill="#FFF2E2" stroke="#F7931A" stroke-linecap="round" stroke-linejoin="round"/>
<path id="Vector_12" d="M22.7678 26.3864V70.621L10.667 64.5706V20.3359L15.223 22.617L22.7678 26.3864Z" fill="#FFF2E2" stroke="#F7931A" stroke-linecap="round" stroke-linejoin="round"/>
<path id="Vector_13" d="M39.9027 16.4938L38.511 17.2985L37.3434 17.9701L32.7813 20.6081L22.7678 26.3862L15.223 22.6168L10.667 20.3357L27.8019 10.4434L34.6448 13.8618L39.9027 16.4938Z" fill="#FFF2E2" stroke="#F7931A" stroke-linecap="round" stroke-linejoin="round"/>
</g>
</svg>
