<svg width="216" height="216" viewBox="0 0 216 216" fill="none" xmlns="http://www.w3.org/2000/svg">
<g id="Frame">
<path id="Vector" d="M79.506 78.3007L91.926 65.8089L126.648 30.8167L153 26.9287L189 21.6367V76.1949C189 98.8569 183.132 122.851 171.36 148.195C159.606 173.557 144.702 194.041 126.648 209.683C113.616 213.445 102.222 212.779 92.484 207.685C88.722 205.723 85.212 203.113 81.936 199.837C80.136 198.037 78.462 196.093 76.968 194.041C68.508 182.665 64.296 167.383 64.296 148.195V93.6367L79.506 78.3007ZM103.266 169.525L117.774 161.137L150.03 142.525V97.7949L146.862 99.6127L142.236 102.295V93.3667C142.236 88.4347 140.706 85.1049 137.664 83.3769C134.604 81.6309 130.932 81.9909 126.648 84.4749C125.082 85.3749 123.588 86.4727 122.184 87.7687C121.158 88.6867 120.204 89.6949 119.286 90.8109C117.972 92.3769 116.766 94.1407 115.632 96.0847C115.038 97.1107 114.498 98.1547 114.03 99.1627C112.05 103.339 111.06 107.407 111.06 111.367V120.295L103.266 124.795V169.525Z" fill="#FFF2E2" stroke="#F7931A" stroke-linecap="round" stroke-linejoin="round"/>
<path id="Vector_2" d="M111.06 111.366V111.906L114.03 113.382L118.854 115.794V106.866C118.854 104.328 119.592 101.772 121.086 99.1976C122.364 96.9836 123.894 95.2736 125.694 94.0316C126 93.8156 126.324 93.6176 126.648 93.4196C128.646 92.2676 130.338 91.9796 131.76 92.5556L122.184 87.7676C121.158 88.6856 120.204 89.6938 119.286 90.8098C117.972 92.3758 116.766 94.1396 115.632 96.0836C115.038 97.1096 114.498 98.1536 114.03 99.1616C112.05 103.338 111.06 107.406 111.06 111.366Z" fill="#FFF2E2" stroke="#F7931A" stroke-linecap="round" stroke-linejoin="round"/>
<path id="Vector_3" d="M122.184 87.7672L131.76 92.5554L132.21 92.7714C133.704 93.6354 134.442 95.3272 134.442 97.8652V98.4054L142.236 102.293V93.3652C142.236 88.4332 140.706 85.1034 137.664 83.3754C134.604 81.6294 130.932 81.9894 126.648 84.4734C125.082 85.3734 123.588 86.4712 122.184 87.7672Z" fill="#FFF2E2" stroke="#F7931A" stroke-linecap="round" stroke-linejoin="round"/>
<path id="Vector_4" d="M118.854 106.866V115.794L134.442 106.794V97.8656C134.442 95.3276 133.704 93.6356 132.21 92.7716L131.76 92.5556C130.338 91.9796 128.646 92.2676 126.648 93.4196C126.324 93.6176 126 93.8156 125.694 94.0316C123.894 95.2736 122.364 96.9836 121.086 99.1976C119.592 101.772 118.854 104.328 118.854 106.866Z" fill="#FFF2E2" stroke="#F7931A" stroke-linecap="round" stroke-linejoin="round"/>
<path id="Vector_5" d="M103.266 130.733V169.523L117.774 161.135L150.03 142.523L114.03 124.523L103.266 130.733Z" fill="#FFF2E2" stroke="#F7931A" stroke-linecap="round" stroke-linejoin="round"/>
<path id="Vector_6" d="M114.03 113.383V124.525L150.03 142.525V97.7949L146.862 99.6127L142.236 102.295L134.442 98.4067V106.795L118.854 115.795L114.03 113.383Z" fill="#FFF2E2" stroke="#F7931A" stroke-linecap="round" stroke-linejoin="round"/>
<path id="Vector_7" d="M28.2959 75.6367V130.195C28.2959 152.857 34.1639 170.065 45.9359 181.837C49.6079 185.509 53.5859 188.353 57.8879 190.387L92.4839 207.685C88.7219 205.723 85.2119 203.113 81.9359 199.837C80.1359 198.037 78.4619 196.093 76.9679 194.041C68.5079 182.665 64.2959 167.383 64.2959 148.195V93.6367L28.2959 75.6367Z" fill="#FFF2E2" stroke="#F7931A" stroke-linecap="round" stroke-linejoin="round"/>
<path id="Vector_8" d="M28.2959 75.6364L64.2959 93.6364L79.506 78.3004L91.9259 65.8086L126.648 30.8164L90.6479 12.8164L28.2959 75.6364Z" fill="#FFF2E2" stroke="#F7931A" stroke-linecap="round" stroke-linejoin="round"/>
<path id="Vector_9" d="M90.648 12.8167L126.648 30.8167L153 26.9287L189 21.6367L153 3.63672L90.648 12.8167Z" fill="#FFF2E2" stroke="#F7931A" stroke-linecap="round" stroke-linejoin="round"/>
</g>
</svg>
