<svg width="200" height="117" viewBox="0 0 200 117" fill="none" xmlns="http://www.w3.org/2000/svg">
<path d="M75.6823 3.35413H65.6198V6.70829H75.6823V3.35413Z" fill="#F7931A"/>
<path d="M68.9739 13.4166L68.9739 3.35413L65.6197 3.35413L65.6197 13.4166L68.9739 13.4166Z" fill="#F7931A"/>
<path d="M75.6823 45.2812H65.6198V41.9271H75.6823V45.2812Z" fill="#F7931A"/>
<path d="M68.9739 35.2188L68.9739 45.2812L65.6197 45.2813L65.6197 35.2188L68.9739 35.2188Z" fill="#F7931A"/>
<path fill-rule="evenodd" clip-rule="evenodd" d="M103.309 10.1434C108.146 10.6209 111.939 12.0992 112.359 16.5027C112.645 19.7129 111.291 21.623 109.053 22.6995C112.666 23.6014 114.864 25.7217 114.41 30.4253C113.857 36.3208 109.447 37.852 103.141 38.1751L103.151 44.2617L99.4372 44.2665L99.4273 38.1799C99.0215 38.174 98.5972 38.18 98.1621 38.1863C97.5805 38.1946 96.9793 38.2032 96.377 38.1838L96.3869 44.2704L92.68 44.2751L92.6702 38.1886L85.2435 38.0418L85.8693 33.5936C85.8693 33.5936 88.6743 33.6554 88.6223 33.6232C89.6549 33.6177 89.9614 32.8855 90.0377 32.4047L90.0192 22.6478L90.0484 15.7035C89.9343 14.9796 89.4418 14.1111 87.9236 14.0848C88.0063 14.0106 85.2046 14.0883 85.2046 14.0883L85.1952 10.0103L92.8057 10.0005L92.796 4.03865L96.6301 4.03372L96.6397 9.99561C97.3799 9.97511 98.11 9.98098 98.8484 9.98691C99.0907 9.98885 99.3339 9.99081 99.5786 9.99184L99.5689 4.02995L103.299 4.02515L103.309 10.1434ZM96.1833 21.3606L96.3716 21.3687C98.6287 21.4671 105.321 21.7589 105.331 17.7014C105.321 13.8491 99.6254 13.9734 96.9791 14.0311C96.6665 14.0379 96.3964 14.0438 96.1833 14.0421V21.3606ZM96.4996 33.312C96.381 33.3072 96.2718 33.3027 96.1728 33.2989L96.1728 25.9805C96.4086 25.9827 96.7051 25.979 97.048 25.9747C100.176 25.9358 107.161 25.8488 107.128 29.7323C107.163 33.7493 99.2782 33.426 96.4996 33.312Z" fill="#F7931A"/>
<path d="M124.318 3.35413H134.38V6.70829H124.318V3.35413Z" fill="#F7931A"/>
<path d="M131.026 13.4166L131.026 3.35413L134.38 3.35413L134.38 13.4166L131.026 13.4166Z" fill="#F7931A"/>
<path d="M124.318 45.2812H134.38V41.9271H124.318V45.2812Z" fill="#F7931A"/>
<path d="M131.026 35.2188L131.026 45.2812L134.38 45.2813L134.38 35.2188L131.026 35.2188Z" fill="#F7931A"/>
<path d="M6.692 70.9474L2.756 70.3714V67.9714H9.236C10.324 67.9714 11.7 67.9074 13.364 67.7794C14.9 67.6514 16.036 67.5874 16.772 67.5874C21.188 67.5874 24.34 68.2754 26.228 69.6514C28.148 71.0274 29.108 73.0434 29.108 75.6994C29.108 77.9714 28.452 79.9234 27.14 81.5554C25.828 83.1874 24.036 84.2114 21.764 84.6274C24.836 84.5634 27.252 85.2834 29.012 86.7874C30.772 88.2914 31.652 90.3394 31.652 92.9314C31.652 96.1634 30.5 98.8034 28.196 100.851C25.924 102.899 22.148 103.923 16.868 103.923C15.716 103.923 14.612 103.875 13.556 103.779C11.06 103.683 9.572 103.635 9.092 103.635H2.708V101.283L6.692 100.803V70.9474ZM11.78 83.7154C12.228 83.7474 13.14 83.7634 14.516 83.7634H17.156C19.396 83.7634 21.092 83.1394 22.244 81.8914C23.396 80.6434 23.972 78.8674 23.972 76.5634C23.972 74.3234 23.396 72.6914 22.244 71.6674C21.092 70.6114 19.124 70.0834 16.34 70.0834C15.188 70.0834 14.004 70.1474 12.788 70.2754L11.78 70.3714V83.7154ZM11.78 100.947C12.516 101.203 14.18 101.331 16.772 101.331C20.004 101.331 22.34 100.675 23.78 99.3634C25.252 98.0194 25.988 96.0994 25.988 93.6034C25.988 91.1394 25.348 89.3474 24.068 88.2274C22.82 87.1074 20.788 86.5474 17.972 86.5474C14.708 86.5474 12.644 86.5794 11.78 86.6434V100.947ZM40.2234 72.1954C39.1994 72.1954 38.4314 71.9074 37.9194 71.3314C37.4074 70.7554 37.1514 70.0194 37.1514 69.1234C37.1514 68.0994 37.4554 67.2514 38.0634 66.5794C38.7034 65.9074 39.5674 65.5714 40.6554 65.5714C41.7434 65.5714 42.5434 65.8594 43.0554 66.4354C43.5674 67.0114 43.8234 67.7474 43.8234 68.6434C43.8234 69.7314 43.5034 70.5954 42.8634 71.2354C42.2554 71.8754 41.3914 72.1954 40.2714 72.1954H40.2234ZM38.3034 80.6914L34.6554 79.8274V77.2834L42.0954 76.3714H42.1914L43.2954 77.2354V100.899L47.1354 101.283V103.635H34.4154V101.283L38.3034 100.851V80.6914ZM57.7918 104.115C55.9678 104.115 54.6078 103.699 53.7118 102.867C52.8158 102.035 52.3678 100.611 52.3678 98.5954V80.1634H48.9118V78.0034C49.0718 77.9714 49.5198 77.8594 50.2558 77.6674C50.9918 77.4754 51.4878 77.2994 51.7438 77.1394C52.2558 76.8514 52.6558 76.2754 52.9438 75.4114C53.1998 74.8034 53.5038 73.8274 53.8558 72.4834C54.2078 71.1394 54.4158 70.3394 54.4798 70.0834H57.3118L57.4078 76.9954H65.4238V80.1634H57.4078V94.8994C57.4078 96.7234 57.4558 98.0034 57.5518 98.7394C57.6798 99.4754 57.9198 99.9554 58.2718 100.179C58.6558 100.403 59.2958 100.515 60.1918 100.515C61.0558 100.515 61.9998 100.403 63.0238 100.179C64.0798 99.9554 64.8958 99.7154 65.4718 99.4594L66.1918 101.619C65.4238 102.195 64.1758 102.755 62.4478 103.299C60.7518 103.843 59.1998 104.115 57.7918 104.115ZM67.5946 90.4834C67.5946 87.8274 68.1066 85.4274 69.1306 83.2834C70.1866 81.1394 71.7226 79.4434 73.7386 78.1954C75.7866 76.9154 78.2346 76.2754 81.0826 76.2754C82.4586 76.2754 83.6426 76.4034 84.6346 76.6594C85.6266 76.9154 86.8106 77.2674 88.1866 77.7154L87.9946 85.1074H84.8746L83.8186 80.2114C83.6266 79.3154 82.4106 78.8674 80.1706 78.8674C77.9306 78.8674 76.1546 79.7794 74.8426 81.6034C73.5626 83.3954 72.9226 85.9554 72.9226 89.2834C72.9226 93.0594 73.6426 95.9394 75.0826 97.9234C76.5546 99.8754 78.4586 100.851 80.7946 100.851C82.1386 100.851 83.4026 100.643 84.5866 100.227C85.8026 99.8114 86.8426 99.3154 87.7066 98.7394L88.6186 100.659C87.7546 101.555 86.4746 102.371 84.7786 103.107C83.1146 103.811 81.4186 104.163 79.6906 104.163C77.0666 104.163 74.8426 103.571 73.0186 102.387C71.2266 101.203 69.8666 99.5874 68.9386 97.5394C68.0426 95.4594 67.5946 93.1074 67.5946 90.4834ZM91.916 101.283L95.516 100.995V80.6914L92.06 79.8274V77.2354L98.684 76.3714H98.78L99.836 77.2354V78.0994L99.692 81.8434H99.836C100.156 81.2994 100.732 80.5954 101.564 79.7314C102.396 78.8674 103.468 78.0834 104.78 77.3794C106.092 76.6434 107.516 76.2754 109.052 76.2754C109.692 76.2754 110.22 76.3554 110.636 76.5154V81.8914C110.412 81.7314 110.044 81.5874 109.532 81.4594C109.052 81.2994 108.508 81.2194 107.9 81.2194C105.244 81.2194 102.78 82.0354 100.508 83.6674V100.947L106.604 101.331V103.635H91.916V101.283ZM124.652 104.163C120.78 104.163 117.82 102.899 115.772 100.371C113.756 97.8434 112.748 94.4674 112.748 90.2434C112.748 87.4594 113.276 85.0114 114.332 82.8994C115.388 80.7874 116.86 79.1554 118.748 78.0034C120.668 76.8514 122.844 76.2754 125.276 76.2754C128.252 76.2754 130.556 77.1074 132.188 78.7714C133.852 80.4034 134.732 82.7554 134.828 85.8274C134.828 87.7794 134.716 89.2674 134.492 90.2914H117.98C118.044 93.4594 118.78 96.0194 120.188 97.9714C121.596 99.8914 123.596 100.851 126.188 100.851C127.468 100.851 128.796 100.627 130.172 100.179C131.58 99.6994 132.668 99.1394 133.436 98.4994L134.348 100.611C133.42 101.571 132.044 102.403 130.22 103.107C128.396 103.811 126.54 104.163 124.652 104.163ZM129.548 87.7474C129.644 87.0754 129.692 86.3874 129.692 85.6834C129.66 83.6034 129.212 81.9714 128.348 80.7874C127.516 79.5714 126.188 78.9634 124.364 78.9634C122.508 78.9634 121.02 79.6354 119.9 80.9794C118.812 82.3234 118.188 84.5794 118.028 87.7474H129.548ZM148.362 104.163C146.442 104.163 144.682 103.683 143.082 102.723C141.482 101.763 140.202 100.291 139.242 98.3074C138.314 96.3234 137.85 93.8754 137.85 90.9634C137.85 88.2434 138.41 85.7634 139.53 83.5234C140.65 81.2834 142.25 79.5234 144.33 78.2434C146.442 76.9314 148.922 76.2754 151.77 76.2754C153.402 76.2754 154.89 76.4514 156.234 76.8034V67.8274L151.338 67.2514V65.1874L159.978 64.3234H160.122L161.178 65.0914V101.187H163.962V103.395C162.938 103.619 162.042 103.795 161.274 103.923C160.538 104.051 159.754 104.115 158.922 104.115C158.09 104.115 157.498 103.971 157.146 103.683C156.794 103.395 156.618 102.787 156.618 101.859V100.323C155.722 101.411 154.538 102.323 153.066 103.059C151.626 103.795 150.058 104.163 148.362 104.163ZM150.282 100.755C151.53 100.755 152.698 100.483 153.786 99.9394C154.874 99.3634 155.69 98.7074 156.234 97.9714V80.4034C155.978 80.0194 155.37 79.6834 154.41 79.3954C153.482 79.0754 152.49 78.9154 151.434 78.9154C148.938 78.9154 146.938 79.8754 145.434 81.7954C143.962 83.6834 143.226 86.6114 143.226 90.5794C143.226 94.0354 143.882 96.5954 145.194 98.2594C146.506 99.9234 148.202 100.755 150.282 100.755ZM172.51 72.1954C171.486 72.1954 170.718 71.9074 170.206 71.3314C169.694 70.7554 169.438 70.0194 169.438 69.1234C169.438 68.0994 169.742 67.2514 170.35 66.5794C170.99 65.9074 171.854 65.5714 172.942 65.5714C174.03 65.5714 174.83 65.8594 175.342 66.4354C175.854 67.0114 176.11 67.7474 176.11 68.6434C176.11 69.7314 175.79 70.5954 175.15 71.2354C174.542 71.8754 173.678 72.1954 172.558 72.1954H172.51ZM170.59 80.6914L166.942 79.8274V77.2834L174.382 76.3714H174.478L175.582 77.2354V100.899L179.422 101.283V103.635H166.702V101.283L170.59 100.851V80.6914ZM190.079 104.115C188.255 104.115 186.895 103.699 185.999 102.867C185.103 102.035 184.655 100.611 184.655 98.5954V80.1634H181.199V78.0034C181.359 77.9714 181.807 77.8594 182.543 77.6674C183.279 77.4754 183.775 77.2994 184.031 77.1394C184.543 76.8514 184.943 76.2754 185.231 75.4114C185.487 74.8034 185.791 73.8274 186.143 72.4834C186.495 71.1394 186.703 70.3394 186.767 70.0834H189.599L189.695 76.9954H197.711V80.1634H189.695V94.8994C189.695 96.7234 189.743 98.0034 189.839 98.7394C189.967 99.4754 190.207 99.9554 190.559 100.179C190.943 100.403 191.583 100.515 192.479 100.515C193.343 100.515 194.287 100.403 195.311 100.179C196.367 99.9554 197.183 99.7154 197.759 99.4594L198.479 101.619C197.711 102.195 196.463 102.755 194.735 103.299C193.039 103.843 191.487 104.115 190.079 104.115Z" fill="#18181B"/>
</svg>
