<svg width="152" height="228" viewBox="0 0 152 228" fill="none" xmlns="http://www.w3.org/2000/svg">
<g filter="url(#filter0_bi_2033_3313)">
<circle cx="122.5" cy="29.5" r="21.5955" transform="rotate(30 122.5 29.5)" fill="url(#paint0_linear_2033_3313)" fill-opacity="0.8"/>
</g>
<g filter="url(#filter1_bi_2033_3313)">
<circle cx="57.3731" cy="170.373" r="42" transform="rotate(-30 57.3731 170.373)" fill="url(#paint1_linear_2033_3313)" fill-opacity="0.8"/>
</g>
<g filter="url(#filter2_bi_2033_3313)">
<circle cx="122.5" cy="29.5008" r="16.9679" transform="rotate(30 122.5 29.5008)" fill="url(#paint2_linear_2033_3313)"/>
</g>
<g filter="url(#filter3_bi_2033_3313)">
<circle cx="57.3738" cy="170.374" r="33" transform="rotate(-30 57.3738 170.374)" fill="url(#paint3_linear_2033_3313)"/>
</g>
<path fill-rule="evenodd" clip-rule="evenodd" d="M124.127 23.9014C126.081 24.0966 127.613 24.7009 127.783 26.5011C127.899 27.8134 127.352 28.5942 126.448 29.0342C127.907 29.4029 128.795 30.2697 128.612 32.1925C128.388 34.6025 126.607 35.2284 124.059 35.3605L124.063 37.8486L122.563 37.8506L122.559 35.3624C122.395 35.36 122.224 35.3625 122.048 35.365C121.813 35.3685 121.57 35.372 121.327 35.364L121.331 37.8522L119.833 37.8541L119.829 35.366L116.829 35.306L117.082 33.4876C117.082 33.4876 118.215 33.5129 118.194 33.4997C118.611 33.4975 118.735 33.1982 118.766 33.0016L118.758 29.0131L118.77 26.1743C118.724 25.8785 118.525 25.5234 117.912 25.5126C117.945 25.4823 116.813 25.5141 116.813 25.5141L116.81 23.8471L119.884 23.8431L119.88 21.4059L121.429 21.4039L121.433 23.841C121.732 23.8327 122.027 23.8351 122.325 23.8375C122.423 23.8383 122.521 23.8391 122.62 23.8395L122.616 21.4024L124.123 21.4004L124.127 23.9014ZM121.249 28.4869L121.325 28.4902C122.236 28.5305 124.94 28.6497 124.944 26.9911C124.94 25.4163 122.639 25.4671 121.57 25.4907C121.444 25.4935 121.335 25.4959 121.249 25.4952V28.4869ZM121.376 33.3725C121.328 33.3705 121.284 33.3687 121.244 33.3672L121.244 30.3755C121.34 30.3764 121.459 30.3749 121.598 30.3731C122.861 30.3572 125.683 30.3216 125.67 31.9092C125.684 33.5513 122.499 33.4191 121.376 33.3725Z" fill="white"/>
<path fill-rule="evenodd" clip-rule="evenodd" d="M54.6034 159.112C58.0842 157.541 61.2526 157.069 63.2891 159.935C64.7594 162.034 64.5978 163.881 63.503 165.501C66.32 164.702 68.6583 165.299 70.219 168.716C72.1864 172.992 69.7941 175.779 65.632 178.479L68.0582 182.665L65.5333 184.128L63.107 179.941C62.8286 180.096 62.5423 180.267 62.2487 180.442C61.8563 180.676 61.4507 180.919 61.0332 181.142L63.4594 185.329L60.939 186.788L58.5128 182.601L53.4012 185.418L52.0588 182.109C52.0588 182.109 53.9919 181.05 53.9437 181.048C54.6441 180.639 54.5616 180.014 54.4225 179.653L50.5313 172.943L47.7907 168.15C47.4254 167.696 46.745 167.292 45.7015 167.87C45.7283 167.786 43.8528 168.941 43.8528 168.941L42.2254 166.137L47.3998 163.14L45.0233 159.039L47.6301 157.529L50.0066 161.631C50.5021 161.326 51.0012 161.043 51.506 160.757C51.6716 160.663 51.8379 160.569 52.0048 160.473L49.6283 156.372L52.1646 154.904L54.6034 159.112ZM54.2139 169.635L54.3452 169.566C55.9201 168.747 60.5897 166.319 58.9838 163.522C57.4454 160.873 53.6194 163.196 51.8417 164.276C51.6317 164.403 51.4503 164.513 51.3047 164.596L54.2139 169.635ZM59.1799 177.739C59.0973 177.783 59.0212 177.822 58.9524 177.859L56.0432 172.82C56.2045 172.729 56.4048 172.61 56.6364 172.472C58.7489 171.217 63.4675 168.412 64.9888 171.099C66.6096 173.851 61.1159 176.726 59.1799 177.739Z" fill="white"/>
<defs>
<filter id="filter0_bi_2033_3313" x="80.9009" y="-12.0996" width="83.1982" height="83.1992" filterUnits="userSpaceOnUse" color-interpolation-filters="sRGB">
<feFlood flood-opacity="0" result="BackgroundImageFix"/>
<feGaussianBlur in="BackgroundImageFix" stdDeviation="10"/>
<feComposite in2="SourceAlpha" operator="in" result="effect1_backgroundBlur_2033_3313"/>
<feBlend mode="normal" in="SourceGraphic" in2="effect1_backgroundBlur_2033_3313" result="shape"/>
<feColorMatrix in="SourceAlpha" type="matrix" values="0 0 0 0 0 0 0 0 0 0 0 0 0 0 0 0 0 0 127 0" result="hardAlpha"/>
<feOffset dx="5" dy="5"/>
<feGaussianBlur stdDeviation="10"/>
<feComposite in2="hardAlpha" operator="arithmetic" k2="-1" k3="1"/>
<feColorMatrix type="matrix" values="0 0 0 0 1 0 0 0 0 1 0 0 0 0 1 0 0 0 0.2 0"/>
<feBlend mode="normal" in2="shape" result="effect2_innerShadow_2033_3313"/>
</filter>
<filter id="filter1_bi_2033_3313" x="-4.63379" y="108.365" width="124.014" height="124.016" filterUnits="userSpaceOnUse" color-interpolation-filters="sRGB">
<feFlood flood-opacity="0" result="BackgroundImageFix"/>
<feGaussianBlur in="BackgroundImageFix" stdDeviation="10"/>
<feComposite in2="SourceAlpha" operator="in" result="effect1_backgroundBlur_2033_3313"/>
<feBlend mode="normal" in="SourceGraphic" in2="effect1_backgroundBlur_2033_3313" result="shape"/>
<feColorMatrix in="SourceAlpha" type="matrix" values="0 0 0 0 0 0 0 0 0 0 0 0 0 0 0 0 0 0 127 0" result="hardAlpha"/>
<feOffset dx="5" dy="5"/>
<feGaussianBlur stdDeviation="10"/>
<feComposite in2="hardAlpha" operator="arithmetic" k2="-1" k3="1"/>
<feColorMatrix type="matrix" values="0 0 0 0 1 0 0 0 0 1 0 0 0 0 1 0 0 0 0.2 0"/>
<feBlend mode="normal" in2="shape" result="effect2_innerShadow_2033_3313"/>
</filter>
<filter id="filter2_bi_2033_3313" x="85.5288" y="-7.4707" width="73.9419" height="73.9414" filterUnits="userSpaceOnUse" color-interpolation-filters="sRGB">
<feFlood flood-opacity="0" result="BackgroundImageFix"/>
<feGaussianBlur in="BackgroundImageFix" stdDeviation="10"/>
<feComposite in2="SourceAlpha" operator="in" result="effect1_backgroundBlur_2033_3313"/>
<feBlend mode="normal" in="SourceGraphic" in2="effect1_backgroundBlur_2033_3313" result="shape"/>
<feColorMatrix in="SourceAlpha" type="matrix" values="0 0 0 0 0 0 0 0 0 0 0 0 0 0 0 0 0 0 127 0" result="hardAlpha"/>
<feOffset dx="5" dy="5"/>
<feGaussianBlur stdDeviation="10"/>
<feComposite in2="hardAlpha" operator="arithmetic" k2="-1" k3="1"/>
<feColorMatrix type="matrix" values="0 0 0 0 1 0 0 0 0 1 0 0 0 0 1 0 0 0 0.2 0"/>
<feBlend mode="normal" in2="shape" result="effect2_innerShadow_2033_3313"/>
</filter>
<filter id="filter3_bi_2033_3313" x="4.36816" y="117.369" width="106.011" height="106.01" filterUnits="userSpaceOnUse" color-interpolation-filters="sRGB">
<feFlood flood-opacity="0" result="BackgroundImageFix"/>
<feGaussianBlur in="BackgroundImageFix" stdDeviation="10"/>
<feComposite in2="SourceAlpha" operator="in" result="effect1_backgroundBlur_2033_3313"/>
<feBlend mode="normal" in="SourceGraphic" in2="effect1_backgroundBlur_2033_3313" result="shape"/>
<feColorMatrix in="SourceAlpha" type="matrix" values="0 0 0 0 0 0 0 0 0 0 0 0 0 0 0 0 0 0 127 0" result="hardAlpha"/>
<feOffset dx="5" dy="5"/>
<feGaussianBlur stdDeviation="10"/>
<feComposite in2="hardAlpha" operator="arithmetic" k2="-1" k3="1"/>
<feColorMatrix type="matrix" values="0 0 0 0 1 0 0 0 0 1 0 0 0 0 1 0 0 0 0.2 0"/>
<feBlend mode="normal" in2="shape" result="effect2_innerShadow_2033_3313"/>
</filter>
<linearGradient id="paint0_linear_2033_3313" x1="112.371" y1="55.0163" x2="100.859" y2="2.72192" gradientUnits="userSpaceOnUse">
<stop offset="0.025" stop-color="#1E1000"/>
<stop offset="0.470035" stop-color="white" stop-opacity="0.2"/>
<stop offset="0.878306" stop-color="#F7931A"/>
</linearGradient>
<linearGradient id="paint1_linear_2033_3313" x1="37.6734" y1="219.998" x2="15.2838" y2="118.294" gradientUnits="userSpaceOnUse">
<stop offset="0.025" stop-color="#1E1000"/>
<stop offset="0.470035" stop-color="white" stop-opacity="0.2"/>
<stop offset="0.878306" stop-color="#F7931A"/>
</linearGradient>
<linearGradient id="paint2_linear_2033_3313" x1="114.787" y1="46.4687" x2="111.62" y2="5.48595" gradientUnits="userSpaceOnUse">
<stop offset="0.025" stop-color="#542E00"/>
<stop offset="0.470035" stop-color="white" stop-opacity="0.4"/>
<stop offset="0.878306" stop-color="#F7931A"/>
</linearGradient>
<linearGradient id="paint3_linear_2033_3313" x1="42.3738" y1="203.374" x2="36.2137" y2="123.668" gradientUnits="userSpaceOnUse">
<stop offset="0.025" stop-color="#542E00"/>
<stop offset="0.470035" stop-color="white" stop-opacity="0.4"/>
<stop offset="0.878306" stop-color="#F7931A"/>
</linearGradient>
</defs>
</svg>
