<svg width="120" height="20" viewBox="0 0 120 20" fill="none" xmlns="http://www.w3.org/2000/svg">
<path fill-rule="evenodd" clip-rule="evenodd" d="M25.7788 1.59485H29.105V4.78587H30.7682L30.7682 1.59485V0H25.7788V1.59485ZM4.98936 1.65643H1.66313V4.84746H7.62939e-06L0 1.65643V0.0615997H4.98936V1.65643ZM1.66313 15.215V18.4037H4.98937V19.9986H1.66313V19.9996H7.62939e-06L0 19.9986L7.62939e-06 18.4037V15.215H1.66313ZM17.0252 3.2906C19.4234 3.51764 21.304 4.22054 21.5125 6.31433C21.654 7.84074 20.9829 8.74896 19.8732 9.2608C21.6648 9.68962 22.7546 10.6978 22.5294 12.9343C22.2552 15.7375 20.0683 16.4655 16.9417 16.6192L16.9466 19.5132L15.1053 19.5155L15.1004 16.6214C14.8992 16.6186 14.6888 16.6215 14.4731 16.6245C14.1847 16.6284 13.8866 16.6325 13.588 16.6233L13.5929 19.5173L11.7549 19.5196L11.75 16.6256L8.06752 16.5558L8.37785 14.4407C8.37785 14.4407 9.76863 14.4701 9.74285 14.4548C10.2549 14.4522 10.4068 14.104 10.4447 13.8755L10.4355 9.23621L10.45 5.93433C10.3934 5.59015 10.1492 5.1772 9.39644 5.16466C9.43744 5.12941 8.04824 5.16632 8.04824 5.16632L8.04358 3.22734L11.8171 3.22269L11.8123 0.387924L13.7134 0.385574L13.7182 3.22035C14.0852 3.2106 14.4472 3.21338 14.8133 3.2162H14.8135C14.9336 3.21713 15.0541 3.21806 15.1754 3.21855L15.1706 0.383789L17.0203 0.3815L17.0252 3.2906ZM13.4919 8.62418L13.5853 8.62802C14.7044 8.67482 18.0228 8.81357 18.0279 6.88428C18.0227 5.0526 15.1986 5.11169 13.8865 5.13914C13.7315 5.1424 13.5976 5.1452 13.4919 5.14439V8.62418ZM13.5544 14.3032L13.4867 14.3006L13.4867 10.8208C13.6035 10.8219 13.7504 10.8201 13.9203 10.8181H13.9206C15.4714 10.7996 18.9351 10.7582 18.9187 12.6048C18.9362 14.5148 15.0265 14.361 13.6487 14.3069L13.5544 14.3032ZM29.105 18.4037V15.215H30.7682V18.4037L30.7682 19.9986L30.7682 19.9996H29.105V19.9986H25.7788V18.4037H29.105ZM98.7295 18.4604C97.9147 18.4604 97.1679 18.2565 96.4889 17.8488C95.81 17.441 95.2668 16.8157 94.8594 15.973C94.4656 15.1303 94.2687 14.0904 94.2687 12.8535C94.2687 11.6982 94.5064 10.6447 94.9816 9.69327C95.4569 8.74181 96.1359 7.99422 97.0185 7.45052C97.9147 6.89322 98.9671 6.61458 100.176 6.61458C100.868 6.61458 101.5 6.68933 102.07 6.83885V3.02615L99.9923 2.78149V1.90479L103.659 1.53778H103.72L104.168 1.864V17.1963H105.349V18.1342C104.915 18.2294 104.535 18.3041 104.209 18.3585C103.896 18.4129 103.564 18.44 103.211 18.44C102.858 18.44 102.606 18.3789 102.457 18.2565C102.308 18.1342 102.233 17.8759 102.233 17.4818V16.8293C101.853 17.2915 101.35 17.6789 100.726 17.9915C100.115 18.3041 99.4492 18.4604 98.7295 18.4604ZM99.5442 17.0128C100.074 17.0128 100.569 16.8973 101.031 16.6662C101.493 16.4216 101.839 16.1429 102.07 15.8303V8.36801C101.961 8.2049 101.703 8.06218 101.296 7.93985C100.902 7.80392 100.481 7.73596 100.033 7.73596C98.9739 7.73596 98.1252 8.14374 97.487 8.95927C96.8624 9.76123 96.55 11.0049 96.55 12.6904C96.55 14.1584 96.8284 15.2458 97.3851 15.9526C97.9419 16.6594 98.6616 17.0128 99.5442 17.0128ZM107.999 4.51326C108.216 4.75792 108.542 4.88026 108.977 4.88026H108.997C109.473 4.88026 109.839 4.74434 110.097 4.47249C110.369 4.20064 110.505 3.83363 110.505 3.37149C110.505 2.99091 110.396 2.67827 110.179 2.43361C109.961 2.18895 109.622 2.06662 109.16 2.06662C108.699 2.06662 108.332 2.20934 108.06 2.49478C107.802 2.78021 107.673 3.14043 107.673 3.57538C107.673 3.95596 107.782 4.2686 107.999 4.51326ZM106.614 8.12207L108.162 8.48906V17.0523L106.512 17.2358V18.2349H111.91V17.2358L110.28 17.0727V7.02107L109.812 6.65408H109.771L106.614 7.04146V8.12207ZM114.701 17.9121C115.081 18.2655 115.658 18.4422 116.432 18.4422C117.029 18.4422 117.688 18.3267 118.408 18.0956C119.141 17.8646 119.671 17.6267 119.996 17.382L119.691 16.4645C119.446 16.5733 119.1 16.6752 118.652 16.7704C118.218 16.8655 117.817 16.9131 117.45 16.9131C117.07 16.9131 116.799 16.8655 116.636 16.7704C116.486 16.6752 116.384 16.4713 116.33 16.1587C116.289 15.8461 116.269 15.3024 116.269 14.5276V8.26826H119.671V6.92262H116.269L116.228 3.98663H115.026C115.013 4.04056 114.985 4.15129 114.941 4.31885L114.863 4.6179L114.762 5.00607C114.612 5.57697 114.483 5.99153 114.375 6.24979C114.252 6.61679 114.083 6.86145 113.865 6.98378C113.757 7.05174 113.546 7.1265 113.234 7.20805C112.922 7.28961 112.732 7.33719 112.664 7.35078V8.26826H114.13V16.0975C114.13 16.9539 114.32 17.5587 114.701 17.9121ZM84.9002 16.8509C85.7692 17.9247 87.0253 18.4616 88.6684 18.4616C89.4695 18.4616 90.2571 18.3121 91.0311 18.0131C91.8051 17.7141 92.3891 17.3606 92.7829 16.9529L92.3958 16.0558C92.0699 16.3276 91.6083 16.5655 91.0108 16.7694C90.4269 16.9597 89.8633 17.0548 89.3202 17.0548C88.2203 17.0548 87.3716 16.647 86.7741 15.8315C86.1766 15.0023 85.8643 13.9149 85.8371 12.5693H92.8439C92.939 12.1343 92.9865 11.5023 92.9865 10.6731C92.9458 9.36826 92.5724 8.36922 91.8663 7.67599C91.1737 6.96918 90.196 6.61578 88.9332 6.61578C87.9012 6.61578 86.9778 6.86044 86.163 7.34978C85.3619 7.8391 84.7372 8.53232 84.2891 9.42943C83.841 10.3265 83.617 11.3663 83.617 12.5489C83.617 14.3431 84.0447 15.7771 84.9002 16.8509ZM90.8071 10.612C90.8071 10.911 90.7867 11.2032 90.746 11.4887H85.8575C85.9254 10.143 86.1902 9.18475 86.6519 8.61388C87.1272 8.04298 87.7586 7.75755 88.5462 7.75755C89.3202 7.75755 89.8837 8.01581 90.2368 8.53232C90.6034 9.03525 90.7935 9.72845 90.8071 10.612ZM74.777 17.2383L76.3047 17.116V8.49155L74.8382 8.12454V7.02356L77.649 6.65656H77.6898L78.1379 7.02356V7.39055L78.0768 8.98087H78.1379C78.2737 8.7498 78.5181 8.45076 78.8711 8.08377C79.2242 7.71677 79.6791 7.38376 80.2358 7.08472C80.7926 6.77209 81.3969 6.61578 82.0486 6.61578C82.3202 6.61578 82.5443 6.64977 82.7208 6.71773V9.00127C82.6258 8.9333 82.4696 8.87213 82.2523 8.81776C82.0486 8.7498 81.8178 8.71582 81.5598 8.71582C80.4327 8.71582 79.3871 9.06242 78.423 9.75565V17.0956L81.0098 17.2587V18.2374H74.777V17.2383ZM65.1083 9.59253C64.6738 10.5032 64.4565 11.5227 64.4565 12.6508C64.4565 13.7654 64.6466 14.7645 65.0269 15.648C65.4207 16.5179 65.9978 17.2043 66.7582 17.7072C67.5322 18.2102 68.476 18.4616 69.5894 18.4616C70.3227 18.4616 71.0424 18.3121 71.7485 18.0131C72.4682 17.7005 73.0114 17.3539 73.378 16.9733L72.991 16.1577C72.6244 16.4024 72.183 16.6131 71.667 16.7897C71.1646 16.9665 70.6282 17.0548 70.0579 17.0548C69.0666 17.0548 68.2587 16.6402 67.634 15.8111C67.023 14.9684 66.7175 13.745 66.7175 12.1411C66.7175 10.7275 66.989 9.64011 67.5322 8.87892C68.0889 8.10416 68.8426 7.71677 69.7931 7.71677C70.7437 7.71677 71.2597 7.90706 71.3411 8.28766L71.7892 10.3673H73.1132L73.1947 7.22745C72.6108 7.03714 72.1084 6.88763 71.6874 6.77888C71.2664 6.67015 70.764 6.61578 70.1801 6.61578C68.9716 6.61578 67.9328 6.88763 67.0637 7.43132C66.2082 7.96144 65.5564 8.68184 65.1083 9.59253ZM60.296 18.4422C59.522 18.4422 58.9449 18.2655 58.5647 17.9121C58.1845 17.5587 57.9943 16.9539 57.9943 16.0975V8.26826H56.5278V7.35078C56.5957 7.33719 56.7858 7.28961 57.0981 7.20805C57.4104 7.1265 57.6209 7.05174 57.7296 6.98378C57.9468 6.86145 58.1166 6.61679 58.2388 6.24979C58.3474 5.99153 58.4764 5.57697 58.6258 5.00607C58.7751 4.4352 58.8634 4.09538 58.8906 3.98663H60.0923L60.133 6.92262H63.5346V8.26826H60.133V14.5276C60.133 15.3024 60.1534 15.8461 60.1942 16.1587C60.2485 16.4713 60.3503 16.6752 60.4997 16.7704C60.6626 16.8655 60.9342 16.9131 61.3144 16.9131C61.6811 16.9131 62.0816 16.8655 62.5162 16.7704C62.9643 16.6752 63.3106 16.5733 63.555 16.4645L63.8605 17.382C63.5346 17.6267 63.005 17.8646 62.2718 18.0956C61.5521 18.3267 60.8935 18.4422 60.296 18.4422ZM51.864 4.51326C52.0813 4.75792 52.4072 4.88026 52.8417 4.88026H52.8621C53.3374 4.88026 53.704 4.74434 53.962 4.47249C54.2336 4.20064 54.3694 3.83363 54.3694 3.37149C54.3694 2.99091 54.2607 2.67827 54.0435 2.43361C53.8262 2.18895 53.4867 2.06662 53.025 2.06662C52.5634 2.06662 52.1967 2.20934 51.9251 2.49478C51.6671 2.78021 51.5381 3.14043 51.5381 3.57538C51.5381 3.95596 51.6468 4.2686 51.864 4.51326ZM50.479 8.12207L52.027 8.48906V17.0523L50.3771 17.2358V18.2349H55.7748V17.2358L54.1453 17.0727V7.02107L53.6768 6.65408H53.6361L50.479 7.04146V8.12207ZM38.6125 4.35017L36.9423 4.10551V3.08607H39.6921C40.1537 3.08607 40.7377 3.05888 41.4438 3.00452C42.0956 2.95015 42.5776 2.92296 42.8899 2.92296C44.7639 2.92296 46.1014 3.21519 46.9026 3.79968C47.7173 4.38416 48.1247 5.24048 48.1247 6.36865C48.1247 7.33372 47.8463 8.16287 47.2896 8.85608C46.7328 9.5493 45.9724 9.98425 45.0083 10.161C46.3119 10.1338 47.3371 10.4396 48.0839 11.0785C48.8308 11.7173 49.2042 12.5872 49.2042 13.6882C49.2042 15.0611 48.7154 16.1824 47.7377 17.0524C46.7736 17.9223 45.1712 18.3572 42.9307 18.3572C42.4418 18.3572 41.9734 18.3368 41.5252 18.2961C40.4661 18.2553 39.8346 18.2349 39.631 18.2349H36.9219V17.2359L38.6125 17.032V4.35017ZM40.7716 9.77357C40.9617 9.78717 41.3487 9.79396 41.9326 9.79396H43.0529C44.0034 9.79396 44.7231 9.52892 45.212 8.99881C45.7008 8.4687 45.9452 7.71431 45.9452 6.73566C45.9452 5.78418 45.7008 5.09096 45.212 4.65601C44.7231 4.20746 43.888 3.98317 42.7066 3.98317C42.2178 3.98317 41.7153 4.01036 41.1993 4.06473L40.7716 4.10551V9.77357ZM40.7716 17.0931C41.0839 17.2019 41.79 17.2562 42.8899 17.2562C44.2614 17.2562 45.2527 16.9776 45.8638 16.4203C46.4884 15.8494 46.8007 15.0339 46.8007 13.9736C46.8007 12.927 46.5291 12.1658 45.986 11.6901C45.4564 11.2144 44.5941 10.9765 43.3992 10.9765C42.0141 10.9765 41.1382 10.9901 40.7716 11.0173V17.0931Z" fill="#1B0F00"/>
</svg>
