<svg xmlns="http://www.w3.org/2000/svg" width="164" height="164" viewBox="0 0 164 164" fill="none">
  <g clip-path="url(#clip0_3256_19675)">
    <path d="M164 0H0V164H164V0Z" fill="#F2EDDF"/>
    <path d="M26.1379 22H22V26.1379H26.1379V22Z" fill="black"/>
    <path d="M30.2759 22H26.1379V26.1379H30.2759V22Z" fill="black"/>
    <path d="M34.4138 22H30.2759V26.1379H34.4138V22Z" fill="black"/>
    <path d="M38.5517 22H34.4138V26.1379H38.5517V22Z" fill="black"/>
    <path d="M42.6897 22H38.5517V26.1379H42.6897V22Z" fill="black"/>
    <path d="M46.8276 22H42.6897V26.1379H46.8276V22Z" fill="black"/>
    <path d="M50.9655 22H46.8276V26.1379H50.9655V22Z" fill="black"/>
    <path d="M59.2414 22H55.1035V26.1379H59.2414V22Z" fill="black"/>
    <path d="M67.5172 22H63.3793V26.1379H67.5172V22Z" fill="black"/>
    <path d="M71.6552 22H67.5172V26.1379H71.6552V22Z" fill="black"/>
    <path d="M92.3448 22H88.2069V26.1379H92.3448V22Z" fill="black"/>
    <path d="M96.4828 22H92.3448V26.1379H96.4828V22Z" fill="black"/>
    <path d="M100.621 22H96.4828V26.1379H100.621V22Z" fill="black"/>
    <path d="M104.759 22H100.621V26.1379H104.759V22Z" fill="black"/>
    <path d="M108.897 22H104.759V26.1379H108.897V22Z" fill="black"/>
    <path d="M117.172 22H113.034V26.1379H117.172V22Z" fill="black"/>
    <path d="M121.31 22H117.172V26.1379H121.31V22Z" fill="black"/>
    <path d="M125.448 22H121.31V26.1379H125.448V22Z" fill="black"/>
    <path d="M129.586 22H125.448V26.1379H129.586V22Z" fill="black"/>
    <path d="M133.724 22H129.586V26.1379H133.724V22Z" fill="black"/>
    <path d="M137.862 22H133.724V26.1379H137.862V22Z" fill="black"/>
    <path d="M142 22H137.862V26.1379H142V22Z" fill="black"/>
    <path d="M26.1379 26.1379H22V30.2759H26.1379V26.1379Z" fill="black"/>
    <path d="M50.9655 26.1379H46.8276V30.2759H50.9655V26.1379Z" fill="black"/>
    <path d="M71.6552 26.1379H67.5172V30.2759H71.6552V26.1379Z" fill="black"/>
    <path d="M75.7931 26.1379H71.6552V30.2759H75.7931V26.1379Z" fill="black"/>
    <path d="M84.069 26.1379H79.931V30.2759H84.069V26.1379Z" fill="black"/>
    <path d="M88.2069 26.1379H84.069V30.2759H88.2069V26.1379Z" fill="black"/>
    <path d="M100.621 26.1379H96.4828V30.2759H100.621V26.1379Z" fill="black"/>
    <path d="M117.172 26.1379H113.034V30.2759H117.172V26.1379Z" fill="black"/>
    <path d="M142 26.1379H137.862V30.2759H142V26.1379Z" fill="black"/>
    <path d="M26.1379 30.2759H22V34.4138H26.1379V30.2759Z" fill="black"/>
    <path d="M34.4138 30.2759H30.2759V34.4138H34.4138V30.2759Z" fill="black"/>
    <path d="M38.5517 30.2759H34.4138V34.4138H38.5517V30.2759Z" fill="black"/>
    <path d="M42.6897 30.2759H38.5517V34.4138H42.6897V30.2759Z" fill="black"/>
    <path d="M50.9655 30.2759H46.8276V34.4138H50.9655V30.2759Z" fill="black"/>
    <path d="M63.3793 30.2759H59.2414V34.4138H63.3793V30.2759Z" fill="black"/>
    <path d="M67.5172 30.2759H63.3793V34.4138H67.5172V30.2759Z" fill="black"/>
    <path d="M84.069 30.2759H79.931V34.4138H84.069V30.2759Z" fill="black"/>
    <path d="M100.621 30.2759H96.4828V34.4138H100.621V30.2759Z" fill="black"/>
    <path d="M104.759 30.2759H100.621V34.4138H104.759V30.2759Z" fill="black"/>
    <path d="M108.897 30.2759H104.759V34.4138H108.897V30.2759Z" fill="black"/>
    <path d="M117.172 30.2759H113.034V34.4138H117.172V30.2759Z" fill="black"/>
    <path d="M125.448 30.2759H121.31V34.4138H125.448V30.2759Z" fill="black"/>
    <path d="M129.586 30.2759H125.448V34.4138H129.586V30.2759Z" fill="black"/>
    <path d="M133.724 30.2759H129.586V34.4138H133.724V30.2759Z" fill="black"/>
    <path d="M142 30.2759H137.862V34.4138H142V30.2759Z" fill="black"/>
    <path d="M26.1379 34.4138H22V38.5517H26.1379V34.4138Z" fill="black"/>
    <path d="M34.4138 34.4138H30.2759V38.5517H34.4138V34.4138Z" fill="black"/>
    <path d="M38.5517 34.4138H34.4138V38.5517H38.5517V34.4138Z" fill="black"/>
    <path d="M42.6897 34.4138H38.5517V38.5517H42.6897V34.4138Z" fill="black"/>
    <path d="M50.9655 34.4138H46.8276V38.5517H50.9655V34.4138Z" fill="black"/>
    <path d="M63.3793 34.4138H59.2414V38.5517H63.3793V34.4138Z" fill="black"/>
    <path d="M67.5172 34.4138H63.3793V38.5517H67.5172V34.4138Z" fill="black"/>
    <path d="M75.7931 34.4138H71.6552V38.5517H75.7931V34.4138Z" fill="black"/>
    <path d="M79.931 34.4138H75.7931V38.5517H79.931V34.4138Z" fill="black"/>
    <path d="M84.069 34.4138H79.931V38.5517H84.069V34.4138Z" fill="black"/>
    <path d="M88.2069 34.4138H84.069V38.5517H88.2069V34.4138Z" fill="black"/>
    <path d="M96.4828 34.4138H92.3448V38.5517H96.4828V34.4138Z" fill="black"/>
    <path d="M104.759 34.4138H100.621V38.5517H104.759V34.4138Z" fill="black"/>
    <path d="M108.897 34.4138H104.759V38.5517H108.897V34.4138Z" fill="black"/>
    <path d="M117.172 34.4138H113.034V38.5517H117.172V34.4138Z" fill="black"/>
    <path d="M125.448 34.4138H121.31V38.5517H125.448V34.4138Z" fill="black"/>
    <path d="M129.586 34.4138H125.448V38.5517H129.586V34.4138Z" fill="black"/>
    <path d="M133.724 34.4138H129.586V38.5517H133.724V34.4138Z" fill="black"/>
    <path d="M142 34.4138H137.862V38.5517H142V34.4138Z" fill="black"/>
    <path d="M26.1379 38.5517H22V42.6897H26.1379V38.5517Z" fill="black"/>
    <path d="M34.4138 38.5517H30.2759V42.6897H34.4138V38.5517Z" fill="black"/>
    <path d="M38.5517 38.5517H34.4138V42.6897H38.5517V38.5517Z" fill="black"/>
    <path d="M42.6897 38.5517H38.5517V42.6897H42.6897V38.5517Z" fill="black"/>
    <path d="M50.9655 38.5517H46.8276V42.6897H50.9655V38.5517Z" fill="black"/>
    <path d="M79.931 38.5517H75.7931V42.6897H79.931V38.5517Z" fill="black"/>
    <path d="M88.2069 38.5517H84.069V42.6897H88.2069V38.5517Z" fill="black"/>
    <path d="M96.4828 38.5517H92.3448V42.6897H96.4828V38.5517Z" fill="black"/>
    <path d="M117.172 38.5517H113.034V42.6897H117.172V38.5517Z" fill="black"/>
    <path d="M125.448 38.5517H121.31V42.6897H125.448V38.5517Z" fill="black"/>
    <path d="M129.586 38.5517H125.448V42.6897H129.586V38.5517Z" fill="black"/>
    <path d="M133.724 38.5517H129.586V42.6897H133.724V38.5517Z" fill="black"/>
    <path d="M142 38.5517H137.862V42.6897H142V38.5517Z" fill="black"/>
    <path d="M26.1379 42.6897H22V46.8276H26.1379V42.6897Z" fill="black"/>
    <path d="M50.9655 42.6897H46.8276V46.8276H50.9655V42.6897Z" fill="black"/>
    <path d="M71.6552 42.6897H67.5172V46.8276H71.6552V42.6897Z" fill="black"/>
    <path d="M75.7931 42.6897H71.6552V46.8276H75.7931V42.6897Z" fill="black"/>
    <path d="M92.3448 42.6897H88.2069V46.8276H92.3448V42.6897Z" fill="black"/>
    <path d="M100.621 42.6897H96.4828V46.8276H100.621V42.6897Z" fill="black"/>
    <path d="M117.172 42.6897H113.034V46.8276H117.172V42.6897Z" fill="black"/>
    <path d="M142 42.6897H137.862V46.8276H142V42.6897Z" fill="black"/>
    <path d="M26.1379 46.8276H22V50.9655H26.1379V46.8276Z" fill="black"/>
    <path d="M30.2759 46.8276H26.1379V50.9655H30.2759V46.8276Z" fill="black"/>
    <path d="M34.4138 46.8276H30.2759V50.9655H34.4138V46.8276Z" fill="black"/>
    <path d="M38.5517 46.8276H34.4138V50.9655H38.5517V46.8276Z" fill="black"/>
    <path d="M42.6897 46.8276H38.5517V50.9655H42.6897V46.8276Z" fill="black"/>
    <path d="M46.8276 46.8276H42.6897V50.9655H46.8276V46.8276Z" fill="black"/>
    <path d="M50.9655 46.8276H46.8276V50.9655H50.9655V46.8276Z" fill="black"/>
    <path d="M59.2414 46.8276H55.1035V50.9655H59.2414V46.8276Z" fill="black"/>
    <path d="M67.5172 46.8276H63.3793V50.9655H67.5172V46.8276Z" fill="black"/>
    <path d="M75.7931 46.8276H71.6552V50.9655H75.7931V46.8276Z" fill="black"/>
    <path d="M84.069 46.8276H79.931V50.9655H84.069V46.8276Z" fill="black"/>
    <path d="M92.3448 46.8276H88.2069V50.9655H92.3448V46.8276Z" fill="black"/>
    <path d="M100.621 46.8276H96.4828V50.9655H100.621V46.8276Z" fill="black"/>
    <path d="M108.897 46.8276H104.759V50.9655H108.897V46.8276Z" fill="black"/>
    <path d="M117.172 46.8276H113.034V50.9655H117.172V46.8276Z" fill="black"/>
    <path d="M121.31 46.8276H117.172V50.9655H121.31V46.8276Z" fill="black"/>
    <path d="M125.448 46.8276H121.31V50.9655H125.448V46.8276Z" fill="black"/>
    <path d="M129.586 46.8276H125.448V50.9655H129.586V46.8276Z" fill="black"/>
    <path d="M133.724 46.8276H129.586V50.9655H133.724V46.8276Z" fill="black"/>
    <path d="M137.862 46.8276H133.724V50.9655H137.862V46.8276Z" fill="black"/>
    <path d="M142 46.8276H137.862V50.9655H142V46.8276Z" fill="black"/>
    <path d="M75.7931 50.9655H71.6552V55.1035H75.7931V50.9655Z" fill="black"/>
    <path d="M79.931 50.9655H75.7931V55.1035H79.931V50.9655Z" fill="black"/>
    <path d="M92.3448 50.9655H88.2069V55.1035H92.3448V50.9655Z" fill="black"/>
    <path d="M96.4828 50.9655H92.3448V55.1035H96.4828V50.9655Z" fill="black"/>
    <path d="M104.759 50.9655H100.621V55.1035H104.759V50.9655Z" fill="black"/>
    <path d="M108.897 50.9655H104.759V55.1035H108.897V50.9655Z" fill="black"/>
    <path d="M30.2759 55.1035H26.1379V59.2414H30.2759V55.1035Z" fill="black"/>
    <path d="M34.4138 55.1035H30.2759V59.2414H34.4138V55.1035Z" fill="black"/>
    <path d="M38.5517 55.1035H34.4138V59.2414H38.5517V55.1035Z" fill="black"/>
    <path d="M50.9655 55.1035H46.8276V59.2414H50.9655V55.1035Z" fill="black"/>
    <path d="M55.1035 55.1035H50.9655V59.2414H55.1035V55.1035Z" fill="black"/>
    <path d="M59.2414 55.1035H55.1035V59.2414H59.2414V55.1035Z" fill="black"/>
    <path d="M63.3793 55.1035H59.2414V59.2414H63.3793V55.1035Z" fill="black"/>
    <path d="M79.931 55.1035H75.7931V59.2414H79.931V55.1035Z" fill="black"/>
    <path d="M92.3448 55.1035H88.2069V59.2414H92.3448V55.1035Z" fill="black"/>
    <path d="M96.4828 55.1035H92.3448V59.2414H96.4828V55.1035Z" fill="black"/>
    <path d="M100.621 55.1035H96.4828V59.2414H100.621V55.1035Z" fill="black"/>
    <path d="M104.759 55.1035H100.621V59.2414H104.759V55.1035Z" fill="black"/>
    <path d="M108.897 55.1035H104.759V59.2414H108.897V55.1035Z" fill="black"/>
    <path d="M113.034 55.1035H108.897V59.2414H113.034V55.1035Z" fill="black"/>
    <path d="M142 55.1035H137.862V59.2414H142V55.1035Z" fill="black"/>
    <path d="M26.1379 59.2414H22V63.3793H26.1379V59.2414Z" fill="black"/>
    <path d="M38.5517 59.2414H34.4138V63.3793H38.5517V59.2414Z" fill="black"/>
    <path d="M42.6897 59.2414H38.5517V63.3793H42.6897V59.2414Z" fill="black"/>
    <path d="M63.3793 59.2414H59.2414V63.3793H63.3793V59.2414Z" fill="black"/>
    <path d="M67.5172 59.2414H63.3793V63.3793H67.5172V59.2414Z" fill="black"/>
    <path d="M71.6552 59.2414H67.5172V63.3793H71.6552V59.2414Z" fill="black"/>
    <path d="M75.7931 59.2414H71.6552V63.3793H75.7931V59.2414Z" fill="black"/>
    <path d="M84.069 59.2414H79.931V63.3793H84.069V59.2414Z" fill="black"/>
    <path d="M88.2069 59.2414H84.069V63.3793H88.2069V59.2414Z" fill="black"/>
    <path d="M117.172 59.2414H113.034V63.3793H117.172V59.2414Z" fill="black"/>
    <path d="M121.31 59.2414H117.172V63.3793H121.31V59.2414Z" fill="black"/>
    <path d="M125.448 59.2414H121.31V63.3793H125.448V59.2414Z" fill="black"/>
    <path d="M129.586 59.2414H125.448V63.3793H129.586V59.2414Z" fill="black"/>
    <path d="M34.4138 63.3793H30.2759V67.5172H34.4138V63.3793Z" fill="black"/>
    <path d="M38.5517 63.3793H34.4138V67.5172H38.5517V63.3793Z" fill="black"/>
    <path d="M42.6897 63.3793H38.5517V67.5172H42.6897V63.3793Z" fill="black"/>
    <path d="M50.9655 63.3793H46.8276V67.5172H50.9655V63.3793Z" fill="black"/>
    <path d="M55.1035 63.3793H50.9655V67.5172H55.1035V63.3793Z" fill="black"/>
    <path d="M59.2414 63.3793H55.1035V67.5172H59.2414V63.3793Z" fill="black"/>
    <path d="M71.6552 63.3793H67.5172V67.5172H71.6552V63.3793Z" fill="black"/>
    <path d="M75.7931 63.3793H71.6552V67.5172H75.7931V63.3793Z" fill="black"/>
    <path d="M79.931 63.3793H75.7931V67.5172H79.931V63.3793Z" fill="black"/>
    <path d="M88.2069 63.3793H84.069V67.5172H88.2069V63.3793Z" fill="black"/>
    <path d="M92.3448 63.3793H88.2069V67.5172H92.3448V63.3793Z" fill="black"/>
    <path d="M100.621 63.3793H96.4828V67.5172H100.621V63.3793Z" fill="black"/>
    <path d="M104.759 63.3793H100.621V67.5172H104.759V63.3793Z" fill="black"/>
    <path d="M121.31 63.3793H117.172V67.5172H121.31V63.3793Z" fill="black"/>
    <path d="M125.448 63.3793H121.31V67.5172H125.448V63.3793Z" fill="black"/>
    <path d="M133.724 63.3793H129.586V67.5172H133.724V63.3793Z" fill="black"/>
    <path d="M142 63.3793H137.862V67.5172H142V63.3793Z" fill="black"/>
    <path d="M34.4138 67.5172H30.2759V71.6552H34.4138V67.5172Z" fill="black"/>
    <path d="M38.5517 67.5172H34.4138V71.6552H38.5517V67.5172Z" fill="black"/>
    <path d="M42.6897 67.5172H38.5517V71.6552H42.6897V67.5172Z" fill="black"/>
    <path d="M59.2414 67.5172H55.1035V71.6552H59.2414V67.5172Z" fill="black"/>
    <path d="M63.3793 67.5172H59.2414V71.6552H63.3793V67.5172Z" fill="black"/>
    <path d="M67.5172 67.5172H63.3793V71.6552H67.5172V67.5172Z" fill="black"/>
    <path d="M75.7931 67.5172H71.6552V71.6552H75.7931V67.5172Z" fill="black"/>
    <path d="M84.069 67.5172H79.931V71.6552H84.069V67.5172Z" fill="black"/>
    <path d="M88.2069 67.5172H84.069V71.6552H88.2069V67.5172Z" fill="black"/>
    <path d="M100.621 67.5172H96.4828V71.6552H100.621V67.5172Z" fill="black"/>
    <path d="M104.759 67.5172H100.621V71.6552H104.759V67.5172Z" fill="black"/>
    <path d="M113.034 67.5172H108.897V71.6552H113.034V67.5172Z" fill="black"/>
    <path d="M117.172 67.5172H113.034V71.6552H117.172V67.5172Z" fill="black"/>
    <path d="M125.448 67.5172H121.31V71.6552H125.448V67.5172Z" fill="black"/>
    <path d="M129.586 67.5172H125.448V71.6552H129.586V67.5172Z" fill="black"/>
    <path d="M137.862 67.5172H133.724V71.6552H137.862V67.5172Z" fill="black"/>
    <path d="M30.2759 71.6552H26.1379V75.7931H30.2759V71.6552Z" fill="black"/>
    <path d="M46.8276 71.6552H42.6897V75.7931H46.8276V71.6552Z" fill="black"/>
    <path d="M50.9655 71.6552H46.8276V75.7931H50.9655V71.6552Z" fill="black"/>
    <path d="M55.1035 71.6552H50.9655V75.7931H55.1035V71.6552Z" fill="black"/>
    <path d="M63.3793 71.6552H59.2414V75.7931H63.3793V71.6552Z" fill="black"/>
    <path d="M75.7931 71.6552H71.6552V75.7931H75.7931V71.6552Z" fill="black"/>
    <path d="M79.931 71.6552H75.7931V75.7931H79.931V71.6552Z" fill="black"/>
    <path d="M88.2069 71.6552H84.069V75.7931H88.2069V71.6552Z" fill="black"/>
    <path d="M92.3448 71.6552H88.2069V75.7931H92.3448V71.6552Z" fill="black"/>
    <path d="M96.4828 71.6552H92.3448V75.7931H96.4828V71.6552Z" fill="black"/>
    <path d="M108.897 71.6552H104.759V75.7931H108.897V71.6552Z" fill="black"/>
    <path d="M121.31 71.6552H117.172V75.7931H121.31V71.6552Z" fill="black"/>
    <path d="M125.448 71.6552H121.31V75.7931H125.448V71.6552Z" fill="black"/>
    <path d="M133.724 71.6552H129.586V75.7931H133.724V71.6552Z" fill="black"/>
    <path d="M137.862 71.6552H133.724V75.7931H137.862V71.6552Z" fill="black"/>
    <path d="M26.1379 75.7931H22V79.931H26.1379V75.7931Z" fill="black"/>
    <path d="M42.6897 75.7931H38.5517V79.931H42.6897V75.7931Z" fill="black"/>
    <path d="M46.8276 75.7931H42.6897V79.931H46.8276V75.7931Z" fill="black"/>
    <path d="M55.1035 75.7931H50.9655V79.931H55.1035V75.7931Z" fill="black"/>
    <path d="M75.7931 75.7931H71.6552V79.931H75.7931V75.7931Z" fill="black"/>
    <path d="M79.931 75.7931H75.7931V79.931H79.931V75.7931Z" fill="black"/>
    <path d="M84.069 75.7931H79.931V79.931H84.069V75.7931Z" fill="black"/>
    <path d="M88.2069 75.7931H84.069V79.931H88.2069V75.7931Z" fill="black"/>
    <path d="M100.621 75.7931H96.4828V79.931H100.621V75.7931Z" fill="black"/>
    <path d="M113.034 75.7931H108.897V79.931H113.034V75.7931Z" fill="black"/>
    <path d="M117.172 75.7931H113.034V79.931H117.172V75.7931Z" fill="black"/>
    <path d="M121.31 75.7931H117.172V79.931H121.31V75.7931Z" fill="black"/>
    <path d="M125.448 75.7931H121.31V79.931H125.448V75.7931Z" fill="black"/>
    <path d="M137.862 75.7931H133.724V79.931H137.862V75.7931Z" fill="black"/>
    <path d="M142 75.7931H137.862V79.931H142V75.7931Z" fill="black"/>
    <path d="M26.1379 79.931H22V84.069H26.1379V79.931Z" fill="black"/>
    <path d="M34.4138 79.931H30.2759V84.069H34.4138V79.931Z" fill="black"/>
    <path d="M38.5517 79.931H34.4138V84.069H38.5517V79.931Z" fill="black"/>
    <path d="M42.6897 79.931H38.5517V84.069H42.6897V79.931Z" fill="black"/>
    <path d="M46.8276 79.931H42.6897V84.069H46.8276V79.931Z" fill="black"/>
    <path d="M50.9655 79.931H46.8276V84.069H50.9655V79.931Z" fill="black"/>
    <path d="M59.2414 79.931H55.1035V84.069H59.2414V79.931Z" fill="black"/>
    <path d="M63.3793 79.931H59.2414V84.069H63.3793V79.931Z" fill="black"/>
    <path d="M71.6552 79.931H67.5172V84.069H71.6552V79.931Z" fill="black"/>
    <path d="M75.7931 79.931H71.6552V84.069H75.7931V79.931Z" fill="black"/>
    <path d="M79.931 79.931H75.7931V84.069H79.931V79.931Z" fill="black"/>
    <path d="M84.069 79.931H79.931V84.069H84.069V79.931Z" fill="black"/>
    <path d="M88.2069 79.931H84.069V84.069H88.2069V79.931Z" fill="black"/>
    <path d="M92.3448 79.931H88.2069V84.069H92.3448V79.931Z" fill="black"/>
    <path d="M100.621 79.931H96.4828V84.069H100.621V79.931Z" fill="black"/>
    <path d="M104.759 79.931H100.621V84.069H104.759V79.931Z" fill="black"/>
    <path d="M117.172 79.931H113.034V84.069H117.172V79.931Z" fill="black"/>
    <path d="M133.724 79.931H129.586V84.069H133.724V79.931Z" fill="black"/>
    <path d="M137.862 79.931H133.724V84.069H137.862V79.931Z" fill="black"/>
    <path d="M26.1379 84.069H22V88.2069H26.1379V84.069Z" fill="black"/>
    <path d="M30.2759 84.069H26.1379V88.2069H30.2759V84.069Z" fill="black"/>
    <path d="M38.5517 84.069H34.4138V88.2069H38.5517V84.069Z" fill="black"/>
    <path d="M42.6897 84.069H38.5517V88.2069H42.6897V84.069Z" fill="black"/>
    <path d="M59.2414 84.069H55.1035V88.2069H59.2414V84.069Z" fill="black"/>
    <path d="M71.6552 84.069H67.5172V88.2069H71.6552V84.069Z" fill="black"/>
    <path d="M84.069 84.069H79.931V88.2069H84.069V84.069Z" fill="black"/>
    <path d="M92.3448 84.069H88.2069V88.2069H92.3448V84.069Z" fill="black"/>
    <path d="M104.759 84.069H100.621V88.2069H104.759V84.069Z" fill="black"/>
    <path d="M117.172 84.069H113.034V88.2069H117.172V84.069Z" fill="black"/>
    <path d="M125.448 84.069H121.31V88.2069H125.448V84.069Z" fill="black"/>
    <path d="M137.862 84.069H133.724V88.2069H137.862V84.069Z" fill="black"/>
    <path d="M34.4138 88.2069H30.2759V92.3448H34.4138V88.2069Z" fill="black"/>
    <path d="M46.8276 88.2069H42.6897V92.3448H46.8276V88.2069Z" fill="black"/>
    <path d="M50.9655 88.2069H46.8276V92.3448H50.9655V88.2069Z" fill="black"/>
    <path d="M71.6552 88.2069H67.5172V92.3448H71.6552V88.2069Z" fill="black"/>
    <path d="M84.069 88.2069H79.931V92.3448H84.069V88.2069Z" fill="black"/>
    <path d="M88.2069 88.2069H84.069V92.3448H88.2069V88.2069Z" fill="black"/>
    <path d="M96.4828 88.2069H92.3448V92.3448H96.4828V88.2069Z" fill="black"/>
    <path d="M100.621 88.2069H96.4828V92.3448H100.621V88.2069Z" fill="black"/>
    <path d="M104.759 88.2069H100.621V92.3448H104.759V88.2069Z" fill="black"/>
    <path d="M108.897 88.2069H104.759V92.3448H108.897V88.2069Z" fill="black"/>
    <path d="M113.034 88.2069H108.897V92.3448H113.034V88.2069Z" fill="black"/>
    <path d="M117.172 88.2069H113.034V92.3448H117.172V88.2069Z" fill="black"/>
    <path d="M125.448 88.2069H121.31V92.3448H125.448V88.2069Z" fill="black"/>
    <path d="M129.586 88.2069H125.448V92.3448H129.586V88.2069Z" fill="black"/>
    <path d="M142 88.2069H137.862V92.3448H142V88.2069Z" fill="black"/>
    <path d="M26.1379 92.3448H22V96.4828H26.1379V92.3448Z" fill="black"/>
    <path d="M30.2759 92.3448H26.1379V96.4828H30.2759V92.3448Z" fill="black"/>
    <path d="M38.5517 92.3448H34.4138V96.4828H38.5517V92.3448Z" fill="black"/>
    <path d="M46.8276 92.3448H42.6897V96.4828H46.8276V92.3448Z" fill="black"/>
    <path d="M59.2414 92.3448H55.1035V96.4828H59.2414V92.3448Z" fill="black"/>
    <path d="M63.3793 92.3448H59.2414V96.4828H63.3793V92.3448Z" fill="black"/>
    <path d="M92.3448 92.3448H88.2069V96.4828H92.3448V92.3448Z" fill="black"/>
    <path d="M113.034 92.3448H108.897V96.4828H113.034V92.3448Z" fill="black"/>
    <path d="M117.172 92.3448H113.034V96.4828H117.172V92.3448Z" fill="black"/>
    <path d="M121.31 92.3448H117.172V96.4828H121.31V92.3448Z" fill="black"/>
    <path d="M125.448 92.3448H121.31V96.4828H125.448V92.3448Z" fill="black"/>
    <path d="M30.2759 96.4828H26.1379V100.621H30.2759V96.4828Z" fill="black"/>
    <path d="M34.4138 96.4828H30.2759V100.621H34.4138V96.4828Z" fill="black"/>
    <path d="M50.9655 96.4828H46.8276V100.621H50.9655V96.4828Z" fill="black"/>
    <path d="M55.1035 96.4828H50.9655V100.621H55.1035V96.4828Z" fill="black"/>
    <path d="M63.3793 96.4828H59.2414V100.621H63.3793V96.4828Z" fill="black"/>
    <path d="M67.5172 96.4828H63.3793V100.621H67.5172V96.4828Z" fill="black"/>
    <path d="M79.931 96.4828H75.7931V100.621H79.931V96.4828Z" fill="black"/>
    <path d="M108.897 96.4828H104.759V100.621H108.897V96.4828Z" fill="black"/>
    <path d="M113.034 96.4828H108.897V100.621H113.034V96.4828Z" fill="black"/>
    <path d="M121.31 96.4828H117.172V100.621H121.31V96.4828Z" fill="black"/>
    <path d="M129.586 96.4828H125.448V100.621H129.586V96.4828Z" fill="black"/>
    <path d="M133.724 96.4828H129.586V100.621H133.724V96.4828Z" fill="black"/>
    <path d="M142 96.4828H137.862V100.621H142V96.4828Z" fill="black"/>
    <path d="M42.6897 100.621H38.5517V104.759H42.6897V100.621Z" fill="black"/>
    <path d="M55.1035 100.621H50.9655V104.759H55.1035V100.621Z" fill="black"/>
    <path d="M63.3793 100.621H59.2414V104.759H63.3793V100.621Z" fill="black"/>
    <path d="M71.6552 100.621H67.5172V104.759H71.6552V100.621Z" fill="black"/>
    <path d="M79.931 100.621H75.7931V104.759H79.931V100.621Z" fill="black"/>
    <path d="M88.2069 100.621H84.069V104.759H88.2069V100.621Z" fill="black"/>
    <path d="M92.3448 100.621H88.2069V104.759H92.3448V100.621Z" fill="black"/>
    <path d="M96.4828 100.621H92.3448V104.759H96.4828V100.621Z" fill="black"/>
    <path d="M100.621 100.621H96.4828V104.759H100.621V100.621Z" fill="black"/>
    <path d="M104.759 100.621H100.621V104.759H104.759V100.621Z" fill="black"/>
    <path d="M113.034 100.621H108.897V104.759H113.034V100.621Z" fill="black"/>
    <path d="M117.172 100.621H113.034V104.759H117.172V100.621Z" fill="black"/>
    <path d="M121.31 100.621H117.172V104.759H121.31V100.621Z" fill="black"/>
    <path d="M125.448 100.621H121.31V104.759H125.448V100.621Z" fill="black"/>
    <path d="M129.586 100.621H125.448V104.759H129.586V100.621Z" fill="black"/>
    <path d="M142 100.621H137.862V104.759H142V100.621Z" fill="black"/>
    <path d="M30.2759 104.759H26.1379V108.897H30.2759V104.759Z" fill="black"/>
    <path d="M34.4138 104.759H30.2759V108.897H34.4138V104.759Z" fill="black"/>
    <path d="M38.5517 104.759H34.4138V108.897H38.5517V104.759Z" fill="black"/>
    <path d="M42.6897 104.759H38.5517V108.897H42.6897V104.759Z" fill="black"/>
    <path d="M50.9655 104.759H46.8276V108.897H50.9655V104.759Z" fill="black"/>
    <path d="M55.1035 104.759H50.9655V108.897H55.1035V104.759Z" fill="black"/>
    <path d="M59.2414 104.759H55.1035V108.897H59.2414V104.759Z" fill="black"/>
    <path d="M67.5172 104.759H63.3793V108.897H67.5172V104.759Z" fill="black"/>
    <path d="M71.6552 104.759H67.5172V108.897H71.6552V104.759Z" fill="black"/>
    <path d="M75.7931 104.759H71.6552V108.897H75.7931V104.759Z" fill="black"/>
    <path d="M79.931 104.759H75.7931V108.897H79.931V104.759Z" fill="black"/>
    <path d="M84.069 104.759H79.931V108.897H84.069V104.759Z" fill="black"/>
    <path d="M100.621 104.759H96.4828V108.897H100.621V104.759Z" fill="black"/>
    <path d="M108.897 104.759H104.759V108.897H108.897V104.759Z" fill="black"/>
    <path d="M113.034 104.759H108.897V108.897H113.034V104.759Z" fill="black"/>
    <path d="M117.172 104.759H113.034V108.897H117.172V104.759Z" fill="black"/>
    <path d="M121.31 104.759H117.172V108.897H121.31V104.759Z" fill="black"/>
    <path d="M125.448 104.759H121.31V108.897H125.448V104.759Z" fill="black"/>
    <path d="M129.586 104.759H125.448V108.897H129.586V104.759Z" fill="black"/>
    <path d="M59.2414 108.897H55.1035V113.034H59.2414V108.897Z" fill="black"/>
    <path d="M67.5172 108.897H63.3793V113.034H67.5172V108.897Z" fill="black"/>
    <path d="M84.069 108.897H79.931V113.034H84.069V108.897Z" fill="black"/>
    <path d="M88.2069 108.897H84.069V113.034H88.2069V108.897Z" fill="black"/>
    <path d="M96.4828 108.897H92.3448V113.034H96.4828V108.897Z" fill="black"/>
    <path d="M108.897 108.897H104.759V113.034H108.897V108.897Z" fill="black"/>
    <path d="M125.448 108.897H121.31V113.034H125.448V108.897Z" fill="black"/>
    <path d="M133.724 108.897H129.586V113.034H133.724V108.897Z" fill="black"/>
    <path d="M137.862 108.897H133.724V113.034H137.862V108.897Z" fill="black"/>
    <path d="M142 108.897H137.862V113.034H142V108.897Z" fill="black"/>
    <path d="M26.1379 113.034H22V117.172H26.1379V113.034Z" fill="black"/>
    <path d="M30.2759 113.034H26.1379V117.172H30.2759V113.034Z" fill="black"/>
    <path d="M34.4138 113.034H30.2759V117.172H34.4138V113.034Z" fill="black"/>
    <path d="M38.5517 113.034H34.4138V117.172H38.5517V113.034Z" fill="black"/>
    <path d="M42.6897 113.034H38.5517V117.172H42.6897V113.034Z" fill="black"/>
    <path d="M46.8276 113.034H42.6897V117.172H46.8276V113.034Z" fill="black"/>
    <path d="M50.9655 113.034H46.8276V117.172H50.9655V113.034Z" fill="black"/>
    <path d="M59.2414 113.034H55.1035V117.172H59.2414V113.034Z" fill="black"/>
    <path d="M71.6552 113.034H67.5172V117.172H71.6552V113.034Z" fill="black"/>
    <path d="M75.7931 113.034H71.6552V117.172H75.7931V113.034Z" fill="black"/>
    <path d="M79.931 113.034H75.7931V117.172H79.931V113.034Z" fill="black"/>
    <path d="M84.069 113.034H79.931V117.172H84.069V113.034Z" fill="black"/>
    <path d="M88.2069 113.034H84.069V117.172H88.2069V113.034Z" fill="black"/>
    <path d="M96.4828 113.034H92.3448V117.172H96.4828V113.034Z" fill="black"/>
    <path d="M100.621 113.034H96.4828V117.172H100.621V113.034Z" fill="black"/>
    <path d="M108.897 113.034H104.759V117.172H108.897V113.034Z" fill="black"/>
    <path d="M117.172 113.034H113.034V117.172H117.172V113.034Z" fill="black"/>
    <path d="M125.448 113.034H121.31V117.172H125.448V113.034Z" fill="black"/>
    <path d="M133.724 113.034H129.586V117.172H133.724V113.034Z" fill="black"/>
    <path d="M142 113.034H137.862V117.172H142V113.034Z" fill="black"/>
    <path d="M26.1379 117.172H22V121.31H26.1379V117.172Z" fill="black"/>
    <path d="M50.9655 117.172H46.8276V121.31H50.9655V117.172Z" fill="black"/>
    <path d="M63.3793 117.172H59.2414V121.31H63.3793V117.172Z" fill="black"/>
    <path d="M71.6552 117.172H67.5172V121.31H71.6552V117.172Z" fill="black"/>
    <path d="M75.7931 117.172H71.6552V121.31H75.7931V117.172Z" fill="black"/>
    <path d="M84.069 117.172H79.931V121.31H84.069V117.172Z" fill="black"/>
    <path d="M88.2069 117.172H84.069V121.31H88.2069V117.172Z" fill="black"/>
    <path d="M92.3448 117.172H88.2069V121.31H92.3448V117.172Z" fill="black"/>
    <path d="M96.4828 117.172H92.3448V121.31H96.4828V117.172Z" fill="black"/>
    <path d="M104.759 117.172H100.621V121.31H104.759V117.172Z" fill="black"/>
    <path d="M108.897 117.172H104.759V121.31H108.897V117.172Z" fill="black"/>
    <path d="M125.448 117.172H121.31V121.31H125.448V117.172Z" fill="black"/>
    <path d="M129.586 117.172H125.448V121.31H129.586V117.172Z" fill="black"/>
    <path d="M133.724 117.172H129.586V121.31H133.724V117.172Z" fill="black"/>
    <path d="M137.862 117.172H133.724V121.31H137.862V117.172Z" fill="black"/>
    <path d="M142 117.172H137.862V121.31H142V117.172Z" fill="black"/>
    <path d="M26.1379 121.31H22V125.448H26.1379V121.31Z" fill="black"/>
    <path d="M34.4138 121.31H30.2759V125.448H34.4138V121.31Z" fill="black"/>
    <path d="M38.5517 121.31H34.4138V125.448H38.5517V121.31Z" fill="black"/>
    <path d="M42.6897 121.31H38.5517V125.448H42.6897V121.31Z" fill="black"/>
    <path d="M50.9655 121.31H46.8276V125.448H50.9655V121.31Z" fill="black"/>
    <path d="M63.3793 121.31H59.2414V125.448H63.3793V121.31Z" fill="black"/>
    <path d="M79.931 121.31H75.7931V125.448H79.931V121.31Z" fill="black"/>
    <path d="M88.2069 121.31H84.069V125.448H88.2069V121.31Z" fill="black"/>
    <path d="M96.4828 121.31H92.3448V125.448H96.4828V121.31Z" fill="black"/>
    <path d="M104.759 121.31H100.621V125.448H104.759V121.31Z" fill="black"/>
    <path d="M108.897 121.31H104.759V125.448H108.897V121.31Z" fill="black"/>
    <path d="M113.034 121.31H108.897V125.448H113.034V121.31Z" fill="black"/>
    <path d="M117.172 121.31H113.034V125.448H117.172V121.31Z" fill="black"/>
    <path d="M121.31 121.31H117.172V125.448H121.31V121.31Z" fill="black"/>
    <path d="M125.448 121.31H121.31V125.448H125.448V121.31Z" fill="black"/>
    <path d="M133.724 121.31H129.586V125.448H133.724V121.31Z" fill="black"/>
    <path d="M142 121.31H137.862V125.448H142V121.31Z" fill="black"/>
    <path d="M26.1379 125.448H22V129.586H26.1379V125.448Z" fill="black"/>
    <path d="M34.4138 125.448H30.2759V129.586H34.4138V125.448Z" fill="black"/>
    <path d="M38.5517 125.448H34.4138V129.586H38.5517V125.448Z" fill="black"/>
    <path d="M42.6897 125.448H38.5517V129.586H42.6897V125.448Z" fill="black"/>
    <path d="M50.9655 125.448H46.8276V129.586H50.9655V125.448Z" fill="black"/>
    <path d="M59.2414 125.448H55.1035V129.586H59.2414V125.448Z" fill="black"/>
    <path d="M71.6552 125.448H67.5172V129.586H71.6552V125.448Z" fill="black"/>
    <path d="M84.069 125.448H79.931V129.586H84.069V125.448Z" fill="black"/>
    <path d="M92.3448 125.448H88.2069V129.586H92.3448V125.448Z" fill="black"/>
    <path d="M100.621 125.448H96.4828V129.586H100.621V125.448Z" fill="black"/>
    <path d="M113.034 125.448H108.897V129.586H113.034V125.448Z" fill="black"/>
    <path d="M117.172 125.448H113.034V129.586H117.172V125.448Z" fill="black"/>
    <path d="M125.448 125.448H121.31V129.586H125.448V125.448Z" fill="black"/>
    <path d="M129.586 125.448H125.448V129.586H129.586V125.448Z" fill="black"/>
    <path d="M133.724 125.448H129.586V129.586H133.724V125.448Z" fill="black"/>
    <path d="M137.862 125.448H133.724V129.586H137.862V125.448Z" fill="black"/>
    <path d="M142 125.448H137.862V129.586H142V125.448Z" fill="black"/>
    <path d="M26.1379 129.586H22V133.724H26.1379V129.586Z" fill="black"/>
    <path d="M34.4138 129.586H30.2759V133.724H34.4138V129.586Z" fill="black"/>
    <path d="M38.5517 129.586H34.4138V133.724H38.5517V129.586Z" fill="black"/>
    <path d="M42.6897 129.586H38.5517V133.724H42.6897V129.586Z" fill="black"/>
    <path d="M50.9655 129.586H46.8276V133.724H50.9655V129.586Z" fill="black"/>
    <path d="M59.2414 129.586H55.1035V133.724H59.2414V129.586Z" fill="black"/>
    <path d="M63.3793 129.586H59.2414V133.724H63.3793V129.586Z" fill="black"/>
    <path d="M84.069 129.586H79.931V133.724H84.069V129.586Z" fill="black"/>
    <path d="M88.2069 129.586H84.069V133.724H88.2069V129.586Z" fill="black"/>
    <path d="M92.3448 129.586H88.2069V133.724H92.3448V129.586Z" fill="black"/>
    <path d="M96.4828 129.586H92.3448V133.724H96.4828V129.586Z" fill="black"/>
    <path d="M108.897 129.586H104.759V133.724H108.897V129.586Z" fill="black"/>
    <path d="M117.172 129.586H113.034V133.724H117.172V129.586Z" fill="black"/>
    <path d="M129.586 129.586H125.448V133.724H129.586V129.586Z" fill="black"/>
    <path d="M133.724 129.586H129.586V133.724H133.724V129.586Z" fill="black"/>
    <path d="M137.862 129.586H133.724V133.724H137.862V129.586Z" fill="black"/>
    <path d="M142 129.586H137.862V133.724H142V129.586Z" fill="black"/>
    <path d="M26.1379 133.724H22V137.862H26.1379V133.724Z" fill="black"/>
    <path d="M50.9655 133.724H46.8276V137.862H50.9655V133.724Z" fill="black"/>
    <path d="M59.2414 133.724H55.1035V137.862H59.2414V133.724Z" fill="black"/>
    <path d="M63.3793 133.724H59.2414V137.862H63.3793V133.724Z" fill="black"/>
    <path d="M79.931 133.724H75.7931V137.862H79.931V133.724Z" fill="black"/>
    <path d="M96.4828 133.724H92.3448V137.862H96.4828V133.724Z" fill="black"/>
    <path d="M108.897 133.724H104.759V137.862H108.897V133.724Z" fill="black"/>
    <path d="M121.31 133.724H117.172V137.862H121.31V133.724Z" fill="black"/>
    <path d="M125.448 133.724H121.31V137.862H125.448V133.724Z" fill="black"/>
    <path d="M129.586 133.724H125.448V137.862H129.586V133.724Z" fill="black"/>
    <path d="M133.724 133.724H129.586V137.862H133.724V133.724Z" fill="black"/>
    <path d="M26.1379 137.862H22V142H26.1379V137.862Z" fill="black"/>
    <path d="M30.2759 137.862H26.1379V142H30.2759V137.862Z" fill="black"/>
    <path d="M34.4138 137.862H30.2759V142H34.4138V137.862Z" fill="black"/>
    <path d="M38.5517 137.862H34.4138V142H38.5517V137.862Z" fill="black"/>
    <path d="M42.6897 137.862H38.5517V142H42.6897V137.862Z" fill="black"/>
    <path d="M46.8276 137.862H42.6897V142H46.8276V137.862Z" fill="black"/>
    <path d="M50.9655 137.862H46.8276V142H50.9655V137.862Z" fill="black"/>
    <path d="M75.7931 137.862H71.6552V142H75.7931V137.862Z" fill="black"/>
    <path d="M79.931 137.862H75.7931V142H79.931V137.862Z" fill="black"/>
    <path d="M88.2069 137.862H84.069V142H88.2069V137.862Z" fill="black"/>
    <path d="M96.4828 137.862H92.3448V142H96.4828V137.862Z" fill="black"/>
    <path d="M100.621 137.862H96.4828V142H100.621V137.862Z" fill="black"/>
    <path d="M108.897 137.862H104.759V142H108.897V137.862Z" fill="black"/>
    <path d="M121.31 137.862H117.172V142H121.31V137.862Z" fill="black"/>
    <path d="M137.862 137.862H133.724V142H137.862V137.862Z" fill="black"/>
  </g>
  <defs>
    <clipPath id="clip0_3256_19675">
      <rect width="164" height="164" rx="12" fill="white"/>
    </clipPath>
  </defs>
</svg>